<?xml version="1.0" encoding="UTF-8"?>
<svg xmlns="http://www.w3.org/2000/svg" xmlns:xlink="http://www.w3.org/1999/xlink" width="500pt" height="500pt" viewBox="0 0 500 500" version="1.1">
<g id="surface1">
<path style=" stroke:none;fill-rule:nonzero;fill:#71D7CD;fill-opacity:1;" d="M 389.8125 22.746094 L 333.195313 79.363281 L 389.8125 135.984375 L 403.839844 121.953125 L 371.171875 89.285156 L 406.746094 89.285156 C 434.066406 89.285156 456.347656 111.570313 456.347656 138.890625 L 456.347656 188.492188 L 476.191406 188.492188 L 476.191406 138.890625 C 476.191406 100.757813 444.878906 69.445313 406.746094 69.445313 L 371.171875 69.445313 L 403.839844 36.777344 Z M 59.523438 69.445313 C 37.628906 69.445313 19.839844 87.230469 19.839844 109.128906 L 19.839844 248.015625 C 19.839844 269.910156 37.628906 287.699219 59.523438 287.699219 L 168.652344 287.699219 L 168.652344 248.015625 C 168.652344 215.191406 195.351563 188.492188 228.175781 188.492188 L 307.539063 188.492188 L 307.539063 109.128906 C 307.539063 87.230469 289.753906 69.445313 267.855469 69.445313 Z M 39.683594 128.96875 L 287.699219 128.96875 L 287.699219 168.652344 L 39.683594 168.652344 Z M 228.175781 208.332031 C 206.28125 208.332031 188.492188 226.121094 188.492188 248.015625 L 188.492188 386.90625 C 188.492188 408.800781 206.28125 426.585938 228.175781 426.585938 L 436.507813 426.585938 C 458.402344 426.585938 476.191406 408.800781 476.191406 386.90625 L 476.191406 248.015625 C 476.191406 226.121094 458.402344 208.332031 436.507813 208.332031 Z M 208.332031 267.855469 L 456.347656 267.855469 L 456.347656 307.539063 L 208.332031 307.539063 Z M 19.839844 307.539063 L 19.839844 357.144531 C 19.839844 395.273438 51.152344 426.585938 89.285156 426.585938 L 124.859375 426.585938 L 92.191406 459.253906 L 106.21875 473.285156 L 162.839844 416.667969 L 106.21875 360.050781 L 92.191406 374.078125 L 124.859375 406.746094 L 89.285156 406.746094 C 61.964844 406.746094 39.683594 384.464844 39.683594 357.144531 L 39.683594 307.539063 Z "/>
</g>
</svg>
