<?xml version="1.0" encoding="UTF-8"?>
<svg xmlns="http://www.w3.org/2000/svg" xmlns:xlink="http://www.w3.org/1999/xlink" width="480pt" height="480pt" viewBox="0 0 480 480" version="1.1">
<g id="surface1">
<path style=" stroke:none;fill-rule:nonzero;fill:#71D7CD;fill-opacity:1;" d="M 47.367188 63.15625 C 29.914063 63.15625 15.789063 77.28125 15.789063 94.738281 L 15.789063 110.527344 L 378.949219 110.527344 L 378.949219 94.738281 C 378.949219 77.28125 364.824219 63.15625 347.367188 63.15625 Z M 410.527344 126.316406 L 410.527344 173.683594 L 457.894531 173.683594 L 457.894531 157.894531 C 457.894531 140.441406 443.769531 126.316406 426.316406 126.316406 Z M 15.789063 157.894531 L 15.789063 300 C 15.789063 317.453125 29.914063 331.578125 47.367188 331.578125 L 347.367188 331.578125 C 364.824219 331.578125 378.949219 317.453125 378.949219 300 L 378.949219 157.894531 Z M 410.527344 221.050781 L 410.527344 331.578125 C 410.527344 349.035156 396.402344 363.15625 378.949219 363.15625 L 94.738281 363.15625 L 94.738281 378.949219 C 94.738281 396.402344 108.859375 410.527344 126.316406 410.527344 L 426.316406 410.527344 C 443.769531 410.527344 457.894531 396.402344 457.894531 378.949219 L 457.894531 221.050781 Z "/>
</g>
</svg>
