<?xml version="1.0" encoding="UTF-8"?>
<svg xmlns="http://www.w3.org/2000/svg" xmlns:xlink="http://www.w3.org/1999/xlink" width="512pt" height="512pt" viewBox="0 0 512 512" version="1.1">
<g id="surface1">
<path style=" stroke:none;fill-rule:nonzero;fill:#71D7CD;fill-opacity:1;" d="M 256 49 L 248 53.5 L 184 89 L 176 93.5 L 176 178.5 L 184 183 L 248 218.5 L 256 223 L 264 218.5 L 328 183 L 336 178.5 L 336 93.5 L 328 89 L 264 53.5 Z M 256 86 L 286.5 103 L 256 119.5 L 225.5 103 Z M 208 129.5 L 240 147 L 240 177 L 208 159.5 Z M 304 129.5 L 304 159.5 L 272 177 L 272 147 Z M 160 133.5 L 80 175.5 L 80 266 L 48 284 L 48 369 L 56 373.5 L 120 409 L 128 413.5 L 136 409 L 200 373.5 L 208 369 L 208 284 L 200 279.5 L 136 244 L 128 239.5 L 112 248.5 L 112 195 L 160 169.5 Z M 352 133.5 L 352 169.5 L 400 195 L 400 248.5 L 384 239.5 L 376 244 L 312 279.5 L 304 284 L 304 369 L 312 373.5 L 376 409 L 384 413.5 L 392 409 L 456 373.5 L 464 369 L 464 284 L 432 266 L 432 175.5 Z M 128 276.5 L 158.5 293.5 L 128 310 L 97.5 293.5 Z M 384 276.5 L 414.5 293.5 L 384 310 L 353.5 293.5 Z M 80 320 L 112 337.5 L 112 367.5 L 80 350 Z M 176 320 L 176 350 L 144 367.5 L 144 337.5 Z M 336 320 L 368 337.5 L 368 367.5 L 336 350 Z M 432 320 L 432 350 L 400 367.5 L 400 337.5 Z M 196 394 L 163.5 412 L 256 463.5 L 348.5 412 L 316 394 L 256 427 Z "/>
</g>
</svg>
