<?xml version="1.0" encoding="UTF-8"?>
<svg width="443px" height="300px" viewBox="0 0 443 300" version="1.1" xmlns="http://www.w3.org/2000/svg" xmlns:xlink="http://www.w3.org/1999/xlink">
    <!-- Generator: Sketch 62 (91390) - https://sketch.com -->
    <title>auth-ui</title>
    <desc>Created with Sketch.</desc>
    <defs>
        <rect id="path-1" x="0" y="52" width="320" height="39" rx="4"></rect>
        <filter x="-0.9%" y="-4.5%" width="101.7%" height="114.1%" filterUnits="objectBoundingBox" id="filter-2">
            <feOffset dx="0" dy="1" in="SourceAlpha" result="shadowOffsetOuter1"></feOffset>
            <feGaussianBlur stdDeviation="0.75" in="shadowOffsetOuter1" result="shadowBlurOuter1"></feGaussianBlur>
            <feColorMatrix values="0 0 0 0 0   0 0 0 0 0   0 0 0 0 0  0 0 0 0.07 0" type="matrix" in="shadowBlurOuter1"></feColorMatrix>
        </filter>
        <rect id="path-3" x="0" y="0" width="320" height="39" rx="4"></rect>
        <filter x="-0.9%" y="-4.5%" width="101.7%" height="114.1%" filterUnits="objectBoundingBox" id="filter-4">
            <feOffset dx="0" dy="1" in="SourceAlpha" result="shadowOffsetOuter1"></feOffset>
            <feGaussianBlur stdDeviation="0.75" in="shadowOffsetOuter1" result="shadowBlurOuter1"></feGaussianBlur>
            <feColorMatrix values="0 0 0 0 0   0 0 0 0 0   0 0 0 0 0  0 0 0 0.07 0" type="matrix" in="shadowBlurOuter1"></feColorMatrix>
        </filter>
    </defs>
    <g id="Page-1" stroke="none" stroke-width="1" fill="none" fill-rule="evenodd">
        <g id="Desktop" transform="translate(-895.000000, -693.000000)">
            <g id="auth-ui" transform="translate(895.000000, 693.000000)">
                <rect id="bg" fill="#F6FAFC" x="0" y="0" width="443" height="300" rx="8"></rect>
                <g id="auth-btn" transform="translate(60.000000, 155.000000)">
                    <g id="Rectangle-Copy-2">
                        <use fill="black" fill-opacity="1" filter="url(#filter-2)" xlink:href="#path-1"></use>
                        <use fill="#FFFFFF" fill-rule="evenodd" xlink:href="#path-1"></use>
                    </g>
                    <g id="Rectangle-Copy-2">
                        <use fill="black" fill-opacity="1" filter="url(#filter-4)" xlink:href="#path-3"></use>
                        <use fill="#FFFFFF" fill-rule="evenodd" xlink:href="#path-3"></use>
                    </g>
                    <path d="M118.896973,77 L119.86377,74.1435547 L123.89209,74.1435547 L124.858887,77 L126.594727,77 L122.778809,66.4311523 L121.006348,66.4311523 L117.19043,77 L118.896973,77 Z M123.474609,72.8251953 L120.28125,72.8251953 L121.855957,68.1889648 L121.899902,68.1889648 L123.474609,72.8251953 Z M130.234863,77.1391602 C131.414062,77.1391602 132.197754,76.6191406 132.622559,75.6962891 L132.65918,75.6962891 L132.65918,77 L134.175293,77 L134.175293,69.2949219 L132.593262,69.2949219 L132.593262,73.784668 C132.593262,74.9858398 131.904785,75.7768555 130.762207,75.7768555 C129.670898,75.7768555 129.114258,75.1469727 129.114258,73.9750977 L129.114258,69.2949219 L127.532227,69.2949219 L127.532227,74.2827148 C127.532227,76.0478516 128.557617,77.1391602 130.234863,77.1391602 Z M138.364746,77.0512695 C138.716309,77.0512695 139.067871,77.0219727 139.243652,76.9780273 L139.243652,75.7255859 C139.141113,75.7475586 138.884766,75.762207 138.723633,75.762207 C138.079102,75.762207 137.786133,75.4619141 137.786133,74.7954102 L137.786133,70.5473633 L139.250977,70.5473633 L139.250977,69.2949219 L137.786133,69.2949219 L137.786133,67.4711914 L136.196777,67.4711914 L136.196777,69.2949219 L135.076172,69.2949219 L135.076172,70.5473633 L136.196777,70.5473633 L136.196777,74.9711914 C136.196777,76.4580078 136.804688,77.0512695 138.364746,77.0512695 Z M142.187988,77 L142.187988,72.546875 C142.187988,71.3310547 142.905762,70.5253906 144.077637,70.5253906 C145.190918,70.5253906 145.762207,71.206543 145.762207,72.3417969 L145.762207,77 L147.351562,77 L147.351562,72.0341797 C147.351562,70.2910156 146.34082,69.1630859 144.648926,69.1630859 C143.477051,69.1630859 142.634766,69.6831055 142.209961,70.5839844 L142.17334,70.5839844 L142.17334,66.4311523 L140.605957,66.4311523 L140.605957,77 L142.187988,77 Z M152.163574,77.1464844 C153.928711,77.1464844 155.261719,76.1430664 155.481445,74.7368164 L153.97998,74.7368164 C153.767578,75.4106445 153.101074,75.8647461 152.200195,75.8647461 C150.933105,75.8647461 150.127441,74.9785156 150.127441,73.6381836 L150.127441,73.5429688 L155.569336,73.5429688 L155.569336,73.0009766 C155.569336,70.6645508 154.236328,69.1557617 152.097656,69.1557617 C149.922363,69.1557617 148.530762,70.7670898 148.530762,73.184082 C148.530762,75.6157227 149.900391,77.1464844 152.163574,77.1464844 Z M153.987305,72.4370117 L150.134766,72.4370117 C150.215332,71.2724609 150.991699,70.4301758 152.097656,70.4301758 C153.203613,70.4301758 153.950684,71.2578125 153.987305,72.4370117 Z M158.374512,77 L158.374512,72.5102539 C158.374512,71.3164062 159.092285,70.5253906 160.205566,70.5253906 C161.304199,70.5253906 161.846191,71.1625977 161.846191,72.3198242 L161.846191,77 L163.435547,77 L163.435547,72.012207 C163.435547,70.2470703 162.461426,69.1630859 160.762207,69.1630859 C159.575684,69.1630859 158.755371,69.7050781 158.337891,70.5839844 L158.30127,70.5839844 L158.30127,69.2949219 L156.79248,69.2949219 L156.79248,77 L158.374512,77 Z M167.588379,77.0512695 C167.939941,77.0512695 168.291504,77.0219727 168.467285,76.9780273 L168.467285,75.7255859 C168.364746,75.7475586 168.108398,75.762207 167.947266,75.762207 C167.302734,75.762207 167.009766,75.4619141 167.009766,74.7954102 L167.009766,70.5473633 L168.474609,70.5473633 L168.474609,69.2949219 L167.009766,69.2949219 L167.009766,67.4711914 L165.42041,67.4711914 L165.42041,69.2949219 L164.299805,69.2949219 L164.299805,70.5473633 L165.42041,70.5473633 L165.42041,74.9711914 C165.42041,76.4580078 166.02832,77.0512695 167.588379,77.0512695 Z M170.613281,68.0498047 C171.118652,68.0498047 171.521484,67.6396484 171.521484,67.1416016 C171.521484,66.6362305 171.118652,66.2333984 170.613281,66.2333984 C170.10791,66.2333984 169.697754,66.6362305 169.697754,67.1416016 C169.697754,67.6396484 170.10791,68.0498047 170.613281,68.0498047 Z M171.404297,77 L171.404297,69.2949219 L169.822266,69.2949219 L169.822266,77 L171.404297,77 Z M176.318848,77.1464844 C178.171875,77.1464844 179.48291,76.0332031 179.651367,74.3925781 L178.12793,74.3925781 C177.944824,75.2861328 177.307617,75.8208008 176.333496,75.8208008 C175.103027,75.8208008 174.290039,74.8393555 174.290039,73.1474609 C174.290039,71.4921875 175.095703,70.4741211 176.318848,70.4741211 C177.351562,70.4741211 177.966797,71.1259766 178.12793,71.9462891 L179.636719,71.9462891 C179.497559,70.4301758 178.289062,69.1557617 176.304199,69.1557617 C174.114258,69.1557617 172.678711,70.7011719 172.678711,73.1474609 C172.678711,75.6376953 174.114258,77.1464844 176.318848,77.1464844 Z M183.027832,77.1318359 C184.038574,77.1318359 185.012695,76.5898438 185.459473,75.7329102 L185.496094,75.7329102 L185.496094,77 L187.012207,77 L187.012207,71.6899414 C187.012207,70.1445312 185.818359,69.1557617 183.950684,69.1557617 C182.046387,69.1557617 180.859863,70.1811523 180.771973,71.5727539 L182.266113,71.5727539 C182.405273,70.8842773 182.976562,70.4448242 183.89209,70.4448242 C184.858887,70.4448242 185.4375,70.9575195 185.4375,71.8144531 L185.4375,72.4077148 L183.328125,72.5322266 C181.49707,72.6347656 180.464355,73.4624023 180.464355,74.8100586 C180.464355,76.1943359 181.519043,77.1318359 183.027832,77.1318359 Z M183.467285,75.8793945 C182.617676,75.8793945 182.061035,75.4399414 182.061035,74.7661133 C182.061035,74.1069336 182.595703,73.6894531 183.540527,73.6235352 L185.4375,73.5063477 L185.4375,74.1142578 C185.4375,75.1176758 184.573242,75.8793945 183.467285,75.8793945 Z M191.172363,77.0512695 C191.523926,77.0512695 191.875488,77.0219727 192.05127,76.9780273 L192.05127,75.7255859 C191.94873,75.7475586 191.692383,75.762207 191.53125,75.762207 C190.886719,75.762207 190.59375,75.4619141 190.59375,74.7954102 L190.59375,70.5473633 L192.058594,70.5473633 L192.058594,69.2949219 L190.59375,69.2949219 L190.59375,67.4711914 L189.004395,67.4711914 L189.004395,69.2949219 L187.883789,69.2949219 L187.883789,70.5473633 L189.004395,70.5473633 L189.004395,74.9711914 C189.004395,76.4580078 189.612305,77.0512695 191.172363,77.0512695 Z M196.643555,77.1464844 C198.408691,77.1464844 199.741699,76.1430664 199.961426,74.7368164 L198.459961,74.7368164 C198.247559,75.4106445 197.581055,75.8647461 196.680176,75.8647461 C195.413086,75.8647461 194.607422,74.9785156 194.607422,73.6381836 L194.607422,73.5429688 L200.049316,73.5429688 L200.049316,73.0009766 C200.049316,70.6645508 198.716309,69.1557617 196.577637,69.1557617 C194.402344,69.1557617 193.010742,70.7670898 193.010742,73.184082 C193.010742,75.6157227 194.380371,77.1464844 196.643555,77.1464844 Z M198.467285,72.4370117 L194.614746,72.4370117 C194.695312,71.2724609 195.47168,70.4301758 196.577637,70.4301758 C197.683594,70.4301758 198.430664,71.2578125 198.467285,72.4370117 Z" id="Authenticate" fill="#3C415C" fill-rule="nonzero"></path>
                    <path d="M18.3759766,25.1757812 C20.7124023,25.1757812 22.2797852,24.0112305 22.7631836,21.9238281 L21.4301758,21.9238281 C21.0493164,23.2128906 19.9360352,23.9599609 18.3833008,23.9599609 C16.2958984,23.9599609 14.9702148,22.3046875 14.9702148,19.7119141 C14.9702148,17.1411133 16.3105469,15.4711914 18.3759766,15.4711914 C19.8847656,15.4711914 21.0932617,16.3793945 21.4301758,17.7636719 L22.7631836,17.7636719 C22.4262695,15.6542969 20.6757812,14.2553711 18.3759766,14.2553711 C15.4829102,14.2553711 13.6152344,16.394043 13.6152344,19.7119141 C13.6152344,23.059082 15.4609375,25.1757812 18.3759766,25.1757812 Z M27.2749023,25.1318359 C29.3769531,25.1318359 30.7978516,23.6157227 30.7978516,21.1914062 C30.7978516,18.7597656 29.3769531,17.2509766 27.2749023,17.2509766 C25.1655273,17.2509766 23.7446289,18.7597656 23.7446289,21.1914062 C23.7446289,23.6157227 25.1655273,25.1318359 27.2749023,25.1318359 Z M27.2749023,24.0112305 C25.9272461,24.0112305 25.0410156,22.9858398 25.0410156,21.1914062 C25.0410156,19.3969727 25.9272461,18.371582 27.2749023,18.371582 C28.6225586,18.371582 29.5014648,19.3969727 29.5014648,21.1914062 C29.5014648,22.9858398 28.6225586,24.0112305 27.2749023,24.0112305 Z M33.3540039,25 L33.3540039,20.5175781 C33.3540039,19.2285156 34.1376953,18.3789062 35.3388672,18.3789062 C36.5107422,18.3789062 37.0893555,19.0527344 37.0893555,20.2832031 L37.0893555,25 L38.3637695,25 L38.3637695,20.0561523 C38.3637695,18.3276367 37.3969727,17.2509766 35.7270508,17.2509766 C34.5478516,17.2509766 33.7348633,17.7783203 33.3100586,18.5986328 L33.2807617,18.5986328 L33.2807617,17.3828125 L32.0795898,17.3828125 L32.0795898,25 L33.3540039,25 Z M41.6669922,25 L41.6669922,18.4301758 L43.2197266,18.4301758 L43.2197266,17.3828125 L41.659668,17.3828125 L41.659668,16.5405273 C41.659668,15.7861328 41.9892578,15.4199219 42.6777344,15.4199219 C42.8901367,15.4199219 43.1025391,15.4418945 43.2563477,15.4638672 L43.2563477,14.4311523 C43.0732422,14.4018555 42.765625,14.3725586 42.4799805,14.3725586 C41.0737305,14.3725586 40.3925781,15.0683594 40.3925781,16.5332031 L40.3925781,17.3828125 L39.3305664,17.3828125 L39.3305664,18.4301758 L40.3925781,18.4301758 L40.3925781,25 L41.6669922,25 Z M45.2412109,16.027832 C45.6879883,16.027832 46.0395508,15.6689453 46.0395508,15.2294922 C46.0395508,14.7827148 45.6879883,14.4311523 45.2412109,14.4311523 C44.8017578,14.4311523 44.4428711,14.7827148 44.4428711,15.2294922 C44.4428711,15.6689453 44.8017578,16.027832 45.2412109,16.027832 Z M45.878418,25 L45.878418,17.3828125 L44.6040039,17.3828125 L44.6040039,25 L45.878418,25 Z M48.8740234,25 L48.8740234,20.2539062 C48.8740234,19.1772461 49.5185547,18.4667969 50.5073242,18.4667969 C50.8149414,18.4667969 51.0859375,18.503418 51.1884766,18.5400391 L51.1884766,17.3022461 C51.0859375,17.2875977 50.8955078,17.2509766 50.6757812,17.2509766 C49.7822266,17.2509766 49.0791016,17.7856445 48.8300781,18.6279297 L48.8007812,18.6279297 L48.8007812,17.3828125 L47.5996094,17.3828125 L47.5996094,25 L48.8740234,25 Z M53.4956055,25 L53.4956055,20.2246094 C53.4956055,19.1699219 54.2280273,18.3789062 55.2387695,18.3789062 C56.1835938,18.3789062 56.7988281,18.9794922 56.7988281,19.8950195 L56.7988281,25 L58.0732422,25 L58.0732422,20.1586914 C58.0732422,19.1259766 58.7836914,18.3789062 59.7944336,18.3789062 C60.7978516,18.3789062 61.3764648,18.9941406 61.3764648,20.0341797 L61.3764648,25 L62.6508789,25 L62.6508789,19.7412109 C62.6508789,18.2324219 61.6767578,17.2509766 60.1679688,17.2509766 C59.0986328,17.2509766 58.2050781,17.7929688 57.7802734,18.7011719 L57.7509766,18.7011719 C57.4213867,17.7783203 56.6523438,17.2509766 55.6123047,17.2509766 C54.5869141,17.2509766 53.8105469,17.7929688 53.4516602,18.5986328 L53.4223633,18.5986328 L53.4223633,17.3828125 L52.2211914,17.3828125 L52.2211914,25 L53.4956055,25 Z M66.4960938,25.1318359 C67.5214844,25.1318359 68.4882812,24.5605469 68.9423828,23.6889648 L68.9716797,23.6889648 L68.9716797,25 L70.1801758,25 L70.1801758,19.7338867 C70.1801758,18.2177734 69.0522461,17.2509766 67.2651367,17.2509766 C65.4633789,17.2509766 64.3354492,18.2617188 64.2475586,19.5800781 L65.4780273,19.5800781 C65.6391602,18.8330078 66.2543945,18.371582 67.2358398,18.371582 C68.2905273,18.371582 68.9057617,18.9282227 68.9057617,19.8583984 L68.9057617,20.4956055 L66.7231445,20.6201172 C64.965332,20.7226562 63.9619141,21.5429688 63.9619141,22.8466797 C63.9619141,24.2163086 64.9799805,25.1318359 66.4960938,25.1318359 Z M66.7817383,24.0478516 C65.8662109,24.0478516 65.2583008,23.5717773 65.2583008,22.8466797 C65.2583008,22.1289062 65.8442383,21.6748047 66.8696289,21.6088867 L68.9057617,21.484375 L68.9057617,22.1069336 C68.9057617,23.2055664 67.9829102,24.0478516 66.7817383,24.0478516 Z M74.1499023,25.0585938 C74.4501953,25.0585938 74.8017578,25.0366211 74.9555664,25 L74.9555664,23.9306641 C74.8676758,23.9453125 74.574707,23.9672852 74.4282227,23.9672852 C73.7763672,23.9672852 73.4833984,23.6523438 73.4833984,22.956543 L73.4833984,18.4301758 L74.9628906,18.4301758 L74.9628906,17.3828125 L73.4833984,17.3828125 L73.4833984,15.5444336 L72.2089844,15.5444336 L72.2089844,17.3828125 L71.0737305,17.3828125 L71.0737305,18.4301758 L72.2089844,18.4301758 L72.2089844,23.0224609 C72.2089844,24.4873047 72.7509766,25.0585938 74.1499023,25.0585938 Z M77.0209961,16.027832 C77.4677734,16.027832 77.8193359,15.6689453 77.8193359,15.2294922 C77.8193359,14.7827148 77.4677734,14.4311523 77.0209961,14.4311523 C76.581543,14.4311523 76.2226562,14.7827148 76.2226562,15.2294922 C76.2226562,15.6689453 76.581543,16.027832 77.0209961,16.027832 Z M77.6582031,25 L77.6582031,17.3828125 L76.3837891,17.3828125 L76.3837891,25 L77.6582031,25 Z M82.5361328,25.1318359 C84.6381836,25.1318359 86.059082,23.6157227 86.059082,21.1914062 C86.059082,18.7597656 84.6381836,17.2509766 82.5361328,17.2509766 C80.4267578,17.2509766 79.0058594,18.7597656 79.0058594,21.1914062 C79.0058594,23.6157227 80.4267578,25.1318359 82.5361328,25.1318359 Z M82.5361328,24.0112305 C81.1884766,24.0112305 80.3022461,22.9858398 80.3022461,21.1914062 C80.3022461,19.3969727 81.1884766,18.371582 82.5361328,18.371582 C83.8837891,18.371582 84.7626953,19.3969727 84.7626953,21.1914062 C84.7626953,22.9858398 83.8837891,24.0112305 82.5361328,24.0112305 Z M88.6152344,25 L88.6152344,20.5175781 C88.6152344,19.2285156 89.3989258,18.3789062 90.6000977,18.3789062 C91.7719727,18.3789062 92.3505859,19.0527344 92.3505859,20.2832031 L92.3505859,25 L93.625,25 L93.625,20.0561523 C93.625,18.3276367 92.6582031,17.2509766 90.9882812,17.2509766 C89.809082,17.2509766 88.9960938,17.7783203 88.5712891,18.5986328 L88.5419922,18.5986328 L88.5419922,17.3828125 L87.3408203,17.3828125 L87.3408203,25 L88.6152344,25 Z M101.461914,25.1318359 C103.19043,25.1318359 104.464844,24.0625 104.662598,22.5463867 L103.410156,22.5463867 C103.19043,23.4619141 102.509277,24.0112305 101.469238,24.0112305 C100.150879,24.0112305 99.2426758,22.9638672 99.2426758,21.1914062 C99.2426758,19.4628906 100.13623,18.371582 101.45459,18.371582 C102.575195,18.371582 103.219727,19.0527344 103.402832,19.8803711 L104.647949,19.8803711 C104.486816,18.5107422 103.351562,17.2509766 101.447266,17.2509766 C99.3452148,17.2509766 97.9462891,18.7890625 97.9462891,21.1914062 C97.9462891,23.6450195 99.3525391,25.1318359 101.461914,25.1318359 Z M108.991211,25.1318359 C111.093262,25.1318359 112.51416,23.6157227 112.51416,21.1914062 C112.51416,18.7597656 111.093262,17.2509766 108.991211,17.2509766 C106.881836,17.2509766 105.460938,18.7597656 105.460938,21.1914062 C105.460938,23.6157227 106.881836,25.1318359 108.991211,25.1318359 Z M108.991211,24.0112305 C107.643555,24.0112305 106.757324,22.9858398 106.757324,21.1914062 C106.757324,19.3969727 107.643555,18.371582 108.991211,18.371582 C110.338867,18.371582 111.217773,19.3969727 111.217773,21.1914062 C111.217773,22.9858398 110.338867,24.0112305 108.991211,24.0112305 Z M116.681641,25.1318359 C117.780273,25.1318359 118.651855,24.5898438 119.142578,23.7109375 L119.164551,23.7109375 L119.164551,25 L120.380371,25 L120.380371,14.4311523 L119.105957,14.4311523 L119.105957,18.6206055 L119.07666,18.6206055 C118.622559,17.7856445 117.743652,17.2509766 116.652344,17.2509766 C114.733398,17.2509766 113.422363,18.8037109 113.422363,21.1914062 C113.422363,23.5791016 114.740723,25.1318359 116.681641,25.1318359 Z M116.92334,24.0112305 C115.575684,24.0112305 114.726074,22.9199219 114.726074,21.1914062 C114.726074,19.4702148 115.575684,18.371582 116.92334,18.371582 C118.234375,18.371582 119.113281,19.4921875 119.113281,21.1914062 C119.113281,22.8979492 118.234375,24.0112305 116.92334,24.0112305 Z M125.236328,25.1318359 C126.898926,25.1318359 128.187988,24.1503906 128.407715,22.8173828 L127.155273,22.8173828 C126.942871,23.5351562 126.232422,24.0258789 125.265625,24.0258789 C123.895996,24.0258789 123.039062,23.0664062 123.039062,21.6088867 L123.039062,21.5356445 L128.50293,21.5356445 L128.50293,21.0522461 C128.50293,18.7451172 127.23584,17.2509766 125.177734,17.2509766 C123.075684,17.2509766 121.728027,18.8549805 121.728027,21.2207031 C121.728027,23.6157227 123.053711,25.1318359 125.236328,25.1318359 Z M127.18457,20.5395508 L123.046387,20.5395508 C123.126953,19.2724609 123.961914,18.3569336 125.155762,18.3569336 C126.356934,18.3569336 127.155273,19.2651367 127.18457,20.5395508 Z" id="Confirmationcode" fill="#A0AABD" fill-rule="nonzero"></path>
                </g>
                <path d="M64.75,100 L67.3515625,91.0546875 L67.4296875,91.0546875 L70.03125,100 L71.359375,100 L74.4296875,88.7265625 L72.9609375,88.7265625 L70.703125,97.9296875 L70.640625,97.9296875 L68.1015625,88.7265625 L66.6796875,88.7265625 L64.140625,97.9296875 L64.078125,97.9296875 L61.8203125,88.7265625 L60.3515625,88.7265625 L63.421875,100 L64.75,100 Z M77.9724375,100.140625 C79.745875,100.140625 81.120875,99.09375 81.35525,97.671875 L80.0193125,97.671875 C79.79275,98.4375 79.0349375,98.9609375 78.0036875,98.9609375 C76.54275,98.9609375 75.6286875,97.9375 75.6286875,96.3828125 L75.6286875,96.3046875 L81.4568125,96.3046875 L81.4568125,95.7890625 C81.4568125,93.328125 80.10525,91.734375 77.9099375,91.734375 C75.66775,91.734375 74.23025,93.4453125 74.23025,95.96875 C74.23025,98.5234375 75.6443125,100.140625 77.9724375,100.140625 Z M80.0505625,95.2421875 L75.6365,95.2421875 C75.7224375,93.890625 76.6130625,92.9140625 77.8865,92.9140625 C79.16775,92.9140625 80.0193125,93.8828125 80.0505625,95.2421875 Z M87.1829375,100 L87.1829375,95.265625 C87.1829375,93.859375 88.018875,92.9375 89.3704375,92.9375 C90.643875,92.9375 91.2923125,93.7109375 91.2923125,95 L91.2923125,100 L92.6516875,100 L92.6516875,94.75 C92.6516875,92.9375 91.5735625,91.734375 89.7923125,91.734375 C88.5579375,91.734375 87.6673125,92.265625 87.2141875,93.171875 L87.1829375,93.171875 L87.1829375,88.7265625 L85.8235625,88.7265625 L85.8235625,100 L87.1829375,100 Z M96.57725,100.140625 C97.671,100.140625 98.70225,99.53125 99.186625,98.6015625 L99.217875,98.6015625 L99.217875,100 L100.506937,100 L100.506937,94.3828125 C100.506937,92.765625 99.3038125,91.734375 97.3975625,91.734375 C95.4756875,91.734375 94.2725625,92.8125 94.1788125,94.21875 L95.4913125,94.21875 C95.6631875,93.421875 96.3194375,92.9296875 97.3663125,92.9296875 C98.4913125,92.9296875 99.1475625,93.5234375 99.1475625,94.515625 L99.1475625,95.1953125 L96.8194375,95.328125 C94.9444375,95.4375 93.874125,96.3125 93.874125,97.703125 C93.874125,99.1640625 94.9600625,100.140625 96.57725,100.140625 Z M96.8819375,98.984375 C95.905375,98.984375 95.2569375,98.4765625 95.2569375,97.703125 C95.2569375,96.9375 95.8819375,96.453125 96.9756875,96.3828125 L99.1475625,96.25 L99.1475625,96.9140625 C99.1475625,98.0859375 98.1631875,98.984375 96.8819375,98.984375 Z M105.737188,100 L108.721563,91.875 L107.3075,91.875 L105.0575,98.5546875 L105.02625,98.5546875 L102.784063,91.875 L101.354375,91.875 L104.346563,100 L105.737188,100 Z M112.717437,100.140625 C114.490875,100.140625 115.865875,99.09375 116.10025,97.671875 L114.764312,97.671875 C114.53775,98.4375 113.779937,98.9609375 112.748687,98.9609375 C111.28775,98.9609375 110.373687,97.9375 110.373687,96.3828125 L110.373687,96.3046875 L116.201812,96.3046875 L116.201812,95.7890625 C116.201812,93.328125 114.85025,91.734375 112.654937,91.734375 C110.41275,91.734375 108.97525,93.4453125 108.97525,95.96875 C108.97525,98.5234375 110.389312,100.140625 112.717437,100.140625 Z M114.795562,95.2421875 L110.3815,95.2421875 C110.467437,93.890625 111.358062,92.9140625 112.6315,92.9140625 C113.91275,92.9140625 114.764312,93.8828125 114.795562,95.2421875 Z M123.388875,100.140625 C125.201375,100.140625 126.537312,99.140625 126.537312,97.7265625 C126.537312,96.5625 125.943562,95.921875 124.302937,95.5234375 L123.013875,95.2109375 C122.107625,94.9921875 121.693562,94.609375 121.693562,94.046875 C121.693562,93.3359375 122.349812,92.84375 123.342,92.84375 C124.342,92.84375 124.967,93.3671875 125.068562,94.21875 L126.365437,94.21875 C126.31075,92.78125 125.12325,91.734375 123.342,91.734375 C121.584187,91.734375 120.357625,92.7265625 120.357625,94.1171875 C120.357625,95.2890625 121.099812,96 122.631062,96.3671875 L123.920125,96.6796875 C124.849812,96.90625 125.170125,97.2421875 125.170125,97.828125 C125.170125,98.5625 124.490437,99.03125 123.388875,99.03125 C122.287312,99.03125 121.662312,98.5859375 121.49825,97.65625 L120.138875,97.65625 C120.295125,99.1796875 121.482625,100.140625 123.388875,100.140625 Z M131.111312,100.140625 C132.88475,100.140625 134.25975,99.09375 134.494125,97.671875 L133.158187,97.671875 C132.931625,98.4375 132.173812,98.9609375 131.142562,98.9609375 C129.681625,98.9609375 128.767562,97.9375 128.767562,96.3828125 L128.767562,96.3046875 L134.595687,96.3046875 L134.595687,95.7890625 C134.595687,93.328125 133.244125,91.734375 131.048812,91.734375 C128.806625,91.734375 127.369125,93.4453125 127.369125,95.96875 C127.369125,98.5234375 128.783187,100.140625 131.111312,100.140625 Z M133.189437,95.2421875 L128.775375,95.2421875 C128.861312,93.890625 129.751937,92.9140625 131.025375,92.9140625 C132.306625,92.9140625 133.158187,93.8828125 133.189437,95.2421875 Z M137.14625,100 L137.14625,95.21875 C137.14625,93.84375 137.982188,92.9375 139.263438,92.9375 C140.513438,92.9375 141.130625,93.65625 141.130625,94.96875 L141.130625,100 L142.49,100 L142.49,94.7265625 C142.49,92.8828125 141.45875,91.734375 139.6775,91.734375 C138.419688,91.734375 137.5525,92.296875 137.099375,93.171875 L137.068125,93.171875 L137.068125,91.875 L135.786875,91.875 L135.786875,100 L137.14625,100 Z M146.548375,100.0625 C146.868687,100.0625 147.243687,100.039062 147.40775,100 L147.40775,98.859375 C147.314,98.875 147.0015,98.8984375 146.84525,98.8984375 C146.149937,98.8984375 145.837437,98.5625 145.837437,97.8203125 L145.837437,92.9921875 L147.415562,92.9921875 L147.415562,91.875 L145.837437,91.875 L145.837437,89.9140625 L144.478062,89.9140625 L144.478062,91.875 L143.267125,91.875 L143.267125,92.9921875 L144.478062,92.9921875 L144.478062,97.890625 C144.478062,99.453125 145.056187,100.0625 146.548375,100.0625 Z M152.469812,103.039062 C153.938562,103.039062 154.610437,102.46875 155.30575,100.570312 L158.501062,91.875 L157.071375,91.875 L154.821375,98.640625 L154.797937,98.640625 L152.547937,91.875 L151.094812,91.875 L154.094812,100.007812 L153.907312,100.578125 C153.594812,101.523438 153.172937,101.890625 152.415125,101.890625 C152.24325,101.890625 152.032312,101.882812 151.883875,101.851562 L151.883875,102.992188 C152.032312,103.023438 152.30575,103.039062 152.469812,103.039062 Z M162.528188,100.140625 C164.770375,100.140625 166.286,98.5234375 166.286,95.9375 C166.286,93.34375 164.770375,91.734375 162.528188,91.734375 C160.278188,91.734375 158.762563,93.34375 158.762563,95.9375 C158.762563,98.5234375 160.278188,100.140625 162.528188,100.140625 Z M162.528188,98.9453125 C161.090688,98.9453125 160.145375,97.8515625 160.145375,95.9375 C160.145375,94.0234375 161.090688,92.9296875 162.528188,92.9296875 C163.965688,92.9296875 164.903188,94.0234375 164.903188,95.9375 C164.903188,97.8515625 163.965688,98.9453125 162.528188,98.9453125 Z M170.250625,100.140625 C171.500625,100.140625 172.344375,99.6171875 172.82875,98.6796875 L172.86,98.6796875 L172.86,100 L174.149062,100 L174.149062,91.875 L172.789687,91.875 L172.789687,96.6484375 C172.789687,98.03125 171.992812,98.9375 170.6725,98.9375 C169.414687,98.9375 168.7975,98.2265625 168.7975,96.90625 L168.7975,91.875 L167.438125,91.875 L167.438125,97.1484375 C167.438125,98.9921875 168.477187,100.140625 170.250625,100.140625 Z M181.211125,100.140625 C182.304875,100.140625 183.336125,99.53125 183.8205,98.6015625 L183.85175,98.6015625 L183.85175,100 L185.140812,100 L185.140812,94.3828125 C185.140812,92.765625 183.937687,91.734375 182.031437,91.734375 C180.109562,91.734375 178.906437,92.8125 178.812687,94.21875 L180.125187,94.21875 C180.297062,93.421875 180.953312,92.9296875 182.000187,92.9296875 C183.125187,92.9296875 183.781437,93.5234375 183.781437,94.515625 L183.781437,95.1953125 L181.453312,95.328125 C179.578312,95.4375 178.508,96.3125 178.508,97.703125 C178.508,99.1640625 179.593937,100.140625 181.211125,100.140625 Z M181.515812,98.984375 C180.53925,98.984375 179.890812,98.4765625 179.890812,97.703125 C179.890812,96.9375 180.515812,96.453125 181.609562,96.3828125 L183.781437,96.25 L183.781437,96.9140625 C183.781437,98.0859375 182.797062,98.984375 181.515812,98.984375 Z M192.304437,100.0625 C192.62475,100.0625 192.99975,100.039062 193.163812,100 L193.163812,98.859375 C193.070062,98.875 192.757562,98.8984375 192.601312,98.8984375 C191.906,98.8984375 191.5935,98.5625 191.5935,97.8203125 L191.5935,92.9921875 L193.171625,92.9921875 L193.171625,91.875 L191.5935,91.875 L191.5935,89.9140625 L190.234125,89.9140625 L190.234125,91.875 L189.023187,91.875 L189.023187,92.9921875 L190.234125,92.9921875 L190.234125,97.890625 C190.234125,99.453125 190.81225,100.0625 192.304437,100.0625 Z M197.550312,100.140625 C199.32375,100.140625 200.69875,99.09375 200.933125,97.671875 L199.597187,97.671875 C199.370625,98.4375 198.612812,98.9609375 197.581562,98.9609375 C196.120625,98.9609375 195.206562,97.9375 195.206562,96.3828125 L195.206562,96.3046875 L201.034687,96.3046875 L201.034687,95.7890625 C201.034687,93.328125 199.683125,91.734375 197.487812,91.734375 C195.245625,91.734375 193.808125,93.4453125 193.808125,95.96875 C193.808125,98.5234375 195.222187,100.140625 197.550312,100.140625 Z M199.628437,95.2421875 L195.214375,95.2421875 C195.300312,93.890625 196.190937,92.9140625 197.464375,92.9140625 C198.745625,92.9140625 199.597187,93.8828125 199.628437,95.2421875 Z M202.952438,100 L204.913375,96.90625 L204.944625,96.90625 L206.889938,100 L208.39775,100 L205.694625,95.8828125 L208.436813,91.875 L206.921188,91.875 L204.9915,94.921875 L204.96025,94.921875 L203.007125,91.875 L201.4915,91.875 L204.21025,95.9375 L201.444625,100 L202.952438,100 Z M211.90925,100.0625 C212.229563,100.0625 212.604563,100.039062 212.768625,100 L212.768625,98.859375 C212.674875,98.875 212.362375,98.8984375 212.206125,98.8984375 C211.510813,98.8984375 211.198313,98.5625 211.198313,97.8203125 L211.198313,92.9921875 L212.776438,92.9921875 L212.776438,91.875 L211.198313,91.875 L211.198313,89.9140625 L209.838938,89.9140625 L209.838938,91.875 L208.628,91.875 L208.628,92.9921875 L209.838938,92.9921875 L209.838938,97.890625 C209.838938,99.453125 210.417063,100.0625 211.90925,100.0625 Z M218.510375,100 L218.510375,94.90625 C218.510375,93.78125 219.291625,92.9375 220.36975,92.9375 C221.377563,92.9375 222.033813,93.578125 222.033813,94.5546875 L222.033813,100 L223.393188,100 L223.393188,94.8359375 C223.393188,93.734375 224.151,92.9375 225.229125,92.9375 C226.299438,92.9375 226.916625,93.59375 226.916625,94.703125 L226.916625,100 L228.276,100 L228.276,94.390625 C228.276,92.78125 227.236938,91.734375 225.627563,91.734375 C224.486938,91.734375 223.533813,92.3125 223.080688,93.28125 L223.049438,93.28125 C222.697875,92.296875 221.877563,91.734375 220.768188,91.734375 C219.674438,91.734375 218.846313,92.3125 218.4635,93.171875 L218.43225,93.171875 L218.43225,91.875 L217.151,91.875 L217.151,100 L218.510375,100 Z M233.170313,100.140625 C234.94375,100.140625 236.31875,99.09375 236.553125,97.671875 L235.217188,97.671875 C234.990625,98.4375 234.232813,98.9609375 233.201563,98.9609375 C231.740625,98.9609375 230.826563,97.9375 230.826563,96.3828125 L230.826563,96.3046875 L236.654688,96.3046875 L236.654688,95.7890625 C236.654688,93.328125 235.303125,91.734375 233.107813,91.734375 C230.865625,91.734375 229.428125,93.4453125 229.428125,95.96875 C229.428125,98.5234375 230.842188,100.140625 233.170313,100.140625 Z M235.248438,95.2421875 L230.834375,95.2421875 C230.920313,93.890625 231.810938,92.9140625 233.084375,92.9140625 C234.365625,92.9140625 235.217188,93.8828125 235.248438,95.2421875 Z M240.7365,100.140625 C242.549,100.140625 243.884938,99.140625 243.884938,97.7265625 C243.884938,96.5625 243.291188,95.921875 241.650563,95.5234375 L240.3615,95.2109375 C239.45525,94.9921875 239.041188,94.609375 239.041188,94.046875 C239.041188,93.3359375 239.697438,92.84375 240.689625,92.84375 C241.689625,92.84375 242.314625,93.3671875 242.416188,94.21875 L243.713063,94.21875 C243.658375,92.78125 242.470875,91.734375 240.689625,91.734375 C238.931813,91.734375 237.70525,92.7265625 237.70525,94.1171875 C237.70525,95.2890625 238.447438,96 239.978688,96.3671875 L241.26775,96.6796875 C242.197438,96.90625 242.51775,97.2421875 242.51775,97.828125 C242.51775,98.5625 241.838063,99.03125 240.7365,99.03125 C239.634938,99.03125 239.009938,98.5859375 238.845875,97.65625 L237.4865,97.65625 C237.64275,99.1796875 238.83025,100.140625 240.7365,100.140625 Z M248.005813,100.140625 C249.818313,100.140625 251.15425,99.140625 251.15425,97.7265625 C251.15425,96.5625 250.5605,95.921875 248.919875,95.5234375 L247.630813,95.2109375 C246.724563,94.9921875 246.3105,94.609375 246.3105,94.046875 C246.3105,93.3359375 246.96675,92.84375 247.958938,92.84375 C248.958938,92.84375 249.583938,93.3671875 249.6855,94.21875 L250.982375,94.21875 C250.927688,92.78125 249.740188,91.734375 247.958938,91.734375 C246.201125,91.734375 244.974563,92.7265625 244.974563,94.1171875 C244.974563,95.2890625 245.71675,96 247.248,96.3671875 L248.537063,96.6796875 C249.46675,96.90625 249.787063,97.2421875 249.787063,97.828125 C249.787063,98.5625 249.107375,99.03125 248.005813,99.03125 C246.90425,99.03125 246.27925,98.5859375 246.115188,97.65625 L244.755813,97.65625 C244.912063,99.1796875 246.099563,100.140625 248.005813,100.140625 Z M254.7595,100.140625 C255.85325,100.140625 256.8845,99.53125 257.368875,98.6015625 L257.400125,98.6015625 L257.400125,100 L258.689188,100 L258.689188,94.3828125 C258.689188,92.765625 257.486063,91.734375 255.579813,91.734375 C253.657938,91.734375 252.454813,92.8125 252.361063,94.21875 L253.673563,94.21875 C253.845438,93.421875 254.501688,92.9296875 255.548563,92.9296875 C256.673563,92.9296875 257.329813,93.5234375 257.329813,94.515625 L257.329813,95.1953125 L255.001688,95.328125 C253.126688,95.4375 252.056375,96.3125 252.056375,97.703125 C252.056375,99.1640625 253.142313,100.140625 254.7595,100.140625 Z M255.064188,98.984375 C254.087625,98.984375 253.439188,98.4765625 253.439188,97.703125 C253.439188,96.9375 254.064188,96.453125 255.157938,96.3828125 L257.329813,96.25 L257.329813,96.9140625 C257.329813,98.0859375 256.345438,98.984375 255.064188,98.984375 Z M263.591313,103.0625 C265.8335,103.0625 267.263188,101.773438 267.263188,99.8359375 L267.263188,91.875 L265.966313,91.875 L265.966313,93.2421875 L265.942875,93.2421875 C265.403813,92.296875 264.450688,91.734375 263.30225,91.734375 C261.200688,91.734375 259.841313,93.359375 259.841313,95.90625 C259.841313,98.4296875 261.200688,100.0625 263.271,100.0625 C264.411625,100.0625 265.372563,99.484375 265.872563,98.6015625 L265.903813,98.6015625 L265.903813,99.8828125 C265.903813,101.09375 265.05225,101.90625 263.646,101.90625 C262.630375,101.90625 261.825688,101.414062 261.560063,100.671875 L260.161625,100.671875 C260.388188,102.054688 261.80225,103.0625 263.591313,103.0625 Z M263.544438,98.8671875 C262.146,98.8671875 261.231938,97.7265625 261.231938,95.90625 C261.231938,94.0859375 262.146,92.9296875 263.544438,92.9296875 C264.9585,92.9296875 265.903813,94.1171875 265.903813,95.90625 C265.903813,97.6953125 264.9585,98.8671875 263.544438,98.8671875 Z M272.196563,100.140625 C273.97,100.140625 275.345,99.09375 275.579375,97.671875 L274.243438,97.671875 C274.016875,98.4375 273.259063,98.9609375 272.227813,98.9609375 C270.766875,98.9609375 269.852813,97.9375 269.852813,96.3828125 L269.852813,96.3046875 L275.680938,96.3046875 L275.680938,95.7890625 C275.680938,93.328125 274.329375,91.734375 272.134063,91.734375 C269.891875,91.734375 268.454375,93.4453125 268.454375,95.96875 C268.454375,98.5234375 269.868438,100.140625 272.196563,100.140625 Z M274.274688,95.2421875 L269.860625,95.2421875 C269.946563,93.890625 270.837188,92.9140625 272.110625,92.9140625 C273.391875,92.9140625 274.243438,93.8828125 274.274688,95.2421875 Z M282.485188,100.0625 C282.8055,100.0625 283.1805,100.039062 283.344563,100 L283.344563,98.859375 C283.250813,98.875 282.938313,98.8984375 282.782063,98.8984375 C282.08675,98.8984375 281.77425,98.5625 281.77425,97.8203125 L281.77425,92.9921875 L283.352375,92.9921875 L283.352375,91.875 L281.77425,91.875 L281.77425,89.9140625 L280.414875,89.9140625 L280.414875,91.875 L279.203938,91.875 L279.203938,92.9921875 L280.414875,92.9921875 L280.414875,97.890625 C280.414875,99.453125 280.993,100.0625 282.485188,100.0625 Z M287.7545,100.140625 C289.996688,100.140625 291.512313,98.5234375 291.512313,95.9375 C291.512313,93.34375 289.996688,91.734375 287.7545,91.734375 C285.5045,91.734375 283.988875,93.34375 283.988875,95.9375 C283.988875,98.5234375 285.5045,100.140625 287.7545,100.140625 Z M287.7545,98.9453125 C286.317,98.9453125 285.371688,97.8515625 285.371688,95.9375 C285.371688,94.0234375 286.317,92.9296875 287.7545,92.9296875 C289.192,92.9296875 290.1295,94.0234375 290.1295,95.9375 C290.1295,97.8515625 289.192,98.9453125 287.7545,98.9453125 Z M296.488438,103.039062 C297.957188,103.039062 298.629063,102.46875 299.324375,100.570312 L302.519688,91.875 L301.09,91.875 L298.84,98.640625 L298.816563,98.640625 L296.566563,91.875 L295.113438,91.875 L298.113438,100.007812 L297.925938,100.578125 C297.613438,101.523438 297.191563,101.890625 296.43375,101.890625 C296.261875,101.890625 296.050938,101.882812 295.9025,101.851562 L295.9025,102.992188 C296.050938,103.023438 296.324375,103.039062 296.488438,103.039062 Z M306.546813,100.140625 C308.789,100.140625 310.304625,98.5234375 310.304625,95.9375 C310.304625,93.34375 308.789,91.734375 306.546813,91.734375 C304.296813,91.734375 302.781188,93.34375 302.781188,95.9375 C302.781188,98.5234375 304.296813,100.140625 306.546813,100.140625 Z M306.546813,98.9453125 C305.109313,98.9453125 304.164,97.8515625 304.164,95.9375 C304.164,94.0234375 305.109313,92.9296875 306.546813,92.9296875 C307.984313,92.9296875 308.921813,94.0234375 308.921813,95.9375 C308.921813,97.8515625 307.984313,98.9453125 306.546813,98.9453125 Z M314.26925,100.140625 C315.51925,100.140625 316.363,99.6171875 316.847375,98.6796875 L316.878625,98.6796875 L316.878625,100 L318.167688,100 L318.167688,91.875 L316.808313,91.875 L316.808313,96.6484375 C316.808313,98.03125 316.011438,98.9375 314.691125,98.9375 C313.433313,98.9375 312.816125,98.2265625 312.816125,96.90625 L312.816125,91.875 L311.45675,91.875 L311.45675,97.1484375 C311.45675,98.9921875 312.495813,100.140625 314.26925,100.140625 Z M321.108875,100 L321.108875,94.9375 C321.108875,93.7890625 321.796375,93.03125 322.851063,93.03125 C323.179188,93.03125 323.46825,93.0703125 323.577625,93.109375 L323.577625,91.7890625 C323.46825,91.7734375 323.265125,91.734375 323.03075,91.734375 C322.077625,91.734375 321.327625,92.3046875 321.062,93.203125 L321.03075,93.203125 L321.03075,91.875 L319.7495,91.875 L319.7495,100 L321.108875,100 Z M62.2421875,124 L62.2421875,118.9375 C62.2421875,117.789062 62.9296875,117.03125 63.984375,117.03125 C64.3125,117.03125 64.6015625,117.070312 64.7109375,117.109375 L64.7109375,115.789062 C64.6015625,115.773438 64.3984375,115.734375 64.1640625,115.734375 C63.2109375,115.734375 62.4609375,116.304688 62.1953125,117.203125 L62.1640625,117.203125 L62.1640625,115.875 L60.8828125,115.875 L60.8828125,124 L62.2421875,124 Z M68.589625,124.140625 C70.3630625,124.140625 71.7380625,123.09375 71.9724375,121.671875 L70.6365,121.671875 C70.4099375,122.4375 69.652125,122.960938 68.620875,122.960938 C67.1599375,122.960938 66.245875,121.9375 66.245875,120.382812 L66.245875,120.304688 L72.074,120.304688 L72.074,119.789062 C72.074,117.328125 70.7224375,115.734375 68.527125,115.734375 C66.2849375,115.734375 64.8474375,117.445312 64.8474375,119.96875 C64.8474375,122.523438 66.2615,124.140625 68.589625,124.140625 Z M70.66775,119.242188 L66.2536875,119.242188 C66.339625,117.890625 67.23025,116.914062 68.5036875,116.914062 C69.7849375,116.914062 70.6365,117.882812 70.66775,119.242188 Z M76.61675,127.0625 C78.8589375,127.0625 80.288625,125.773438 80.288625,123.835938 L80.288625,115.875 L78.99175,115.875 L78.99175,117.242188 L78.9683125,117.242188 C78.42925,116.296875 77.476125,115.734375 76.3276875,115.734375 C74.226125,115.734375 72.86675,117.359375 72.86675,119.90625 C72.86675,122.429688 74.226125,124.0625 76.2964375,124.0625 C77.4370625,124.0625 78.398,123.484375 78.898,122.601562 L78.92925,122.601562 L78.92925,123.882812 C78.92925,125.09375 78.0776875,125.90625 76.6714375,125.90625 C75.6558125,125.90625 74.851125,125.414062 74.5855,124.671875 L73.1870625,124.671875 C73.413625,126.054688 74.8276875,127.0625 76.61675,127.0625 Z M76.569875,122.867188 C75.1714375,122.867188 74.257375,121.726562 74.257375,119.90625 C74.257375,118.085938 75.1714375,116.929688 76.569875,116.929688 C77.9839375,116.929688 78.92925,118.117188 78.92925,119.90625 C78.92925,121.695312 77.9839375,122.867188 76.569875,122.867188 Z M82.62825,114.429688 C83.1048125,114.429688 83.4798125,114.046875 83.4798125,113.578125 C83.4798125,113.101562 83.1048125,112.726562 82.62825,112.726562 C82.1595,112.726562 81.7766875,113.101562 81.7766875,113.578125 C81.7766875,114.046875 82.1595,114.429688 82.62825,114.429688 Z M83.3079375,124 L83.3079375,115.875 L81.9485625,115.875 L81.9485625,124 L83.3079375,124 Z M87.8585,124.140625 C89.671,124.140625 91.0069375,123.140625 91.0069375,121.726562 C91.0069375,120.5625 90.4131875,119.921875 88.7725625,119.523438 L87.4835,119.210938 C86.57725,118.992188 86.1631875,118.609375 86.1631875,118.046875 C86.1631875,117.335938 86.8194375,116.84375 87.811625,116.84375 C88.811625,116.84375 89.436625,117.367188 89.5381875,118.21875 L90.8350625,118.21875 C90.780375,116.78125 89.592875,115.734375 87.811625,115.734375 C86.0538125,115.734375 84.82725,116.726562 84.82725,118.117188 C84.82725,119.289062 85.5694375,120 87.1006875,120.367188 L88.38975,120.679688 C89.3194375,120.90625 89.63975,121.242188 89.63975,121.828125 C89.63975,122.5625 88.9600625,123.03125 87.8585,123.03125 C86.7569375,123.03125 86.1319375,122.585938 85.967875,121.65625 L84.6085,121.65625 C84.76475,123.179688 85.95225,124.140625 87.8585,124.140625 Z M94.745,124.0625 C95.0653125,124.0625 95.4403125,124.039062 95.604375,124 L95.604375,122.859375 C95.510625,122.875 95.198125,122.898438 95.041875,122.898438 C94.3465625,122.898438 94.0340625,122.5625 94.0340625,121.820312 L94.0340625,116.992188 L95.6121875,116.992188 L95.6121875,115.875 L94.0340625,115.875 L94.0340625,113.914062 L92.6746875,113.914062 L92.6746875,115.875 L91.46375,115.875 L91.46375,116.992188 L92.6746875,116.992188 L92.6746875,121.890625 C92.6746875,123.453125 93.2528125,124.0625 94.745,124.0625 Z M99.990875,124.140625 C101.764312,124.140625 103.139312,123.09375 103.373687,121.671875 L102.03775,121.671875 C101.811187,122.4375 101.053375,122.960938 100.022125,122.960938 C98.5611875,122.960938 97.647125,121.9375 97.647125,120.382812 L97.647125,120.304688 L103.47525,120.304688 L103.47525,119.789062 C103.47525,117.328125 102.123687,115.734375 99.928375,115.734375 C97.6861875,115.734375 96.2486875,117.445312 96.2486875,119.96875 C96.2486875,122.523438 97.66275,124.140625 99.990875,124.140625 Z M102.069,119.242188 L97.6549375,119.242188 C97.740875,117.890625 98.6315,116.914062 99.9049375,116.914062 C101.186187,116.914062 102.03775,117.882812 102.069,119.242188 Z M106.025813,124 L106.025813,118.9375 C106.025813,117.789062 106.713313,117.03125 107.768,117.03125 C108.096125,117.03125 108.385188,117.070312 108.494563,117.109375 L108.494563,115.789062 C108.385188,115.773438 108.182063,115.734375 107.947688,115.734375 C106.994563,115.734375 106.244563,116.304688 105.978938,117.203125 L105.947688,117.203125 L105.947688,115.875 L104.666438,115.875 L104.666438,124 L106.025813,124 Z M112.37325,124.140625 C114.146687,124.140625 115.521687,123.09375 115.756062,121.671875 L114.420125,121.671875 C114.193562,122.4375 113.43575,122.960938 112.4045,122.960938 C110.943562,122.960938 110.0295,121.9375 110.0295,120.382812 L110.0295,120.304688 L115.857625,120.304688 L115.857625,119.789062 C115.857625,117.328125 114.506062,115.734375 112.31075,115.734375 C110.068562,115.734375 108.631062,117.445312 108.631062,119.96875 C108.631062,122.523438 110.045125,124.140625 112.37325,124.140625 Z M114.451375,119.242188 L110.037312,119.242188 C110.12325,117.890625 111.013875,116.914062 112.287312,116.914062 C113.568562,116.914062 114.420125,117.882812 114.451375,119.242188 Z M120.126937,124.140625 C121.298812,124.140625 122.2285,123.5625 122.751937,122.625 L122.775375,122.625 L122.775375,124 L124.07225,124 L124.07225,112.726562 L122.712875,112.726562 L122.712875,117.195312 L122.681625,117.195312 C122.19725,116.304688 121.25975,115.734375 120.095687,115.734375 C118.048812,115.734375 116.650375,117.390625 116.650375,119.9375 C116.650375,122.484375 118.056625,124.140625 120.126937,124.140625 Z M120.38475,122.945312 C118.94725,122.945312 118.041,121.78125 118.041,119.9375 C118.041,118.101562 118.94725,116.929688 120.38475,116.929688 C121.783187,116.929688 122.720687,118.125 122.720687,119.9375 C122.720687,121.757812 121.783187,122.945312 120.38475,122.945312 Z M130.196812,124 L130.196812,119.21875 C130.196812,117.84375 131.03275,116.9375 132.314,116.9375 C133.564,116.9375 134.181187,117.65625 134.181187,118.96875 L134.181187,124 L135.540562,124 L135.540562,118.726562 C135.540562,116.882812 134.509312,115.734375 132.728062,115.734375 C131.47025,115.734375 130.603062,116.296875 130.149937,117.171875 L130.118687,117.171875 L130.118687,115.875 L128.837437,115.875 L128.837437,124 L130.196812,124 Z M139.864562,124.140625 C141.114562,124.140625 141.958312,123.617188 142.442687,122.679688 L142.473937,122.679688 L142.473937,124 L143.763,124 L143.763,115.875 L142.403625,115.875 L142.403625,120.648438 C142.403625,122.03125 141.60675,122.9375 140.286437,122.9375 C139.028625,122.9375 138.411437,122.226562 138.411437,120.90625 L138.411437,115.875 L137.052062,115.875 L137.052062,121.148438 C137.052062,122.992188 138.091125,124.140625 139.864562,124.140625 Z M146.704187,124 L146.704187,118.90625 C146.704187,117.78125 147.485437,116.9375 148.563562,116.9375 C149.571375,116.9375 150.227625,117.578125 150.227625,118.554688 L150.227625,124 L151.587,124 L151.587,118.835938 C151.587,117.734375 152.344812,116.9375 153.422937,116.9375 C154.49325,116.9375 155.110437,117.59375 155.110437,118.703125 L155.110437,124 L156.469812,124 L156.469812,118.390625 C156.469812,116.78125 155.43075,115.734375 153.821375,115.734375 C152.68075,115.734375 151.727625,116.3125 151.2745,117.28125 L151.24325,117.28125 C150.891687,116.296875 150.071375,115.734375 148.962,115.734375 C147.86825,115.734375 147.040125,116.3125 146.657312,117.171875 L146.626062,117.171875 L146.626062,115.875 L145.344812,115.875 L145.344812,124 L146.704187,124 Z M162.059438,124.140625 C164.137563,124.140625 165.512563,122.492188 165.512563,119.9375 C165.512563,117.390625 164.12975,115.734375 162.082875,115.734375 C160.934438,115.734375 159.989125,116.304688 159.481313,117.234375 L159.450063,117.234375 L159.450063,112.726562 L158.090688,112.726562 L158.090688,124 L159.387563,124 L159.387563,122.625 L159.418813,122.625 C159.94225,123.5625 160.871938,124.140625 162.059438,124.140625 Z M161.793813,122.945312 C160.418813,122.945312 159.44225,121.75 159.44225,119.9375 C159.44225,118.132812 160.418813,116.929688 161.793813,116.929688 C163.231313,116.929688 164.121938,118.09375 164.121938,119.9375 C164.121938,121.796875 163.231313,122.945312 161.793813,122.945312 Z M170.055312,124.140625 C171.82875,124.140625 173.20375,123.09375 173.438125,121.671875 L172.102187,121.671875 C171.875625,122.4375 171.117812,122.960938 170.086562,122.960938 C168.625625,122.960938 167.711562,121.9375 167.711562,120.382812 L167.711562,120.304688 L173.539687,120.304688 L173.539687,119.789062 C173.539687,117.328125 172.188125,115.734375 169.992812,115.734375 C167.750625,115.734375 166.313125,117.445312 166.313125,119.96875 C166.313125,122.523438 167.727187,124.140625 170.055312,124.140625 Z M172.133437,119.242188 L167.719375,119.242188 C167.805312,117.890625 168.695937,116.914062 169.969375,116.914062 C171.250625,116.914062 172.102187,117.882812 172.133437,119.242188 Z M176.09025,124 L176.09025,118.9375 C176.09025,117.789062 176.77775,117.03125 177.832437,117.03125 C178.160562,117.03125 178.449625,117.070312 178.559,117.109375 L178.559,115.789062 C178.449625,115.773438 178.2465,115.734375 178.012125,115.734375 C177.059,115.734375 176.309,116.304688 176.043375,117.203125 L176.012125,117.203125 L176.012125,115.875 L174.730875,115.875 L174.730875,124 L176.09025,124 Z M185.933562,124.140625 C187.707,124.140625 189.082,123.09375 189.316375,121.671875 L187.980437,121.671875 C187.753875,122.4375 186.996062,122.960938 185.964812,122.960938 C184.503875,122.960938 183.589812,121.9375 183.589812,120.382812 L183.589812,120.304688 L189.417937,120.304688 L189.417937,119.789062 C189.417937,117.328125 188.066375,115.734375 185.871062,115.734375 C183.628875,115.734375 182.191375,117.445312 182.191375,119.96875 C182.191375,122.523438 183.605437,124.140625 185.933562,124.140625 Z M188.011687,119.242188 L183.597625,119.242188 C183.683562,117.890625 184.574187,116.914062 185.847625,116.914062 C187.128875,116.914062 187.980437,117.882812 188.011687,119.242188 Z M191.9685,124 L191.9685,119.21875 C191.9685,117.84375 192.804437,116.9375 194.085687,116.9375 C195.335687,116.9375 195.952875,117.65625 195.952875,118.96875 L195.952875,124 L197.31225,124 L197.31225,118.726562 C197.31225,116.882812 196.281,115.734375 194.49975,115.734375 C193.241937,115.734375 192.37475,116.296875 191.921625,117.171875 L191.890375,117.171875 L191.890375,115.875 L190.609125,115.875 L190.609125,124 L191.9685,124 Z M201.940937,124.140625 C203.112812,124.140625 204.0425,123.5625 204.565937,122.625 L204.589375,122.625 L204.589375,124 L205.88625,124 L205.88625,112.726562 L204.526875,112.726562 L204.526875,117.195312 L204.495625,117.195312 C204.01125,116.304688 203.07375,115.734375 201.909687,115.734375 C199.862812,115.734375 198.464375,117.390625 198.464375,119.9375 C198.464375,122.484375 199.870625,124.140625 201.940937,124.140625 Z M202.19875,122.945312 C200.76125,122.945312 199.855,121.78125 199.855,119.9375 C199.855,118.101562 200.76125,116.929688 202.19875,116.929688 C203.597187,116.929688 204.534687,118.125 204.534687,119.9375 C204.534687,121.757812 203.597187,122.945312 202.19875,122.945312 Z M208.296188,114.429688 C208.77275,114.429688 209.14775,114.046875 209.14775,113.578125 C209.14775,113.101562 208.77275,112.726562 208.296188,112.726562 C207.827438,112.726562 207.444625,113.101562 207.444625,113.578125 C207.444625,114.046875 207.827438,114.429688 208.296188,114.429688 Z M208.975875,124 L208.975875,115.875 L207.6165,115.875 L207.6165,124 L208.975875,124 Z M211.995188,124 L211.995188,119.21875 C211.995188,117.84375 212.831125,116.9375 214.112375,116.9375 C215.362375,116.9375 215.979563,117.65625 215.979563,118.96875 L215.979563,124 L217.338938,124 L217.338938,118.726562 C217.338938,116.882812 216.307688,115.734375 214.526438,115.734375 C213.268625,115.734375 212.401438,116.296875 211.948313,117.171875 L211.917063,117.171875 L211.917063,115.875 L210.635813,115.875 L210.635813,124 L211.995188,124 Z M222.241063,127.0625 C224.48325,127.0625 225.912938,125.773438 225.912938,123.835938 L225.912938,115.875 L224.616063,115.875 L224.616063,117.242188 L224.592625,117.242188 C224.053563,116.296875 223.100438,115.734375 221.952,115.734375 C219.850438,115.734375 218.491063,117.359375 218.491063,119.90625 C218.491063,122.429688 219.850438,124.0625 221.92075,124.0625 C223.061375,124.0625 224.022313,123.484375 224.522313,122.601562 L224.553563,122.601562 L224.553563,123.882812 C224.553563,125.09375 223.702,125.90625 222.29575,125.90625 C221.280125,125.90625 220.475438,125.414062 220.209813,124.671875 L218.811375,124.671875 C219.037938,126.054688 220.452,127.0625 222.241063,127.0625 Z M222.194188,122.867188 C220.79575,122.867188 219.881688,121.726562 219.881688,119.90625 C219.881688,118.085938 220.79575,116.929688 222.194188,116.929688 C223.60825,116.929688 224.553563,118.117188 224.553563,119.90625 C224.553563,121.695312 223.60825,122.867188 222.194188,122.867188 Z M231.357813,114.429688 C231.834375,114.429688 232.209375,114.046875 232.209375,113.578125 C232.209375,113.101562 231.834375,112.726562 231.357813,112.726562 C230.889063,112.726562 230.50625,113.101562 230.50625,113.578125 C230.50625,114.046875 230.889063,114.429688 231.357813,114.429688 Z M232.0375,124 L232.0375,115.875 L230.678125,115.875 L230.678125,124 L232.0375,124 Z M235.056813,124 L235.056813,119.21875 C235.056813,117.84375 235.89275,116.9375 237.174,116.9375 C238.424,116.9375 239.041188,117.65625 239.041188,118.96875 L239.041188,124 L240.400563,124 L240.400563,118.726562 C240.400563,116.882812 239.369313,115.734375 237.588063,115.734375 C236.33025,115.734375 235.463063,116.296875 235.009938,117.171875 L234.978688,117.171875 L234.978688,115.875 L233.697438,115.875 L233.697438,124 L235.056813,124 Z M250.974125,118.039062 L250.935063,116.148438 L252.599125,117.1875 L253.067875,116.382812 L251.356938,115.382812 L253.067875,114.367188 L252.606938,113.578125 L250.935063,114.609375 L250.974125,112.726562 L249.98975,112.726562 L250.028813,114.601562 L248.349125,113.578125 L247.903813,114.367188 L249.591313,115.375 L247.896,116.375 L248.341313,117.1875 L250.028813,116.148438 L249.981938,118.039062 L250.974125,118.039062 Z M257.204375,118.039062 L257.165313,116.148438 L258.829375,117.1875 L259.298125,116.382812 L257.587188,115.382812 L259.298125,114.367188 L258.837188,113.578125 L257.165313,114.609375 L257.204375,112.726562 L256.22,112.726562 L256.259063,114.601562 L254.579375,113.578125 L254.134063,114.367188 L255.821563,115.375 L254.12625,116.375 L254.571563,117.1875 L256.259063,116.148438 L256.212188,118.039062 L257.204375,118.039062 Z M263.434625,118.039062 L263.395563,116.148438 L265.059625,117.1875 L265.528375,116.382812 L263.817438,115.382812 L265.528375,114.367188 L265.067438,113.578125 L263.395563,114.609375 L263.434625,112.726562 L262.45025,112.726562 L262.489313,114.601562 L260.809625,113.578125 L260.364313,114.367188 L262.051813,115.375 L260.3565,116.375 L260.801813,117.1875 L262.489313,116.148438 L262.442438,118.039062 L263.434625,118.039062 Z M270.6805,124.1875 C272.891438,124.1875 274.594563,122.835938 274.594563,120.898438 C274.594563,119.296875 273.477375,118.273438 271.83675,118.132812 L271.83675,118.101562 C273.250813,117.804688 274.227375,116.84375 274.227375,115.445312 C274.227375,113.835938 272.922688,112.539062 270.664875,112.539062 C268.5555,112.539062 267.071125,113.765625 266.914875,115.679688 L268.266438,115.679688 C268.352375,114.460938 269.33675,113.757812 270.664875,113.757812 C272.110188,113.757812 272.813313,114.515625 272.813313,115.632812 C272.813313,116.757812 271.875813,117.585938 270.532063,117.585938 L269.1805,117.585938 L269.1805,118.773438 L270.594563,118.773438 C272.1805,118.773438 273.172688,119.554688 273.164875,120.945312 C273.157063,122.125 272.164875,122.96875 270.6805,122.96875 C269.1805,122.96875 268.125813,122.210938 268.039875,121.015625 L266.688313,121.015625 C266.789875,122.882812 268.344563,124.1875 270.6805,124.1875 Z M280.121688,124.1875 C282.746688,124.1875 284.262313,121.914062 284.262313,118.351562 C284.262313,114.8125 282.738875,112.539062 280.121688,112.539062 C277.5045,112.539062 275.965438,114.828125 275.965438,118.359375 C275.965438,121.921875 277.488875,124.1875 280.121688,124.1875 Z M280.121688,122.960938 C278.356063,122.960938 277.3795,121.164062 277.3795,118.351562 C277.3795,115.601562 278.3795,113.773438 280.121688,113.773438 C281.863875,113.773438 282.84825,115.585938 282.84825,118.359375 C282.84825,121.171875 281.8795,122.960938 280.121688,122.960938 Z M289.500375,124.1875 C291.711313,124.1875 293.414438,122.835938 293.414438,120.898438 C293.414438,119.296875 292.29725,118.273438 290.656625,118.132812 L290.656625,118.101562 C292.070688,117.804688 293.04725,116.84375 293.04725,115.445312 C293.04725,113.835938 291.742563,112.539062 289.48475,112.539062 C287.375375,112.539062 285.891,113.765625 285.73475,115.679688 L287.086313,115.679688 C287.17225,114.460938 288.156625,113.757812 289.48475,113.757812 C290.930063,113.757812 291.633188,114.515625 291.633188,115.632812 C291.633188,116.757812 290.695688,117.585938 289.351938,117.585938 L288.000375,117.585938 L288.000375,118.773438 L289.414438,118.773438 C291.000375,118.773438 291.992563,119.554688 291.98475,120.945312 C291.976938,122.125 290.98475,122.96875 289.500375,122.96875 C288.000375,122.96875 286.945688,122.210938 286.85975,121.015625 L285.508188,121.015625 C285.60975,122.882812 287.164438,124.1875 289.500375,124.1875 Z M298.582188,124.1875 C301.34,124.1875 302.949375,121.96875 302.949375,118.171875 C302.949375,113.898438 300.68375,112.53125 298.668125,112.53125 C296.355625,112.53125 294.675938,114.15625 294.675938,116.382812 C294.675938,118.523438 296.269688,120.109375 298.418125,120.109375 C299.855625,120.109375 301.09,119.382812 301.566563,118.265625 L301.59,118.265625 C301.550938,121.257812 300.511875,122.960938 298.597813,122.960938 C297.425938,122.960938 296.543125,122.421875 296.230625,121.382812 L294.800938,121.382812 C295.129063,123.078125 296.636875,124.1875 298.582188,124.1875 Z M298.660313,118.875 C297.18375,118.875 296.097813,117.804688 296.097813,116.335938 C296.097813,114.921875 297.238438,113.796875 298.68375,113.796875 C300.136875,113.796875 301.261875,114.929688 301.261875,116.375 C301.261875,117.8125 300.1525,118.875 298.660313,118.875 Z" id="Wehavesentyouatextmessagetoyourregisterednumberendingin***3039" fill="#4E566D" fill-rule="nonzero"></path>
                <path d="M62.1499023,61 L63.2456055,57.7626953 L67.8110352,57.7626953 L68.9067383,61 L70.8740234,61 L66.5493164,49.0219727 L64.5405273,49.0219727 L60.2158203,61 L62.1499023,61 Z M67.3378906,56.2685547 L63.71875,56.2685547 L65.503418,51.0141602 L65.5532227,51.0141602 L67.3378906,56.2685547 Z M74.9995117,61.1577148 C76.3359375,61.1577148 77.2241211,60.5683594 77.7055664,59.5224609 L77.7470703,59.5224609 L77.7470703,61 L79.465332,61 L79.465332,52.2675781 L77.6723633,52.2675781 L77.6723633,57.355957 C77.6723633,58.7172852 76.8920898,59.6137695 75.597168,59.6137695 C74.3603516,59.6137695 73.7294922,58.8999023 73.7294922,57.5717773 L73.7294922,52.2675781 L71.9365234,52.2675781 L71.9365234,57.9204102 C71.9365234,59.9208984 73.0986328,61.1577148 74.9995117,61.1577148 Z M84.2133789,61.0581055 C84.6118164,61.0581055 85.0102539,61.0249023 85.2094727,60.9750977 L85.2094727,59.5556641 C85.0932617,59.5805664 84.8027344,59.597168 84.6201172,59.597168 C83.8896484,59.597168 83.5576172,59.2568359 83.5576172,58.5014648 L83.5576172,53.6870117 L85.2177734,53.6870117 L85.2177734,52.2675781 L83.5576172,52.2675781 L83.5576172,50.2006836 L81.7563477,50.2006836 L81.7563477,52.2675781 L80.4863281,52.2675781 L80.4863281,53.6870117 L81.7563477,53.6870117 L81.7563477,58.7006836 C81.7563477,60.3857422 82.4453125,61.0581055 84.2133789,61.0581055 Z M88.5463867,61 L88.5463867,55.953125 C88.5463867,54.5751953 89.3598633,53.6621094 90.6879883,53.6621094 C91.949707,53.6621094 92.597168,54.434082 92.597168,55.7207031 L92.597168,61 L94.3984375,61 L94.3984375,55.3720703 C94.3984375,53.3964844 93.2529297,52.1181641 91.3354492,52.1181641 C90.0073242,52.1181641 89.0527344,52.7075195 88.5712891,53.7285156 L88.5297852,53.7285156 L88.5297852,49.0219727 L86.753418,49.0219727 L86.753418,61 L88.5463867,61 Z M99.8520508,61.1660156 C101.852539,61.1660156 103.363281,60.0288086 103.612305,58.4350586 L101.910645,58.4350586 C101.669922,59.1987305 100.914551,59.7133789 99.8935547,59.7133789 C98.4575195,59.7133789 97.5444336,58.7089844 97.5444336,57.1899414 L97.5444336,57.0820312 L103.711914,57.0820312 L103.711914,56.4677734 C103.711914,53.8198242 102.201172,52.1098633 99.7773438,52.1098633 C97.3120117,52.1098633 95.7348633,53.9360352 95.7348633,56.675293 C95.7348633,59.4311523 97.2871094,61.1660156 99.8520508,61.1660156 Z M101.918945,55.8286133 L97.5527344,55.8286133 C97.644043,54.5087891 98.5239258,53.5541992 99.7773438,53.5541992 C101.030762,53.5541992 101.877441,54.4921875 101.918945,55.8286133 Z M106.891113,61 L106.891113,55.9116211 C106.891113,54.5585938 107.70459,53.6621094 108.966309,53.6621094 C110.211426,53.6621094 110.825684,54.3842773 110.825684,55.6958008 L110.825684,61 L112.626953,61 L112.626953,55.347168 C112.626953,53.3466797 111.522949,52.1181641 109.597168,52.1181641 C108.252441,52.1181641 107.322754,52.7324219 106.849609,53.7285156 L106.808105,53.7285156 L106.808105,52.2675781 L105.098145,52.2675781 L105.098145,61 L106.891113,61 Z M117.333496,61.0581055 C117.731934,61.0581055 118.130371,61.0249023 118.32959,60.9750977 L118.32959,59.5556641 C118.213379,59.5805664 117.922852,59.597168 117.740234,59.597168 C117.009766,59.597168 116.677734,59.2568359 116.677734,58.5014648 L116.677734,53.6870117 L118.337891,53.6870117 L118.337891,52.2675781 L116.677734,52.2675781 L116.677734,50.2006836 L114.876465,50.2006836 L114.876465,52.2675781 L113.606445,52.2675781 L113.606445,53.6870117 L114.876465,53.6870117 L114.876465,58.7006836 C114.876465,60.3857422 115.56543,61.0581055 117.333496,61.0581055 Z M120.761719,50.8564453 C121.334473,50.8564453 121.791016,50.3916016 121.791016,49.8271484 C121.791016,49.2543945 121.334473,48.7978516 120.761719,48.7978516 C120.188965,48.7978516 119.724121,49.2543945 119.724121,49.8271484 C119.724121,50.3916016 120.188965,50.8564453 120.761719,50.8564453 Z M121.658203,61 L121.658203,52.2675781 L119.865234,52.2675781 L119.865234,61 L121.658203,61 Z M127.228027,61.1660156 C129.328125,61.1660156 130.813965,59.9042969 131.004883,58.0449219 L129.27832,58.0449219 C129.070801,59.0576172 128.348633,59.6635742 127.244629,59.6635742 C125.850098,59.6635742 124.928711,58.5512695 124.928711,56.6337891 C124.928711,54.7578125 125.841797,53.6040039 127.228027,53.6040039 C128.398438,53.6040039 129.095703,54.3427734 129.27832,55.2724609 L130.988281,55.2724609 C130.830566,53.5541992 129.460938,52.1098633 127.211426,52.1098633 C124.729492,52.1098633 123.102539,53.8613281 123.102539,56.6337891 C123.102539,59.4560547 124.729492,61.1660156 127.228027,61.1660156 Z M134.831543,61.1494141 C135.977051,61.1494141 137.081055,60.5351562 137.587402,59.5639648 L137.628906,59.5639648 L137.628906,61 L139.347168,61 L139.347168,54.9819336 C139.347168,53.2304688 137.994141,52.1098633 135.877441,52.1098633 C133.719238,52.1098633 132.374512,53.2719727 132.274902,54.8491211 L133.968262,54.8491211 C134.125977,54.0688477 134.773438,53.5708008 135.811035,53.5708008 C136.906738,53.5708008 137.5625,54.1518555 137.5625,55.1230469 L137.5625,55.7954102 L135.171875,55.9365234 C133.09668,56.0527344 131.92627,56.9907227 131.92627,58.5180664 C131.92627,60.0869141 133.121582,61.1494141 134.831543,61.1494141 Z M135.32959,59.7299805 C134.366699,59.7299805 133.73584,59.2319336 133.73584,58.4682617 C133.73584,57.7211914 134.341797,57.2480469 135.412598,57.1733398 L137.5625,57.0405273 L137.5625,57.7294922 C137.5625,58.8666992 136.583008,59.7299805 135.32959,59.7299805 Z M144.062012,61.0581055 C144.460449,61.0581055 144.858887,61.0249023 145.058105,60.9750977 L145.058105,59.5556641 C144.941895,59.5805664 144.651367,59.597168 144.46875,59.597168 C143.738281,59.597168 143.40625,59.2568359 143.40625,58.5014648 L143.40625,53.6870117 L145.066406,53.6870117 L145.066406,52.2675781 L143.40625,52.2675781 L143.40625,50.2006836 L141.60498,50.2006836 L141.60498,52.2675781 L140.334961,52.2675781 L140.334961,53.6870117 L141.60498,53.6870117 L141.60498,58.7006836 C141.60498,60.3857422 142.293945,61.0581055 144.062012,61.0581055 Z M150.262695,61.1660156 C152.263184,61.1660156 153.773926,60.0288086 154.022949,58.4350586 L152.321289,58.4350586 C152.080566,59.1987305 151.325195,59.7133789 150.304199,59.7133789 C148.868164,59.7133789 147.955078,58.7089844 147.955078,57.1899414 L147.955078,57.0820312 L154.122559,57.0820312 L154.122559,56.4677734 C154.122559,53.8198242 152.611816,52.1098633 150.187988,52.1098633 C147.722656,52.1098633 146.145508,53.9360352 146.145508,56.675293 C146.145508,59.4311523 147.697754,61.1660156 150.262695,61.1660156 Z M152.32959,55.8286133 L147.963379,55.8286133 C148.054688,54.5087891 148.93457,53.5541992 150.187988,53.5541992 C151.441406,53.5541992 152.288086,54.4921875 152.32959,55.8286133 Z M159.825195,64.2539062 C161.634766,64.2539062 162.498047,63.5732422 163.245117,61.456543 L166.515625,52.2675781 L164.623047,52.2675781 L162.415039,59.3730469 L162.381836,59.3730469 L160.173828,52.2675781 L158.231445,52.2675781 L161.385742,61.0083008 C161.385742,61.0166016 161.228027,61.53125 161.228027,61.5478516 C160.954102,62.4443359 160.505859,62.7929688 159.675781,62.7929688 C159.526367,62.7929688 159.227539,62.7929688 159.094727,62.7597656 L159.094727,64.2124023 C159.227539,64.2373047 159.675781,64.2539062 159.825195,64.2539062 Z M171.321777,61.1660156 C173.820312,61.1660156 175.463867,59.4477539 175.463867,56.6337891 C175.463867,53.828125 173.812012,52.1098633 171.321777,52.1098633 C168.831543,52.1098633 167.179688,53.828125 167.179688,56.6337891 C167.179688,59.4477539 168.823242,61.1660156 171.321777,61.1660156 Z M171.321777,59.6884766 C169.918945,59.6884766 169.005859,58.5761719 169.005859,56.6337891 C169.005859,54.699707 169.918945,53.5874023 171.321777,53.5874023 C172.724609,53.5874023 173.637695,54.699707 173.637695,56.6337891 C173.637695,58.5761719 172.73291,59.6884766 171.321777,59.6884766 Z M179.871582,61.1577148 C181.208008,61.1577148 182.096191,60.5683594 182.577637,59.5224609 L182.619141,59.5224609 L182.619141,61 L184.337402,61 L184.337402,52.2675781 L182.544434,52.2675781 L182.544434,57.355957 C182.544434,58.7172852 181.76416,59.6137695 180.469238,59.6137695 C179.232422,59.6137695 178.601562,58.8999023 178.601562,57.5717773 L178.601562,52.2675781 L176.808594,52.2675781 L176.808594,57.9204102 C176.808594,59.9208984 177.970703,61.1577148 179.871582,61.1577148 Z M187.898438,61 L187.898438,55.7705078 C187.898438,54.5336914 188.612305,53.7617188 189.766113,53.7617188 C190.114746,53.7617188 190.430176,53.8032227 190.571289,53.8613281 L190.571289,52.1928711 C190.438477,52.1679688 190.214355,52.1264648 189.957031,52.1264648 C188.927734,52.1264648 188.147461,52.7324219 187.856934,53.753418 L187.81543,53.753418 L187.81543,52.2675781 L186.105469,52.2675781 L186.105469,61 L187.898438,61 Z M196.921387,63.8886719 L196.921387,59.5639648 L196.962891,59.5639648 C197.460938,60.5351562 198.457031,61.1494141 199.710449,61.1494141 C201.901855,61.1494141 203.354492,59.3979492 203.354492,56.6337891 C203.354492,53.8696289 201.893555,52.1264648 199.677246,52.1264648 C198.415527,52.1264648 197.411133,52.765625 196.896484,53.7700195 L196.863281,53.7700195 L196.863281,52.2675781 L195.128418,52.2675781 L195.128418,63.8886719 L196.921387,63.8886719 Z M199.204102,59.6303711 C197.826172,59.6303711 196.913086,58.4516602 196.913086,56.6337891 C196.913086,54.8325195 197.834473,53.637207 199.204102,53.637207 C200.623535,53.637207 201.511719,54.8076172 201.511719,56.6337891 C201.511719,58.4682617 200.623535,59.6303711 199.204102,59.6303711 Z M207.753906,61.1577148 C209.090332,61.1577148 209.978516,60.5683594 210.459961,59.5224609 L210.501465,59.5224609 L210.501465,61 L212.219727,61 L212.219727,52.2675781 L210.426758,52.2675781 L210.426758,57.355957 C210.426758,58.7172852 209.646484,59.6137695 208.351562,59.6137695 C207.114746,59.6137695 206.483887,58.8999023 206.483887,57.5717773 L206.483887,52.2675781 L204.690918,52.2675781 L204.690918,57.9204102 C204.690918,59.9208984 205.853027,61.1577148 207.753906,61.1577148 Z M215.780762,61 L215.780762,55.7705078 C215.780762,54.5336914 216.494629,53.7617188 217.648438,53.7617188 C217.99707,53.7617188 218.3125,53.8032227 218.453613,53.8613281 L218.453613,52.1928711 C218.320801,52.1679688 218.09668,52.1264648 217.839355,52.1264648 C216.810059,52.1264648 216.029785,52.7324219 215.739258,53.753418 L215.697754,53.753418 L215.697754,52.2675781 L213.987793,52.2675781 L213.987793,61 L215.780762,61 Z M223.30127,61.1660156 C225.401367,61.1660156 226.887207,59.9042969 227.078125,58.0449219 L225.351562,58.0449219 C225.144043,59.0576172 224.421875,59.6635742 223.317871,59.6635742 C221.92334,59.6635742 221.001953,58.5512695 221.001953,56.6337891 C221.001953,54.7578125 221.915039,53.6040039 223.30127,53.6040039 C224.47168,53.6040039 225.168945,54.3427734 225.351562,55.2724609 L227.061523,55.2724609 C226.903809,53.5541992 225.53418,52.1098633 223.284668,52.1098633 C220.802734,52.1098633 219.175781,53.8613281 219.175781,56.6337891 C219.175781,59.4560547 220.802734,61.1660156 223.30127,61.1660156 Z M230.20752,61 L230.20752,55.953125 C230.20752,54.5751953 231.020996,53.6621094 232.349121,53.6621094 C233.61084,53.6621094 234.258301,54.434082 234.258301,55.7207031 L234.258301,61 L236.05957,61 L236.05957,55.3720703 C236.05957,53.3964844 234.914062,52.1181641 232.996582,52.1181641 C231.668457,52.1181641 230.713867,52.7075195 230.232422,53.7285156 L230.190918,53.7285156 L230.190918,49.0219727 L228.414551,49.0219727 L228.414551,61 L230.20752,61 Z M240.342773,61.1494141 C241.488281,61.1494141 242.592285,60.5351562 243.098633,59.5639648 L243.140137,59.5639648 L243.140137,61 L244.858398,61 L244.858398,54.9819336 C244.858398,53.2304688 243.505371,52.1098633 241.388672,52.1098633 C239.230469,52.1098633 237.885742,53.2719727 237.786133,54.8491211 L239.479492,54.8491211 C239.637207,54.0688477 240.284668,53.5708008 241.322266,53.5708008 C242.417969,53.5708008 243.07373,54.1518555 243.07373,55.1230469 L243.07373,55.7954102 L240.683105,55.9365234 C238.60791,56.0527344 237.4375,56.9907227 237.4375,58.5180664 C237.4375,60.0869141 238.632812,61.1494141 240.342773,61.1494141 Z M240.84082,59.7299805 C239.87793,59.7299805 239.24707,59.2319336 239.24707,58.4682617 C239.24707,57.7211914 239.853027,57.2480469 240.923828,57.1733398 L243.07373,57.0405273 L243.07373,57.7294922 C243.07373,58.8666992 242.094238,59.7299805 240.84082,59.7299805 Z M249.87207,61.1660156 C251.930664,61.1660156 253.416504,60.0703125 253.416504,58.4765625 C253.416504,57.2148438 252.73584,56.5175781 250.951172,56.1025391 L249.531738,55.7788086 C248.585449,55.5629883 248.187012,55.1894531 248.187012,54.6416016 C248.187012,53.9443359 248.834473,53.4711914 249.805664,53.4711914 C250.810059,53.4711914 251.432617,54.0024414 251.532227,54.8491211 L253.217285,54.8491211 C253.15918,53.2387695 251.839355,52.1098633 249.805664,52.1098633 C247.796875,52.1098633 246.435547,53.1806641 246.435547,54.7412109 C246.435547,56.0112305 247.257324,56.8081055 248.91748,57.1899414 L250.336914,57.5219727 C251.291504,57.737793 251.615234,58.0698242 251.615234,58.6342773 C251.615234,59.3481445 250.951172,59.7963867 249.87207,59.7963867 C248.776367,59.7963867 248.153809,59.3481445 247.987793,58.4350586 L246.211426,58.4350586 C246.377441,60.0952148 247.688965,61.1660156 249.87207,61.1660156 Z M258.529785,61.1660156 C260.530273,61.1660156 262.041016,60.0288086 262.290039,58.4350586 L260.588379,58.4350586 C260.347656,59.1987305 259.592285,59.7133789 258.571289,59.7133789 C257.135254,59.7133789 256.222168,58.7089844 256.222168,57.1899414 L256.222168,57.0820312 L262.389648,57.0820312 L262.389648,56.4677734 C262.389648,53.8198242 260.878906,52.1098633 258.455078,52.1098633 C255.989746,52.1098633 254.412598,53.9360352 254.412598,56.675293 C254.412598,59.4311523 255.964844,61.1660156 258.529785,61.1660156 Z M260.59668,55.8286133 L256.230469,55.8286133 C256.321777,54.5087891 257.20166,53.5541992 258.455078,53.5541992 C259.708496,53.5541992 260.555176,54.4921875 260.59668,55.8286133 Z" id="Authenticateyourpurchase" fill="#1F1A47" fill-rule="nonzero"></path>
            </g>
        </g>
    </g>
</svg>