<?xml version="1.0" encoding="UTF-8"?>
<svg width="443px" height="282px" viewBox="0 0 443 282" version="1.1" xmlns="http://www.w3.org/2000/svg" xmlns:xlink="http://www.w3.org/1999/xlink">
    <!-- Generator: Sketch 62 (91390) - https://sketch.com -->
    <title>authorized-card</title>
    <desc>Created with Sketch.</desc>
    <g id="Page-1" stroke="none" stroke-width="1" fill="none" fill-rule="evenodd">
        <g id="authorized-card">
            <rect id="Rectangle" fill="#F7FAFC" fill-rule="nonzero" x="0" y="0" width="443" height="282" rx="8"></rect>
            <path d="M66.1591797,62.1992188 C68.9150391,62.1992188 70.7910156,60.746582 71.2475586,58.2729492 L69.3964844,58.2729492 C69.0229492,59.7172852 67.8359375,60.5722656 66.1674805,60.5722656 C63.9677734,60.5722656 62.5732422,58.8041992 62.5732422,56.0068359 C62.5732422,53.234375 63.984375,51.449707 66.1591797,51.449707 C67.7861328,51.449707 69.0644531,52.4541016 69.3964844,53.9897461 L71.2392578,53.9897461 C70.9238281,51.4912109 68.8735352,49.8227539 66.1591797,49.8227539 C62.8139648,49.8227539 60.6723633,52.2133789 60.6723633,56.0068359 C60.6723633,59.8251953 62.7973633,62.1992188 66.1591797,62.1992188 Z M74.5014648,62 L74.5014648,56.7705078 C74.5014648,55.5336914 75.215332,54.7617188 76.3691406,54.7617188 C76.7177734,54.7617188 77.0332031,54.8032227 77.1743164,54.8613281 L77.1743164,53.1928711 C77.0415039,53.1679688 76.8173828,53.1264648 76.5600586,53.1264648 C75.5307617,53.1264648 74.7504883,53.7324219 74.4599609,54.753418 L74.418457,54.753418 L74.418457,53.2675781 L72.7084961,53.2675781 L72.7084961,62 L74.5014648,62 Z M82.0136719,62.1660156 C84.0141602,62.1660156 85.5249023,61.0288086 85.7739258,59.4350586 L84.0722656,59.4350586 C83.831543,60.1987305 83.0761719,60.7133789 82.0551758,60.7133789 C80.6191406,60.7133789 79.7060547,59.7089844 79.7060547,58.1899414 L79.7060547,58.0820312 L85.8735352,58.0820312 L85.8735352,57.4677734 C85.8735352,54.8198242 84.362793,53.1098633 81.9389648,53.1098633 C79.4736328,53.1098633 77.8964844,54.9360352 77.8964844,57.675293 C77.8964844,60.4311523 79.4487305,62.1660156 82.0136719,62.1660156 Z M84.0805664,56.8286133 L79.7143555,56.8286133 C79.8056641,55.5087891 80.6855469,54.5541992 81.9389648,54.5541992 C83.1923828,54.5541992 84.0390625,55.4921875 84.0805664,56.8286133 Z M90.5385742,62.1494141 C91.8085938,62.1494141 92.8046875,61.5102539 93.3193359,60.5141602 L93.3525391,60.5141602 L93.3525391,62 L95.0957031,62 L95.0957031,50.0219727 L93.2944336,50.0219727 L93.2944336,54.7202148 L93.2612305,54.7202148 C92.7714844,53.7573242 91.7753906,53.1264648 90.5219727,53.1264648 C88.3305664,53.1264648 86.8696289,54.8779297 86.8696289,57.6337891 C86.8696289,60.3896484 88.3305664,62.1494141 90.5385742,62.1494141 Z M91.0117188,60.6303711 C89.5922852,60.6303711 88.7041016,59.4765625 88.7041016,57.6337891 C88.7041016,55.7993164 89.5922852,54.637207 91.0117188,54.637207 C92.3896484,54.637207 93.3110352,55.8242188 93.3110352,57.6337891 C93.3110352,59.4599609 92.3896484,60.6303711 91.0117188,60.6303711 Z M97.8847656,51.8564453 C98.4575195,51.8564453 98.9140625,51.3916016 98.9140625,50.8271484 C98.9140625,50.2543945 98.4575195,49.7978516 97.8847656,49.7978516 C97.3120117,49.7978516 96.847168,50.2543945 96.847168,50.8271484 C96.847168,51.3916016 97.3120117,51.8564453 97.8847656,51.8564453 Z M98.78125,62 L98.78125,53.2675781 L96.9882812,53.2675781 L96.9882812,62 L98.78125,62 Z M103.595703,62.0581055 C103.994141,62.0581055 104.392578,62.0249023 104.591797,61.9750977 L104.591797,60.5556641 C104.475586,60.5805664 104.185059,60.597168 104.002441,60.597168 C103.271973,60.597168 102.939941,60.2568359 102.939941,59.5014648 L102.939941,54.6870117 L104.600098,54.6870117 L104.600098,53.2675781 L102.939941,53.2675781 L102.939941,51.2006836 L101.138672,51.2006836 L101.138672,53.2675781 L99.8686523,53.2675781 L99.8686523,54.6870117 L101.138672,54.6870117 L101.138672,59.7006836 C101.138672,61.3857422 101.827637,62.0581055 103.595703,62.0581055 Z M113.249512,62.1660156 C115.349609,62.1660156 116.835449,60.9042969 117.026367,59.0449219 L115.299805,59.0449219 C115.092285,60.0576172 114.370117,60.6635742 113.266113,60.6635742 C111.871582,60.6635742 110.950195,59.5512695 110.950195,57.6337891 C110.950195,55.7578125 111.863281,54.6040039 113.249512,54.6040039 C114.419922,54.6040039 115.117188,55.3427734 115.299805,56.2724609 L117.009766,56.2724609 C116.852051,54.5541992 115.482422,53.1098633 113.23291,53.1098633 C110.750977,53.1098633 109.124023,54.8613281 109.124023,57.6337891 C109.124023,60.4560547 110.750977,62.1660156 113.249512,62.1660156 Z M120.853027,62.1494141 C121.998535,62.1494141 123.102539,61.5351562 123.608887,60.5639648 L123.650391,60.5639648 L123.650391,62 L125.368652,62 L125.368652,55.9819336 C125.368652,54.2304688 124.015625,53.1098633 121.898926,53.1098633 C119.740723,53.1098633 118.395996,54.2719727 118.296387,55.8491211 L119.989746,55.8491211 C120.147461,55.0688477 120.794922,54.5708008 121.83252,54.5708008 C122.928223,54.5708008 123.583984,55.1518555 123.583984,56.1230469 L123.583984,56.7954102 L121.193359,56.9365234 C119.118164,57.0527344 117.947754,57.9907227 117.947754,59.5180664 C117.947754,61.0869141 119.143066,62.1494141 120.853027,62.1494141 Z M121.351074,60.7299805 C120.388184,60.7299805 119.757324,60.2319336 119.757324,59.4682617 C119.757324,58.7211914 120.363281,58.2480469 121.434082,58.1733398 L123.583984,58.0405273 L123.583984,58.7294922 C123.583984,59.8666992 122.604492,60.7299805 121.351074,60.7299805 Z M128.896484,62 L128.896484,56.7705078 C128.896484,55.5336914 129.610352,54.7617188 130.76416,54.7617188 C131.112793,54.7617188 131.428223,54.8032227 131.569336,54.8613281 L131.569336,53.1928711 C131.436523,53.1679688 131.212402,53.1264648 130.955078,53.1264648 C129.925781,53.1264648 129.145508,53.7324219 128.85498,54.753418 L128.813477,54.753418 L128.813477,53.2675781 L127.103516,53.2675781 L127.103516,62 L128.896484,62 Z M135.960449,62.1494141 C137.230469,62.1494141 138.226562,61.5102539 138.741211,60.5141602 L138.774414,60.5141602 L138.774414,62 L140.517578,62 L140.517578,50.0219727 L138.716309,50.0219727 L138.716309,54.7202148 L138.683105,54.7202148 C138.193359,53.7573242 137.197266,53.1264648 135.943848,53.1264648 C133.752441,53.1264648 132.291504,54.8779297 132.291504,57.6337891 C132.291504,60.3896484 133.752441,62.1494141 135.960449,62.1494141 Z M136.433594,60.6303711 C135.01416,60.6303711 134.125977,59.4765625 134.125977,57.6337891 C134.125977,55.7993164 135.01416,54.637207 136.433594,54.637207 C137.811523,54.637207 138.73291,55.8242188 138.73291,57.6337891 C138.73291,59.4599609 137.811523,60.6303711 136.433594,60.6303711 Z M149.075684,62.1660156 C151.134277,62.1660156 152.620117,61.0703125 152.620117,59.4765625 C152.620117,58.2148438 151.939453,57.5175781 150.154785,57.1025391 L148.735352,56.7788086 C147.789062,56.5629883 147.390625,56.1894531 147.390625,55.6416016 C147.390625,54.9443359 148.038086,54.4711914 149.009277,54.4711914 C150.013672,54.4711914 150.63623,55.0024414 150.73584,55.8491211 L152.420898,55.8491211 C152.362793,54.2387695 151.042969,53.1098633 149.009277,53.1098633 C147.000488,53.1098633 145.63916,54.1806641 145.63916,55.7412109 C145.63916,57.0112305 146.460938,57.8081055 148.121094,58.1899414 L149.540527,58.5219727 C150.495117,58.737793 150.818848,59.0698242 150.818848,59.6342773 C150.818848,60.3481445 150.154785,60.7963867 149.075684,60.7963867 C147.97998,60.7963867 147.357422,60.3481445 147.191406,59.4350586 L145.415039,59.4350586 C145.581055,61.0952148 146.892578,62.1660156 149.075684,62.1660156 Z M156.986328,62.0581055 C157.384766,62.0581055 157.783203,62.0249023 157.982422,61.9750977 L157.982422,60.5556641 C157.866211,60.5805664 157.575684,60.597168 157.393066,60.597168 C156.662598,60.597168 156.330566,60.2568359 156.330566,59.5014648 L156.330566,54.6870117 L157.990723,54.6870117 L157.990723,53.2675781 L156.330566,53.2675781 L156.330566,51.2006836 L154.529297,51.2006836 L154.529297,53.2675781 L153.259277,53.2675781 L153.259277,54.6870117 L154.529297,54.6870117 L154.529297,59.7006836 C154.529297,61.3857422 155.218262,62.0581055 156.986328,62.0581055 Z M162.016602,62.1494141 C163.162109,62.1494141 164.266113,61.5351562 164.772461,60.5639648 L164.813965,60.5639648 L164.813965,62 L166.532227,62 L166.532227,55.9819336 C166.532227,54.2304688 165.179199,53.1098633 163.0625,53.1098633 C160.904297,53.1098633 159.55957,54.2719727 159.459961,55.8491211 L161.15332,55.8491211 C161.311035,55.0688477 161.958496,54.5708008 162.996094,54.5708008 C164.091797,54.5708008 164.747559,55.1518555 164.747559,56.1230469 L164.747559,56.7954102 L162.356934,56.9365234 C160.281738,57.0527344 159.111328,57.9907227 159.111328,59.5180664 C159.111328,61.0869141 160.306641,62.1494141 162.016602,62.1494141 Z M162.514648,60.7299805 C161.551758,60.7299805 160.920898,60.2319336 160.920898,59.4682617 C160.920898,58.7211914 161.526855,58.2480469 162.597656,58.1733398 L164.747559,58.0405273 L164.747559,58.7294922 C164.747559,59.8666992 163.768066,60.7299805 162.514648,60.7299805 Z M171.24707,62.0581055 C171.645508,62.0581055 172.043945,62.0249023 172.243164,61.9750977 L172.243164,60.5556641 C172.126953,60.5805664 171.836426,60.597168 171.653809,60.597168 C170.92334,60.597168 170.591309,60.2568359 170.591309,59.5014648 L170.591309,54.6870117 L172.251465,54.6870117 L172.251465,53.2675781 L170.591309,53.2675781 L170.591309,51.2006836 L168.790039,51.2006836 L168.790039,53.2675781 L167.52002,53.2675781 L167.52002,54.6870117 L168.790039,54.6870117 L168.790039,59.7006836 C168.790039,61.3857422 169.479004,62.0581055 171.24707,62.0581055 Z M177.447754,62.1660156 C179.448242,62.1660156 180.958984,61.0288086 181.208008,59.4350586 L179.506348,59.4350586 C179.265625,60.1987305 178.510254,60.7133789 177.489258,60.7133789 C176.053223,60.7133789 175.140137,59.7089844 175.140137,58.1899414 L175.140137,58.0820312 L181.307617,58.0820312 L181.307617,57.4677734 C181.307617,54.8198242 179.796875,53.1098633 177.373047,53.1098633 C174.907715,53.1098633 173.330566,54.9360352 173.330566,57.675293 C173.330566,60.4311523 174.882812,62.1660156 177.447754,62.1660156 Z M179.514648,56.8286133 L175.148438,56.8286133 C175.239746,55.5087891 176.119629,54.5541992 177.373047,54.5541992 C178.626465,54.5541992 179.473145,55.4921875 179.514648,56.8286133 Z M184.486816,62 L184.486816,56.6044922 C184.486816,55.4838867 185.242188,54.6538086 186.304688,54.6538086 C187.317383,54.6538086 187.956543,55.2929688 187.956543,56.2973633 L187.956543,62 L189.716309,62 L189.716309,56.5463867 C189.716309,55.4423828 190.455078,54.6538086 191.517578,54.6538086 C192.580078,54.6538086 193.186035,55.3012695 193.186035,56.4301758 L193.186035,62 L194.987305,62 L194.987305,55.9985352 C194.987305,54.2636719 193.858398,53.1181641 192.131836,53.1181641 C190.886719,53.1181641 189.857422,53.765625 189.40918,54.828125 L189.367676,54.828125 C189.019043,53.7407227 188.13916,53.1181641 186.927246,53.1181641 C185.748535,53.1181641 184.835449,53.765625 184.445312,54.7368164 L184.403809,54.7368164 L184.403809,53.2675781 L182.693848,53.2675781 L182.693848,62 L184.486816,62 Z M200.440918,62.1660156 C202.441406,62.1660156 203.952148,61.0288086 204.201172,59.4350586 L202.499512,59.4350586 C202.258789,60.1987305 201.503418,60.7133789 200.482422,60.7133789 C199.046387,60.7133789 198.133301,59.7089844 198.133301,58.1899414 L198.133301,58.0820312 L204.300781,58.0820312 L204.300781,57.4677734 C204.300781,54.8198242 202.790039,53.1098633 200.366211,53.1098633 C197.900879,53.1098633 196.32373,54.9360352 196.32373,57.675293 C196.32373,60.4311523 197.875977,62.1660156 200.440918,62.1660156 Z M202.507812,56.8286133 L198.141602,56.8286133 C198.23291,55.5087891 199.112793,54.5541992 200.366211,54.5541992 C201.619629,54.5541992 202.466309,55.4921875 202.507812,56.8286133 Z M207.47998,62 L207.47998,56.9116211 C207.47998,55.5585938 208.293457,54.6621094 209.555176,54.6621094 C210.800293,54.6621094 211.414551,55.3842773 211.414551,56.6958008 L211.414551,62 L213.21582,62 L213.21582,56.347168 C213.21582,54.3466797 212.111816,53.1181641 210.186035,53.1181641 C208.841309,53.1181641 207.911621,53.7324219 207.438477,54.7285156 L207.396973,54.7285156 L207.396973,53.2675781 L205.687012,53.2675781 L205.687012,62 L207.47998,62 Z M217.922363,62.0581055 C218.320801,62.0581055 218.719238,62.0249023 218.918457,61.9750977 L218.918457,60.5556641 C218.802246,60.5805664 218.511719,60.597168 218.329102,60.597168 C217.598633,60.597168 217.266602,60.2568359 217.266602,59.5014648 L217.266602,54.6870117 L218.926758,54.6870117 L218.926758,53.2675781 L217.266602,53.2675781 L217.266602,51.2006836 L215.465332,51.2006836 L215.465332,53.2675781 L214.195312,53.2675781 L214.195312,54.6870117 L215.465332,54.6870117 L215.465332,59.7006836 C215.465332,61.3857422 216.154297,62.0581055 217.922363,62.0581055 Z" id="Creditcardstatement" fill="#3C415C" fill-rule="nonzero"></path>
            <path d="M198.966309,148 L198.966309,144.44043 L201.412598,144.44043 C203.485352,144.44043 204.950195,143.019531 204.950195,140.954102 C204.950195,138.859375 203.529297,137.431152 201.463867,137.431152 L197.325684,137.431152 L197.325684,148 L198.966309,148 Z M201.031738,142.997559 L198.966309,142.997559 L198.966309,138.881348 L201.031738,138.881348 C202.474609,138.881348 203.272949,139.61377 203.272949,140.954102 C203.272949,142.265137 202.445312,142.997559 201.031738,142.997559 Z M213.768555,148 L213.768555,146.505859 L208.700195,146.505859 L208.700195,143.334473 L213.497559,143.334473 L213.497559,141.913574 L208.700195,141.913574 L208.700195,138.925293 L213.768555,138.925293 L213.768555,137.431152 L207.05957,137.431152 L207.05957,148 L213.768555,148 Z M217.730957,148 L217.730957,140.492676 L217.848145,140.492676 L223.275391,148 L224.754883,148 L224.754883,137.431152 L223.158203,137.431152 L223.158203,144.938477 L223.041016,144.938477 L217.61377,137.431152 L216.134277,137.431152 L216.134277,148 L217.730957,148 Z M231.222168,148 C234.371582,148 236.195312,146.059082 236.195312,142.682617 C236.195312,139.357422 234.356934,137.431152 231.222168,137.431152 L227.40625,137.431152 L227.40625,148 L231.222168,148 Z M231.039062,146.505859 L229.046875,146.505859 L229.046875,138.925293 L231.039062,138.925293 C233.229004,138.925293 234.525391,140.316895 234.525391,142.70459 C234.525391,145.128906 233.250977,146.505859 231.039062,146.505859 Z M240.055176,148 L240.055176,137.431152 L238.414551,137.431152 L238.414551,148 L240.055176,148 Z M244.295898,148 L244.295898,140.492676 L244.413086,140.492676 L249.840332,148 L251.319824,148 L251.319824,137.431152 L249.723145,137.431152 L249.723145,144.938477 L249.605957,144.938477 L244.178711,137.431152 L242.699219,137.431152 L242.699219,148 L244.295898,148 Z M258.424316,148.256348 C261.192871,148.256348 262.987305,146.520508 262.987305,143.817871 L262.987305,142.499512 L258.651367,142.499512 L258.651367,143.876465 L261.375977,143.876465 L261.375977,144.103516 C261.361328,145.670898 260.174805,146.725586 258.446289,146.725586 C256.461426,146.725586 255.216309,145.1875 255.216309,142.697266 C255.216309,140.250977 256.454102,138.705566 258.409668,138.705566 C259.852539,138.705566 260.855957,139.401367 261.266113,140.675781 L262.914062,140.675781 C262.555176,138.537109 260.812012,137.174805 258.409668,137.174805 C255.450684,137.174805 253.539062,139.342773 253.539062,142.711914 C253.539062,146.125 255.428711,148.256348 258.424316,148.256348 Z" id="PENDING" fill="#FF9220" fill-rule="nonzero"></path>
            <path d="M357.921875,148.296875 C359.21875,148.296875 360.25,147.804688 361.015625,146.820312 C361.65625,146.002604 362.033854,144.989583 362.148438,143.78125 L362.148438,143.78125 L360.875,143.78125 C360.744792,144.536458 360.546875,145.145833 360.28125,145.609375 C359.776042,146.489583 359.041667,146.929688 358.078125,146.929688 C357.03125,146.929688 356.244792,146.513021 355.71875,145.679688 C355.401042,145.179688 355.179688,144.588542 355.054688,143.90625 L355.054688,143.90625 L359.140625,143.90625 L359.46875,142.796875 L354.9375,142.796875 C354.932292,142.671875 354.929688,142.541667 354.929688,142.40625 C354.929688,142.109375 354.9375,141.828125 354.953125,141.5625 L354.953125,141.5625 L359.140625,141.5625 L359.46875,140.453125 L355.109375,140.453125 C355.25,139.760417 355.481771,139.195312 355.804688,138.757812 C356.388021,137.960938 357.15625,137.5625 358.109375,137.5625 C358.885417,137.5625 359.489583,137.778646 359.921875,138.210938 C360.354167,138.643229 360.640625,139.229167 360.78125,139.96875 L360.78125,139.96875 L362.054688,139.96875 C361.981771,138.994792 361.608073,138.125 360.933594,137.359375 C360.259115,136.59375 359.3125,136.210938 358.09375,136.210938 C356.661458,136.210938 355.539062,136.799479 354.726562,137.976562 C354.242188,138.674479 353.911458,139.5 353.734375,140.453125 L353.734375,140.453125 L352.078125,140.453125 L351.75,141.5625 L353.609375,141.5625 C353.598958,141.755208 353.59375,141.947917 353.59375,142.140625 C353.59375,142.364583 353.598958,142.583333 353.609375,142.796875 L353.609375,142.796875 L352.078125,142.796875 L351.75,143.90625 L353.71875,143.90625 C353.921875,145.265625 354.382812,146.325521 355.101562,147.085938 C355.861979,147.893229 356.802083,148.296875 357.921875,148.296875 Z M368.570312,148 L368.570312,136.859375 L367.460938,136.859375 C367.263021,137.723958 366.963542,138.272135 366.5625,138.503906 C366.161458,138.735677 365.453125,138.901042 364.4375,139 L364.4375,139 L364.4375,140.078125 L367.070312,140.078125 L367.070312,148 L368.570312,148 Z M376.125,148.304688 C377.614583,148.304688 378.6875,147.591146 379.34375,146.164062 C379.796875,145.169271 380.023438,143.911458 380.023438,142.390625 C380.023438,140.786458 379.773438,139.523438 379.273438,138.601562 C378.627604,137.408854 377.580729,136.8125 376.132812,136.8125 C374.523438,136.8125 373.411458,137.661458 372.796875,139.359375 C372.46875,140.270833 372.304688,141.361979 372.304688,142.632812 C372.304688,144.273438 372.578125,145.580729 373.125,146.554688 C373.78125,147.721354 374.78125,148.304688 376.125,148.304688 Z M376.117188,147.023438 C375.210938,147.023438 374.570312,146.494792 374.195312,145.4375 C373.950521,144.744792 373.828125,143.828125 373.828125,142.6875 C373.828125,141.171875 374.019531,140.02474 374.402344,139.246094 C374.785156,138.467448 375.390625,138.078125 376.21875,138.078125 C377.119792,138.078125 377.726562,138.488281 378.039062,139.308594 C378.351562,140.128906 378.507812,141.174479 378.507812,142.445312 C378.507812,144.205729 378.291667,145.408854 377.859375,146.054688 C377.427083,146.700521 376.846354,147.023438 376.117188,147.023438 Z" id="€10" fill="#3C415C" fill-rule="nonzero"></path>
            <path d="M65.8515625,107.296875 C67.3984375,107.296875 68.6276042,106.804688 69.5390625,105.820312 C70.2994792,105.002604 70.7473958,103.989583 70.8828125,102.78125 L70.8828125,102.78125 L69.3671875,102.78125 C69.2109375,103.536458 68.9739583,104.145833 68.65625,104.609375 C68.0572917,105.489583 67.1848958,105.929688 66.0390625,105.929688 C64.7942708,105.929688 63.8580729,105.511719 63.2304688,104.675781 C62.6028646,103.839844 62.2890625,102.75 62.2890625,101.40625 C62.2890625,99.765625 62.6367188,98.5481771 63.3320312,97.7539062 C64.0273438,96.9596354 64.9401042,96.5625 66.0703125,96.5625 C66.9973958,96.5625 67.7174479,96.7786458 68.2304688,97.2109375 C68.7434896,97.6432292 69.0859375,98.2291667 69.2578125,98.96875 L69.2578125,98.96875 L70.7734375,98.96875 C70.6848958,97.9947917 70.2395833,97.125 69.4375,96.359375 C68.6354167,95.59375 67.5078125,95.2109375 66.0546875,95.2109375 C64.3515625,95.2109375 63.015625,95.7994792 62.046875,96.9765625 C61.1510417,98.0598958 60.703125,99.4479167 60.703125,101.140625 C60.703125,103.369792 61.2994792,105.018229 62.4921875,106.085938 C63.3984375,106.893229 64.5182292,107.296875 65.8515625,107.296875 Z M73.9921875,107 L73.9921875,102.5625 C73.9921875,101.447917 74.2291667,100.690104 74.703125,100.289062 C75.1770833,99.8880208 75.7057292,99.6875 76.2890625,99.6875 C76.9921875,99.6875 77.4713542,99.9166667 77.7265625,100.375 C77.8828125,100.661458 77.9609375,101.111979 77.9609375,101.726562 L77.9609375,101.726562 L77.9609375,107 L79.40625,107 L79.40625,101.632812 C79.40625,100.809896 79.2890625,100.166667 79.0546875,99.703125 C78.6223958,98.8541667 77.7994792,98.4296875 76.5859375,98.4296875 C75.9088542,98.4296875 75.34375,98.578125 74.890625,98.875 C74.625,99.046875 74.3255208,99.34375 73.9921875,99.765625 L73.9921875,99.765625 L73.9921875,95.484375 L72.5859375,95.484375 L72.5859375,107 L73.9921875,107 Z M83.734375,107.28125 C84.3802083,107.28125 84.9713542,107.143229 85.5078125,106.867188 C86.0442708,106.591146 86.4557292,106.265625 86.7421875,105.890625 C86.7890625,106.223958 86.8697917,106.481771 86.984375,106.664062 C87.203125,107.007812 87.5546875,107.179688 88.0390625,107.179688 C88.2369792,107.179688 88.3932292,107.171875 88.5078125,107.15625 C88.6223958,107.140625 88.7890625,107.101562 89.0078125,107.039062 L89.0078125,107.039062 L89.0078125,106 C88.9192708,106.015625 88.8359375,106.027344 88.7578125,106.035156 C88.6796875,106.042969 88.609375,106.046875 88.546875,106.046875 C88.3541667,106.046875 88.2278646,106.002604 88.1679688,105.914062 C88.1080729,105.825521 88.078125,105.708333 88.078125,105.5625 L88.078125,105.5625 L88.078125,100.742188 C88.078125,99.9505208 87.7734375,99.3671875 87.1640625,98.9921875 C86.5494792,98.6171875 85.75,98.4296875 84.765625,98.4296875 C83.9166667,98.4296875 83.1705729,98.6315104 82.5273438,99.0351562 C81.8841146,99.4388021 81.5494792,100.15625 81.5234375,101.1875 L81.5234375,101.1875 L82.8359375,101.1875 C82.8880208,100.755208 83,100.429688 83.171875,100.210938 C83.4791667,99.8151042 84,99.6171875 84.734375,99.6171875 C85.3697917,99.6171875 85.8580729,99.7252604 86.1992188,99.9414062 C86.5403646,100.157552 86.7109375,100.505208 86.7109375,100.984375 C86.7109375,101.21875 86.6796875,101.398438 86.6171875,101.523438 C86.5078125,101.752604 86.2916667,101.888021 85.96875,101.929688 L85.96875,101.929688 L83.7265625,102.210938 C82.9401042,102.309896 82.3046875,102.572917 81.8203125,103 C81.3359375,103.427083 81.09375,104.028646 81.09375,104.804688 C81.09375,105.513021 81.3398438,106.102865 81.8320312,106.574219 C82.3242188,107.045573 82.9583333,107.28125 83.734375,107.28125 Z M84.0625,106.085938 C83.65625,106.085938 83.3046875,105.96875 83.0078125,105.734375 C82.7109375,105.5 82.5625,105.179688 82.5625,104.773438 C82.5625,104.236979 82.7786458,103.846354 83.2109375,103.601562 C83.4661458,103.455729 83.8489583,103.348958 84.359375,103.28125 L84.359375,103.28125 L85.2109375,103.171875 C85.4713542,103.140625 85.7369792,103.088542 86.0078125,103.015625 C86.2786458,102.942708 86.5,102.851562 86.671875,102.742188 L86.671875,102.742188 L86.671875,103.875 C86.671875,104.739583 86.28125,105.361979 85.5,105.742188 C85.0364583,105.971354 84.5572917,106.085938 84.0625,106.085938 Z M91.828125,107 L91.828125,102.1875 C91.828125,101.59375 92.0182292,101.06901 92.3984375,100.613281 C92.7786458,100.157552 93.3229167,99.9296875 94.03125,99.9296875 C94.1145833,99.9296875 94.1914062,99.9322917 94.2617188,99.9375 C94.3320312,99.9427083 94.4088542,99.953125 94.4921875,99.96875 L94.4921875,99.96875 L94.4921875,98.484375 C94.3411458,98.46875 94.234375,98.4583333 94.171875,98.453125 L94.1154514,98.4487847 C94.0818866,98.4464699 94.0564236,98.4453125 94.0390625,98.4453125 C93.4817708,98.4453125 92.9895833,98.6471354 92.5625,99.0507812 C92.1354167,99.4544271 91.8671875,99.796875 91.7578125,100.078125 L91.7578125,100.078125 L91.7578125,98.6328125 L90.421875,98.6328125 L90.421875,107 L91.828125,107 Z M98.71875,110.539062 C100.338542,110.539062 101.440104,109.971354 102.023438,108.835938 C102.335938,108.221354 102.492188,107.382812 102.492188,106.320312 L102.492188,106.320312 L102.492188,98.7109375 L101.195312,98.7109375 L101.195312,99.765625 C100.919271,99.4166667 100.648438,99.1510417 100.382812,98.96875 C99.8932292,98.6458333 99.3203125,98.484375 98.6640625,98.484375 C97.6953125,98.484375 96.8684896,98.8776042 96.1835938,99.6640625 C95.4986979,100.450521 95.15625,101.544271 95.15625,102.945312 C95.15625,104.429688 95.4960938,105.49349 96.1757812,106.136719 C96.8554688,106.779948 97.6484375,107.101562 98.5546875,107.101562 C99.2057292,107.101562 99.7291667,106.997396 100.125,106.789062 C100.520833,106.580729 100.859375,106.263021 101.140625,105.835938 C101.15625,106.986979 101.065104,107.786458 100.867188,108.234375 C100.533854,108.994792 99.828125,109.375 98.75,109.375 C98.0677083,109.375 97.5677083,109.21875 97.25,108.90625 C97.046875,108.703125 96.9114583,108.414062 96.84375,108.039062 L96.84375,108.039062 L95.4140625,108.039062 C95.4869792,108.898438 95.8307292,109.529948 96.4453125,109.933594 C97.0598958,110.33724 97.8177083,110.539062 98.71875,110.539062 Z M98.71875,105.953125 C98.0729167,105.953125 97.5585938,105.707031 97.1757812,105.214844 C96.7929688,104.722656 96.6015625,104.005208 96.6015625,103.0625 C96.6015625,102.260417 96.6979167,101.611979 96.890625,101.117188 C97.2552083,100.190104 97.9322917,99.7265625 98.921875,99.7265625 C99.5833333,99.7265625 100.127604,99.9765625 100.554688,100.476562 C100.981771,100.976562 101.195312,101.744792 101.195312,102.78125 C101.195312,103.46875 101.080729,104.070312 100.851562,104.585938 C100.440104,105.497396 99.7291667,105.953125 98.71875,105.953125 Z M107.875,107.296875 C108.302083,107.296875 108.684896,107.255208 109.023438,107.171875 C109.653646,107.026042 110.182292,106.744792 110.609375,106.328125 C110.864583,106.088542 111.095052,105.779948 111.300781,105.402344 C111.50651,105.02474 111.627604,104.682292 111.664062,104.375 L111.664062,104.375 L110.28125,104.375 C110.177083,104.744792 110,105.070312 109.75,105.351562 C109.3125,105.835938 108.726562,106.078125 107.992188,106.078125 C107.205729,106.078125 106.625,105.821615 106.25,105.308594 C105.875,104.795573 105.674479,104.114583 105.648438,103.265625 L105.648438,103.265625 L111.78125,103.265625 C111.78125,102.421875 111.739583,101.807292 111.65625,101.421875 C111.5625,100.859375 111.375,100.367188 111.09375,99.9453125 C110.802083,99.5026042 110.377604,99.1419271 109.820312,98.8632812 C109.263021,98.5846354 108.6875,98.4453125 108.09375,98.4453125 C106.916667,98.4453125 105.963542,98.8645833 105.234375,99.703125 C104.505208,100.541667 104.140625,101.632812 104.140625,102.976562 C104.140625,104.341146 104.502604,105.402344 105.226562,106.160156 C105.950521,106.917969 106.833333,107.296875 107.875,107.296875 Z M110.335938,102.148438 L105.6875,102.148438 C105.713542,101.429688 105.945312,100.83724 106.382812,100.371094 C106.820312,99.9049479 107.361979,99.671875 108.007812,99.671875 C108.908854,99.671875 109.552083,100.010417 109.9375,100.6875 C110.145833,101.052083 110.278646,101.539062 110.335938,102.148438 L110.335938,102.148438 Z" id="Charge" fill="#3C415C" fill-rule="nonzero"></path>
            <path d="M327.828125,107 L329.070312,103.5625 L333.609375,103.5625 L334.773438,107 L336.476562,107 L332.3125,95.5234375 L330.554688,95.5234375 L326.234375,107 L327.828125,107 Z M333.109375,102.296875 L329.515625,102.296875 L331.367188,97.2265625 L333.109375,102.296875 Z M339.109375,107 L339.109375,102.5625 C339.109375,101.484375 339.326823,100.739583 339.761719,100.328125 C340.196615,99.9166667 340.679688,99.7109375 341.210938,99.7109375 C341.794271,99.7109375 342.192708,99.90625 342.40625,100.296875 C342.541667,100.557292 342.609375,100.971354 342.609375,101.539062 L342.609375,101.539062 L342.609375,107 L344.039062,107 L344.039062,102.132812 C344.039062,101.268229 344.238281,100.651042 344.636719,100.28125 C345.035156,99.9114583 345.510417,99.7265625 346.0625,99.7265625 C346.463542,99.7265625 346.803385,99.8307292 347.082031,100.039062 C347.360677,100.247396 347.5,100.630208 347.5,101.1875 L347.5,101.1875 L347.5,107 L348.960938,107 L348.960938,101.429688 C348.960938,100.690104 348.851562,100.101562 348.632812,99.6640625 C348.226562,98.8515625 347.460938,98.4453125 346.335938,98.4453125 C345.809896,98.4453125 345.335938,98.5533854 344.914062,98.7695312 C344.492188,98.9856771 344.125,99.3177083 343.8125,99.765625 C343.625,99.4010417 343.416667,99.125 343.1875,98.9375 C342.78125,98.609375 342.244792,98.4453125 341.578125,98.4453125 C340.989583,98.4453125 340.463542,98.6041667 340,98.921875 C339.729167,99.109375 339.427083,99.4088542 339.09375,99.8203125 L339.09375,99.8203125 L339.09375,98.6328125 L337.703125,98.6328125 L337.703125,107 L339.109375,107 Z M354.21875,107.304688 C355.598958,107.304688 356.617188,106.864583 357.273438,105.984375 C357.929688,105.104167 358.257812,103.989583 358.257812,102.640625 C358.257812,101.244792 357.885417,100.1875 357.140625,99.46875 C356.395833,98.75 355.484375,98.390625 354.40625,98.390625 C353.203125,98.390625 352.244792,98.8072917 351.53125,99.640625 C350.817708,100.473958 350.460938,101.59375 350.460938,103 C350.460938,104.3125 350.799479,105.358073 351.476562,106.136719 C352.153646,106.915365 353.067708,107.304688 354.21875,107.304688 Z M354.351562,106.09375 C353.502604,106.09375 352.882812,105.796875 352.492188,105.203125 C352.101562,104.609375 351.90625,103.867188 351.90625,102.976562 C351.90625,102.049479 352.101562,101.257812 352.492188,100.601562 C352.882812,99.9453125 353.507812,99.6171875 354.367188,99.6171875 C355.335938,99.6171875 356.018229,100.002604 356.414062,100.773438 C356.664062,101.263021 356.789062,101.898438 356.789062,102.679688 C356.789062,103.544271 356.615885,104.329427 356.269531,105.035156 C355.923177,105.740885 355.283854,106.09375 354.351562,106.09375 Z M362.6875,107.226562 C363.453125,107.226562 364.104167,107.007812 364.640625,106.570312 C364.911458,106.351562 365.138021,106.083333 365.320312,105.765625 L365.320312,105.765625 L365.304688,107 L366.632812,107 L366.632812,98.6328125 L365.226562,98.6328125 L365.226562,102.742188 C365.226562,103.559896 365.130208,104.203125 364.9375,104.671875 C364.583333,105.546875 363.916667,105.984375 362.9375,105.984375 C362.255208,105.984375 361.789062,105.734375 361.539062,105.234375 C361.403646,104.963542 361.335938,104.614583 361.335938,104.1875 L361.335938,104.1875 L361.335938,98.6328125 L359.898438,98.6328125 L359.898438,104.320312 C359.898438,105.033854 360.015625,105.604167 360.25,106.03125 C360.682292,106.828125 361.494792,107.226562 362.6875,107.226562 Z M370.234375,107 L370.234375,102.617188 C370.234375,102.070312 370.269531,101.64974 370.339844,101.355469 C370.410156,101.061198 370.5625,100.776042 370.796875,100.5 C371.088542,100.15625 371.427083,99.9270833 371.8125,99.8125 C372.026042,99.7447917 372.299479,99.7109375 372.632812,99.7109375 C373.289062,99.7109375 373.742188,99.9713542 373.992188,100.492188 C374.143229,100.804688 374.21875,101.216146 374.21875,101.726562 L374.21875,101.726562 L374.21875,107 L375.648438,107 L375.648438,101.632812 C375.648438,100.789062 375.533854,100.140625 375.304688,99.6875 C374.888021,98.859375 374.085938,98.4453125 372.898438,98.4453125 C372.356771,98.4453125 371.864583,98.5520833 371.421875,98.765625 C370.979167,98.9791667 370.559896,99.3307292 370.164062,99.8203125 L370.164062,99.8203125 L370.164062,98.6328125 L368.828125,98.6328125 L368.828125,107 L370.234375,107 Z M379.695312,107.132812 C379.898438,107.132812 380.08724,107.122396 380.261719,107.101562 C380.436198,107.080729 380.604167,107.046875 380.765625,107 L380.765625,107 L380.765625,105.890625 C380.661458,105.901042 380.570312,105.907552 380.492188,105.910156 C380.414062,105.91276 380.341146,105.914062 380.273438,105.914062 C380.018229,105.914062 379.835938,105.885417 379.726562,105.828125 C379.528646,105.729167 379.429688,105.533854 379.429688,105.242188 L379.429688,105.242188 L379.429688,99.78125 L380.765625,99.78125 L380.765625,98.6328125 L379.429688,98.6328125 L379.429688,96.296875 L378.007812,96.296875 L378.007812,98.6328125 L376.875,98.6328125 L376.875,99.78125 L378.007812,99.78125 L378.007812,105.320312 C378.007812,105.856771 378.125,106.292969 378.359375,106.628906 C378.59375,106.964844 379.039062,107.132812 379.695312,107.132812 Z" id="Amount" fill="#3C415C" fill-rule="nonzero"></path>
            <path d="M201.3125,107.335938 C202.536458,107.335938 203.610677,107.0625 204.535156,106.515625 C205.459635,105.96875 205.921875,105.059896 205.921875,103.789062 C205.921875,102.768229 205.557292,101.989583 204.828125,101.453125 C204.40625,101.145833 203.807292,100.903646 203.03125,100.726562 L203.03125,100.726562 L201.421875,100.359375 C200.338542,100.109375 199.643229,99.9010417 199.335938,99.734375 C198.867188,99.4739583 198.632812,99.0625 198.632812,98.5 C198.632812,97.9895833 198.833333,97.5416667 199.234375,97.15625 C199.635417,96.7708333 200.294271,96.578125 201.210938,96.578125 C202.346354,96.578125 203.151042,96.8776042 203.625,97.4765625 C203.880208,97.8046875 204.046875,98.2760417 204.125,98.890625 L204.125,98.890625 L205.585938,98.890625 C205.585938,97.6145833 205.165365,96.6861979 204.324219,96.1054688 C203.483073,95.5247396 202.460938,95.234375 201.257812,95.234375 C199.950521,95.234375 198.940104,95.5651042 198.226562,96.2265625 C197.513021,96.8880208 197.15625,97.734375 197.15625,98.765625 C197.15625,99.71875 197.520833,100.434896 198.25,100.914062 C198.671875,101.190104 199.390625,101.442708 200.40625,101.671875 L200.40625,101.671875 L201.960938,102.023438 C202.804688,102.216146 203.424479,102.442708 203.820312,102.703125 C204.210938,102.96875 204.40625,103.414062 204.40625,104.039062 C204.40625,104.872396 203.942708,105.450521 203.015625,105.773438 C202.536458,105.940104 202.005208,106.023438 201.421875,106.023438 C200.119792,106.023438 199.210938,105.643229 198.695312,104.882812 C198.424479,104.476562 198.270833,103.947917 198.234375,103.296875 L198.234375,103.296875 L196.773438,103.296875 C196.757812,104.536458 197.153646,105.518229 197.960938,106.242188 C198.768229,106.971354 199.885417,107.335938 201.3125,107.335938 Z M209.671875,107.132812 C209.875,107.132812 210.063802,107.122396 210.238281,107.101562 C210.41276,107.080729 210.580729,107.046875 210.742188,107 L210.742188,107 L210.742188,105.890625 C210.638021,105.901042 210.546875,105.907552 210.46875,105.910156 C210.390625,105.91276 210.317708,105.914062 210.25,105.914062 C209.994792,105.914062 209.8125,105.885417 209.703125,105.828125 C209.505208,105.729167 209.40625,105.533854 209.40625,105.242188 L209.40625,105.242188 L209.40625,99.78125 L210.742188,99.78125 L210.742188,98.6328125 L209.40625,98.6328125 L209.40625,96.296875 L207.984375,96.296875 L207.984375,98.6328125 L206.851562,98.6328125 L206.851562,99.78125 L207.984375,99.78125 L207.984375,105.320312 C207.984375,105.856771 208.101562,106.292969 208.335938,106.628906 C208.570312,106.964844 209.015625,107.132812 209.671875,107.132812 Z M214.398438,107.28125 C215.044271,107.28125 215.635417,107.143229 216.171875,106.867188 C216.708333,106.591146 217.119792,106.265625 217.40625,105.890625 C217.453125,106.223958 217.533854,106.481771 217.648438,106.664062 C217.867188,107.007812 218.21875,107.179688 218.703125,107.179688 C218.901042,107.179688 219.057292,107.171875 219.171875,107.15625 C219.286458,107.140625 219.453125,107.101562 219.671875,107.039062 L219.671875,107.039062 L219.671875,106 C219.583333,106.015625 219.5,106.027344 219.421875,106.035156 C219.34375,106.042969 219.273438,106.046875 219.210938,106.046875 C219.018229,106.046875 218.891927,106.002604 218.832031,105.914062 C218.772135,105.825521 218.742188,105.708333 218.742188,105.5625 L218.742188,105.5625 L218.742188,100.742188 C218.742188,99.9505208 218.4375,99.3671875 217.828125,98.9921875 C217.213542,98.6171875 216.414062,98.4296875 215.429688,98.4296875 C214.580729,98.4296875 213.834635,98.6315104 213.191406,99.0351562 C212.548177,99.4388021 212.213542,100.15625 212.1875,101.1875 L212.1875,101.1875 L213.5,101.1875 C213.552083,100.755208 213.664062,100.429688 213.835938,100.210938 C214.143229,99.8151042 214.664062,99.6171875 215.398438,99.6171875 C216.033854,99.6171875 216.522135,99.7252604 216.863281,99.9414062 C217.204427,100.157552 217.375,100.505208 217.375,100.984375 C217.375,101.21875 217.34375,101.398438 217.28125,101.523438 C217.171875,101.752604 216.955729,101.888021 216.632812,101.929688 L216.632812,101.929688 L214.390625,102.210938 C213.604167,102.309896 212.96875,102.572917 212.484375,103 C212,103.427083 211.757812,104.028646 211.757812,104.804688 C211.757812,105.513021 212.003906,106.102865 212.496094,106.574219 C212.988281,107.045573 213.622396,107.28125 214.398438,107.28125 Z M214.726562,106.085938 C214.320312,106.085938 213.96875,105.96875 213.671875,105.734375 C213.375,105.5 213.226562,105.179688 213.226562,104.773438 C213.226562,104.236979 213.442708,103.846354 213.875,103.601562 C214.130208,103.455729 214.513021,103.348958 215.023438,103.28125 L215.023438,103.28125 L215.875,103.171875 C216.135417,103.140625 216.401042,103.088542 216.671875,103.015625 C216.942708,102.942708 217.164062,102.851562 217.335938,102.742188 L217.335938,102.742188 L217.335938,103.875 C217.335938,104.739583 216.945312,105.361979 216.164062,105.742188 C215.700521,105.971354 215.221354,106.085938 214.726562,106.085938 Z M223.015625,107.132812 C223.21875,107.132812 223.407552,107.122396 223.582031,107.101562 C223.75651,107.080729 223.924479,107.046875 224.085938,107 L224.085938,107 L224.085938,105.890625 C223.981771,105.901042 223.890625,105.907552 223.8125,105.910156 C223.734375,105.91276 223.661458,105.914062 223.59375,105.914062 C223.338542,105.914062 223.15625,105.885417 223.046875,105.828125 C222.848958,105.729167 222.75,105.533854 222.75,105.242188 L222.75,105.242188 L222.75,99.78125 L224.085938,99.78125 L224.085938,98.6328125 L222.75,98.6328125 L222.75,96.296875 L221.328125,96.296875 L221.328125,98.6328125 L220.195312,98.6328125 L220.195312,99.78125 L221.328125,99.78125 L221.328125,105.320312 C221.328125,105.856771 221.445312,106.292969 221.679688,106.628906 C221.914062,106.964844 222.359375,107.132812 223.015625,107.132812 Z M228.25,107.226562 C229.015625,107.226562 229.666667,107.007812 230.203125,106.570312 C230.473958,106.351562 230.700521,106.083333 230.882812,105.765625 L230.882812,105.765625 L230.867188,107 L232.195312,107 L232.195312,98.6328125 L230.789062,98.6328125 L230.789062,102.742188 C230.789062,103.559896 230.692708,104.203125 230.5,104.671875 C230.145833,105.546875 229.479167,105.984375 228.5,105.984375 C227.817708,105.984375 227.351562,105.734375 227.101562,105.234375 C226.966146,104.963542 226.898438,104.614583 226.898438,104.1875 L226.898438,104.1875 L226.898438,98.6328125 L225.460938,98.6328125 L225.460938,104.320312 C225.460938,105.033854 225.578125,105.604167 225.8125,106.03125 C226.244792,106.828125 227.057292,107.226562 228.25,107.226562 Z M237.351562,107.320312 C238.507812,107.320312 239.36849,107.049479 239.933594,106.507812 C240.498698,105.966146 240.78125,105.322917 240.78125,104.578125 C240.78125,103.807292 240.507812,103.242188 239.960938,102.882812 C239.617188,102.653646 238.940104,102.416667 237.929688,102.171875 L237.929688,102.171875 L237,101.945312 C236.59375,101.846354 236.286458,101.731771 236.078125,101.601562 C235.71875,101.382812 235.539062,101.091146 235.539062,100.726562 C235.539062,100.393229 235.675781,100.125 235.949219,99.921875 C236.222656,99.71875 236.625,99.6171875 237.15625,99.6171875 C237.953125,99.6171875 238.513021,99.8020833 238.835938,100.171875 C239.033854,100.432292 239.145833,100.721354 239.171875,101.039062 L239.171875,101.039062 L240.5,101.039062 C240.510417,100.497396 240.341146,99.9921875 239.992188,99.5234375 C239.434896,98.7838542 238.526042,98.4140625 237.265625,98.4140625 C236.302083,98.4140625 235.535156,98.6588542 234.964844,99.1484375 C234.394531,99.6380208 234.109375,100.278646 234.109375,101.070312 C234.109375,101.742188 234.411458,102.268229 235.015625,102.648438 C235.354167,102.867188 235.880208,103.065104 236.59375,103.242188 L236.59375,103.242188 L237.710938,103.523438 C238.309896,103.674479 238.710938,103.807292 238.914062,103.921875 C239.231771,104.109375 239.390625,104.382812 239.390625,104.742188 C239.390625,105.216146 239.192708,105.566406 238.796875,105.792969 C238.401042,106.019531 237.942708,106.132812 237.421875,106.132812 C236.546875,106.132812 235.932292,105.90625 235.578125,105.453125 C235.385417,105.203125 235.268229,104.84375 235.226562,104.375 L235.226562,104.375 L233.875,104.375 C233.911458,105.208333 234.188802,105.907552 234.707031,106.472656 C235.22526,107.03776 236.106771,107.320312 237.351562,107.320312 Z" id="Status" fill="#3C415C" fill-rule="nonzero"></path>
            <path d="M65.3125,148.335938 C66.5364583,148.335938 67.6106771,148.0625 68.5351562,147.515625 C69.4596354,146.96875 69.921875,146.059896 69.921875,144.789062 C69.921875,143.768229 69.5572917,142.989583 68.828125,142.453125 C68.40625,142.145833 67.8072917,141.903646 67.03125,141.726562 L67.03125,141.726562 L65.421875,141.359375 C64.3385417,141.109375 63.6432292,140.901042 63.3359375,140.734375 C62.8671875,140.473958 62.6328125,140.0625 62.6328125,139.5 C62.6328125,138.989583 62.8333333,138.541667 63.234375,138.15625 C63.6354167,137.770833 64.2942708,137.578125 65.2109375,137.578125 C66.3463542,137.578125 67.1510417,137.877604 67.625,138.476562 C67.8802083,138.804688 68.046875,139.276042 68.125,139.890625 L68.125,139.890625 L69.5859375,139.890625 C69.5859375,138.614583 69.1653646,137.686198 68.3242188,137.105469 C67.4830729,136.52474 66.4609375,136.234375 65.2578125,136.234375 C63.9505208,136.234375 62.9401042,136.565104 62.2265625,137.226562 C61.5130208,137.888021 61.15625,138.734375 61.15625,139.765625 C61.15625,140.71875 61.5208333,141.434896 62.25,141.914062 C62.671875,142.190104 63.390625,142.442708 64.40625,142.671875 L64.40625,142.671875 L65.9609375,143.023438 C66.8046875,143.216146 67.4244792,143.442708 67.8203125,143.703125 C68.2109375,143.96875 68.40625,144.414062 68.40625,145.039062 C68.40625,145.872396 67.9427083,146.450521 67.015625,146.773438 C66.5364583,146.940104 66.0052083,147.023438 65.421875,147.023438 C64.1197917,147.023438 63.2109375,146.643229 62.6953125,145.882812 C62.4244792,145.476562 62.2708333,144.947917 62.234375,144.296875 L62.234375,144.296875 L60.7734375,144.296875 C60.7578125,145.536458 61.1536458,146.518229 61.9609375,147.242188 C62.7682292,147.971354 63.8854167,148.335938 65.3125,148.335938 Z M74.890625,148.304688 C76.2708333,148.304688 77.2890625,147.864583 77.9453125,146.984375 C78.6015625,146.104167 78.9296875,144.989583 78.9296875,143.640625 C78.9296875,142.244792 78.5572917,141.1875 77.8125,140.46875 C77.0677083,139.75 76.15625,139.390625 75.078125,139.390625 C73.875,139.390625 72.9166667,139.807292 72.203125,140.640625 C71.4895833,141.473958 71.1328125,142.59375 71.1328125,144 C71.1328125,145.3125 71.4713542,146.358073 72.1484375,147.136719 C72.8255208,147.915365 73.7395833,148.304688 74.890625,148.304688 Z M75.0234375,147.09375 C74.1744792,147.09375 73.5546875,146.796875 73.1640625,146.203125 C72.7734375,145.609375 72.578125,144.867188 72.578125,143.976562 C72.578125,143.049479 72.7734375,142.257812 73.1640625,141.601562 C73.5546875,140.945312 74.1796875,140.617188 75.0390625,140.617188 C76.0078125,140.617188 76.6901042,141.002604 77.0859375,141.773438 C77.3359375,142.263021 77.4609375,142.898438 77.4609375,143.679688 C77.4609375,144.544271 77.2877604,145.329427 76.9414062,146.035156 C76.5950521,146.740885 75.9557292,147.09375 75.0234375,147.09375 Z M81.8984375,151.335938 L81.8984375,147.0625 C82.2057292,147.442708 82.484375,147.710938 82.734375,147.867188 C83.1614583,148.143229 83.6901042,148.28125 84.3203125,148.28125 C85.1223958,148.28125 85.8255208,148.033854 86.4296875,147.539062 C87.3828125,146.757812 87.859375,145.455729 87.859375,143.632812 C87.859375,142.283854 87.5286458,141.246094 86.8671875,140.519531 C86.2057292,139.792969 85.4010417,139.429688 84.453125,139.429688 C83.8125,139.429688 83.2552083,139.585938 82.78125,139.898438 C82.4479167,140.106771 82.140625,140.401042 81.859375,140.78125 L81.859375,140.78125 L81.859375,139.671875 L80.4921875,139.671875 L80.4921875,151.335938 L81.8984375,151.335938 Z M84.1328125,147.054688 C83.1640625,147.054688 82.4973958,146.622396 82.1328125,145.757812 C81.9401042,145.304688 81.84375,144.755208 81.84375,144.109375 C81.84375,143.307292 81.9401042,142.645833 82.1328125,142.125 C82.4921875,141.151042 83.1588542,140.664062 84.1328125,140.664062 C85.1015625,140.664062 85.7682292,141.125 86.1328125,142.046875 C86.3255208,142.526042 86.421875,143.098958 86.421875,143.765625 C86.421875,144.859375 86.2044271,145.68099 85.7695312,146.230469 C85.3346354,146.779948 84.7890625,147.054688 84.1328125,147.054688 Z M90.90625,148 L90.90625,143.5625 C90.90625,142.447917 91.1432292,141.690104 91.6171875,141.289062 C92.0911458,140.888021 92.6197917,140.6875 93.203125,140.6875 C93.90625,140.6875 94.3854167,140.916667 94.640625,141.375 C94.796875,141.661458 94.875,142.111979 94.875,142.726562 L94.875,142.726562 L94.875,148 L96.3203125,148 L96.3203125,142.632812 C96.3203125,141.809896 96.203125,141.166667 95.96875,140.703125 C95.5364583,139.854167 94.7135417,139.429688 93.5,139.429688 C92.8229167,139.429688 92.2578125,139.578125 91.8046875,139.875 C91.5390625,140.046875 91.2395833,140.34375 90.90625,140.765625 L90.90625,140.765625 L90.90625,136.484375 L89.5,136.484375 L89.5,148 L90.90625,148 Z M99.828125,138.117188 L99.828125,136.523438 L98.3984375,136.523438 L98.3984375,138.117188 L99.828125,138.117188 Z M99.828125,148 L99.828125,139.671875 L98.3984375,139.671875 L98.3984375,148 L99.828125,148 Z M105.21875,148.296875 C105.645833,148.296875 106.028646,148.255208 106.367188,148.171875 C106.997396,148.026042 107.526042,147.744792 107.953125,147.328125 C108.208333,147.088542 108.438802,146.779948 108.644531,146.402344 C108.85026,146.02474 108.971354,145.682292 109.007812,145.375 L109.007812,145.375 L107.625,145.375 C107.520833,145.744792 107.34375,146.070312 107.09375,146.351562 C106.65625,146.835938 106.070312,147.078125 105.335938,147.078125 C104.549479,147.078125 103.96875,146.821615 103.59375,146.308594 C103.21875,145.795573 103.018229,145.114583 102.992188,144.265625 L102.992188,144.265625 L109.125,144.265625 C109.125,143.421875 109.083333,142.807292 109,142.421875 C108.90625,141.859375 108.71875,141.367188 108.4375,140.945312 C108.145833,140.502604 107.721354,140.141927 107.164062,139.863281 C106.606771,139.584635 106.03125,139.445312 105.4375,139.445312 C104.260417,139.445312 103.307292,139.864583 102.578125,140.703125 C101.848958,141.541667 101.484375,142.632812 101.484375,143.976562 C101.484375,145.341146 101.846354,146.402344 102.570312,147.160156 C103.294271,147.917969 104.177083,148.296875 105.21875,148.296875 Z M107.679688,143.148438 L103.03125,143.148438 C103.057292,142.429688 103.289062,141.83724 103.726562,141.371094 C104.164062,140.904948 104.705729,140.671875 105.351562,140.671875 C106.252604,140.671875 106.895833,141.010417 107.28125,141.6875 C107.489583,142.052083 107.622396,142.539062 107.679688,143.148438 L107.679688,143.148438 Z M111.148438,140.59375 C111.710938,140.526042 112.130208,140.259115 112.40625,139.792969 C112.682292,139.326823 112.820312,138.760417 112.820312,138.09375 L112.820312,138.09375 L112.820312,136.523438 L111.148438,136.523438 L111.148438,138.226562 L112,138.226562 C112.010417,138.263021 112.016927,138.295573 112.019531,138.324219 C112.022135,138.352865 112.023438,138.385417 112.023438,138.421875 C112.023438,138.78125 111.949219,139.098958 111.800781,139.375 C111.652344,139.651042 111.434896,139.8125 111.148438,139.859375 L111.148438,139.859375 L111.148438,140.59375 Z M117.367188,148.320312 C118.523438,148.320312 119.384115,148.049479 119.949219,147.507812 C120.514323,146.966146 120.796875,146.322917 120.796875,145.578125 C120.796875,144.807292 120.523438,144.242188 119.976562,143.882812 C119.632812,143.653646 118.955729,143.416667 117.945312,143.171875 L117.945312,143.171875 L117.015625,142.945312 C116.609375,142.846354 116.302083,142.731771 116.09375,142.601562 C115.734375,142.382812 115.554688,142.091146 115.554688,141.726562 C115.554688,141.393229 115.691406,141.125 115.964844,140.921875 C116.238281,140.71875 116.640625,140.617188 117.171875,140.617188 C117.96875,140.617188 118.528646,140.802083 118.851562,141.171875 C119.049479,141.432292 119.161458,141.721354 119.1875,142.039062 L119.1875,142.039062 L120.515625,142.039062 C120.526042,141.497396 120.356771,140.992188 120.007812,140.523438 C119.450521,139.783854 118.541667,139.414062 117.28125,139.414062 C116.317708,139.414062 115.550781,139.658854 114.980469,140.148438 C114.410156,140.638021 114.125,141.278646 114.125,142.070312 C114.125,142.742188 114.427083,143.268229 115.03125,143.648438 C115.369792,143.867188 115.895833,144.065104 116.609375,144.242188 L116.609375,144.242188 L117.726562,144.523438 C118.325521,144.674479 118.726562,144.807292 118.929688,144.921875 C119.247396,145.109375 119.40625,145.382812 119.40625,145.742188 C119.40625,146.216146 119.208333,146.566406 118.8125,146.792969 C118.416667,147.019531 117.958333,147.132812 117.4375,147.132812 C116.5625,147.132812 115.947917,146.90625 115.59375,146.453125 C115.401042,146.203125 115.283854,145.84375 115.242188,145.375 L115.242188,145.375 L113.890625,145.375 C113.927083,146.208333 114.204427,146.907552 114.722656,147.472656 C115.240885,148.03776 116.122396,148.320312 117.367188,148.320312 Z M129.875,148.242188 C130.848958,148.242188 131.648438,147.985677 132.273438,147.472656 C132.898438,146.959635 133.289062,146.148438 133.445312,145.039062 L133.445312,145.039062 L132.078125,145.039062 C131.947917,145.658854 131.71224,146.147135 131.371094,146.503906 C131.029948,146.860677 130.567708,147.039062 129.984375,147.039062 C129.223958,147.039062 128.666667,146.752604 128.3125,146.179688 C127.958333,145.606771 127.78125,144.901042 127.78125,144.0625 C127.78125,143.229167 127.90625,142.528646 128.15625,141.960938 C128.541667,141.085938 129.182292,140.648438 130.078125,140.648438 C130.734375,140.648438 131.210938,140.81901 131.507812,141.160156 C131.804688,141.501302 131.994792,141.929688 132.078125,142.445312 L132.078125,142.445312 L133.445312,142.445312 C133.325521,141.325521 132.970052,140.536458 132.378906,140.078125 C131.78776,139.619792 131.020833,139.390625 130.078125,139.390625 C128.973958,139.390625 128.065104,139.799479 127.351562,140.617188 C126.638021,141.434896 126.28125,142.578125 126.28125,144.046875 C126.28125,145.244792 126.606771,146.24349 127.257812,147.042969 C127.908854,147.842448 128.78125,148.242188 129.875,148.242188 Z M137.101562,148.28125 C137.747396,148.28125 138.338542,148.143229 138.875,147.867188 C139.411458,147.591146 139.822917,147.265625 140.109375,146.890625 C140.15625,147.223958 140.236979,147.481771 140.351562,147.664062 C140.570312,148.007812 140.921875,148.179688 141.40625,148.179688 C141.604167,148.179688 141.760417,148.171875 141.875,148.15625 C141.989583,148.140625 142.15625,148.101562 142.375,148.039062 L142.375,148.039062 L142.375,147 C142.286458,147.015625 142.203125,147.027344 142.125,147.035156 C142.046875,147.042969 141.976562,147.046875 141.914062,147.046875 C141.721354,147.046875 141.595052,147.002604 141.535156,146.914062 C141.47526,146.825521 141.445312,146.708333 141.445312,146.5625 L141.445312,146.5625 L141.445312,141.742188 C141.445312,140.950521 141.140625,140.367188 140.53125,139.992188 C139.916667,139.617188 139.117188,139.429688 138.132812,139.429688 C137.283854,139.429688 136.53776,139.63151 135.894531,140.035156 C135.251302,140.438802 134.916667,141.15625 134.890625,142.1875 L134.890625,142.1875 L136.203125,142.1875 C136.255208,141.755208 136.367188,141.429688 136.539062,141.210938 C136.846354,140.815104 137.367188,140.617188 138.101562,140.617188 C138.736979,140.617188 139.22526,140.72526 139.566406,140.941406 C139.907552,141.157552 140.078125,141.505208 140.078125,141.984375 C140.078125,142.21875 140.046875,142.398438 139.984375,142.523438 C139.875,142.752604 139.658854,142.888021 139.335938,142.929688 L139.335938,142.929688 L137.09375,143.210938 C136.307292,143.309896 135.671875,143.572917 135.1875,144 C134.703125,144.427083 134.460938,145.028646 134.460938,145.804688 C134.460938,146.513021 134.707031,147.102865 135.199219,147.574219 C135.691406,148.045573 136.325521,148.28125 137.101562,148.28125 Z M137.429688,147.085938 C137.023438,147.085938 136.671875,146.96875 136.375,146.734375 C136.078125,146.5 135.929688,146.179688 135.929688,145.773438 C135.929688,145.236979 136.145833,144.846354 136.578125,144.601562 C136.833333,144.455729 137.216146,144.348958 137.726562,144.28125 L137.726562,144.28125 L138.578125,144.171875 C138.838542,144.140625 139.104167,144.088542 139.375,144.015625 C139.645833,143.942708 139.867188,143.851562 140.039062,143.742188 L140.039062,143.742188 L140.039062,144.875 C140.039062,145.739583 139.648438,146.361979 138.867188,146.742188 C138.403646,146.971354 137.924479,147.085938 137.429688,147.085938 Z M145.070312,148 L145.070312,144.859375 L146.25,143.78125 L148.859375,148 L150.65625,148 L147.273438,142.765625 L150.476562,139.632812 L148.679688,139.632812 L145.070312,143.1875 L145.070312,136.523438 L143.71875,136.523438 L143.71875,148 L145.070312,148 Z M155.015625,148.296875 C155.442708,148.296875 155.825521,148.255208 156.164062,148.171875 C156.794271,148.026042 157.322917,147.744792 157.75,147.328125 C158.005208,147.088542 158.235677,146.779948 158.441406,146.402344 C158.647135,146.02474 158.768229,145.682292 158.804688,145.375 L158.804688,145.375 L157.421875,145.375 C157.317708,145.744792 157.140625,146.070312 156.890625,146.351562 C156.453125,146.835938 155.867188,147.078125 155.132812,147.078125 C154.346354,147.078125 153.765625,146.821615 153.390625,146.308594 C153.015625,145.795573 152.815104,145.114583 152.789062,144.265625 L152.789062,144.265625 L158.921875,144.265625 C158.921875,143.421875 158.880208,142.807292 158.796875,142.421875 C158.703125,141.859375 158.515625,141.367188 158.234375,140.945312 C157.942708,140.502604 157.518229,140.141927 156.960938,139.863281 C156.403646,139.584635 155.828125,139.445312 155.234375,139.445312 C154.057292,139.445312 153.104167,139.864583 152.375,140.703125 C151.645833,141.541667 151.28125,142.632812 151.28125,143.976562 C151.28125,145.341146 151.643229,146.402344 152.367188,147.160156 C153.091146,147.917969 153.973958,148.296875 155.015625,148.296875 Z M157.476562,143.148438 L152.828125,143.148438 C152.854167,142.429688 153.085938,141.83724 153.523438,141.371094 C153.960938,140.904948 154.502604,140.671875 155.148438,140.671875 C156.049479,140.671875 156.692708,141.010417 157.078125,141.6875 C157.286458,142.052083 157.419271,142.539062 157.476562,143.148438 L157.476562,143.148438 Z M163.609375,148.320312 C164.765625,148.320312 165.626302,148.049479 166.191406,147.507812 C166.75651,146.966146 167.039062,146.322917 167.039062,145.578125 C167.039062,144.807292 166.765625,144.242188 166.21875,143.882812 C165.875,143.653646 165.197917,143.416667 164.1875,143.171875 L164.1875,143.171875 L163.257812,142.945312 C162.851562,142.846354 162.544271,142.731771 162.335938,142.601562 C161.976562,142.382812 161.796875,142.091146 161.796875,141.726562 C161.796875,141.393229 161.933594,141.125 162.207031,140.921875 C162.480469,140.71875 162.882812,140.617188 163.414062,140.617188 C164.210938,140.617188 164.770833,140.802083 165.09375,141.171875 C165.291667,141.432292 165.403646,141.721354 165.429688,142.039062 L165.429688,142.039062 L166.757812,142.039062 C166.768229,141.497396 166.598958,140.992188 166.25,140.523438 C165.692708,139.783854 164.783854,139.414062 163.523438,139.414062 C162.559896,139.414062 161.792969,139.658854 161.222656,140.148438 C160.652344,140.638021 160.367188,141.278646 160.367188,142.070312 C160.367188,142.742188 160.669271,143.268229 161.273438,143.648438 C161.611979,143.867188 162.138021,144.065104 162.851562,144.242188 L162.851562,144.242188 L163.96875,144.523438 C164.567708,144.674479 164.96875,144.807292 165.171875,144.921875 C165.489583,145.109375 165.648438,145.382812 165.648438,145.742188 C165.648438,146.216146 165.450521,146.566406 165.054688,146.792969 C164.658854,147.019531 164.200521,147.132812 163.679688,147.132812 C162.804688,147.132812 162.190104,146.90625 161.835938,146.453125 C161.643229,146.203125 161.526042,145.84375 161.484375,145.375 L161.484375,145.375 L160.132812,145.375 C160.169271,146.208333 160.446615,146.907552 160.964844,147.472656 C161.483073,148.03776 162.364583,148.320312 163.609375,148.320312 Z" id="Sophie’scakes" fill="#697386" fill-rule="nonzero"></path>
            <rect id="Rectangle" fill="#EEF3F6" fill-rule="nonzero" x="60" y="166" width="319" height="24"></rect>
            <rect id="Rectangle" fill="#EEF3F6" fill-rule="nonzero" x="60" y="201" width="319" height="24"></rect>
            <line x1="59.5" y1="123.5" x2="379.5" y2="123.5" id="Line" stroke="#E3EAEE" stroke-linecap="round"></line>
        </g>
    </g>
</svg>