<?xml version="1.0" encoding="UTF-8"?>
<svg width="443px" height="317px" viewBox="0 0 443 317" version="1.1" xmlns="http://www.w3.org/2000/svg" xmlns:xlink="http://www.w3.org/1999/xlink">
    <!-- Generator: Sketch 62 (91390) - https://sketch.com -->
    <title>collect-ui</title>
    <desc>Created with Sketch.</desc>
    <defs>
        <rect id="path-1" x="0" y="130" width="317" height="39" rx="4"></rect>
        <filter x="-0.9%" y="-4.5%" width="101.7%" height="114.1%" filterUnits="objectBoundingBox" id="filter-2">
            <feOffset dx="0" dy="1" in="SourceAlpha" result="shadowOffsetOuter1"></feOffset>
            <feGaussianBlur stdDeviation="0.75" in="shadowOffsetOuter1" result="shadowBlurOuter1"></feGaussianBlur>
            <feColorMatrix values="0 0 0 0 0   0 0 0 0 0   0 0 0 0 0  0 0 0 0.07 0" type="matrix" in="shadowBlurOuter1"></feColorMatrix>
        </filter>
        <rect id="path-3" x="0" y="35" width="317" height="80" rx="4"></rect>
        <filter x="-0.9%" y="-2.2%" width="101.7%" height="106.9%" filterUnits="objectBoundingBox" id="filter-4">
            <feOffset dx="0" dy="1" in="SourceAlpha" result="shadowOffsetOuter1"></feOffset>
            <feGaussianBlur stdDeviation="0.75" in="shadowOffsetOuter1" result="shadowBlurOuter1"></feGaussianBlur>
            <feColorMatrix values="0 0 0 0 0   0 0 0 0 0   0 0 0 0 0  0 0 0 0.07 0" type="matrix" in="shadowBlurOuter1"></feColorMatrix>
        </filter>
        <path d="M16,4 L0,4 L0,3.25 C0,2.55964406 0.44771525,2 1,2 L15,2 C15.5522847,2 16,2.55964406 16,3.25 L16,4 Z M16,6.5 L16,13 C16,13.5522847 15.5522847,14 15,14 L1,14 C0.44771525,14 0,13.5522847 0,13 L0,6.5 L16,6.5 Z M4,10 C3.44771525,10 3,10.4477153 3,11 C3,11.5522847 3.44771525,12 4,12 L5,12 C5.55228475,12 6,11.5522847 6,11 C6,10.4477153 5.55228475,10 5,10 L4,10 Z" id="path-5"></path>
    </defs>
    <g id="Page-1" stroke="none" stroke-width="1" fill="none" fill-rule="evenodd">
        <g id="Desktop" transform="translate(-895.000000, -243.000000)">
            <g id="collect" transform="translate(356.000000, 243.000000)">
                <g id="collect-ui" transform="translate(539.000000, 0.000000)">
                    <rect id="bg" fill="#F6FAFC" x="0" y="0" width="443" height="317" rx="8"></rect>
                    <g id="form" transform="translate(59.000000, 36.000000)">
                        <path d="M2.96337891,13 L2.96337891,7.98632812 L8.10986328,7.98632812 L8.10986328,6.41748047 L2.96337891,6.41748047 L2.96337891,2.62402344 L8.58300781,2.62402344 L8.58300781,1.02197266 L1.10400391,1.02197266 L1.10400391,13 L2.96337891,13 Z M10.9404297,2.85644531 C11.5131836,2.85644531 11.9697266,2.39160156 11.9697266,1.82714844 C11.9697266,1.25439453 11.5131836,0.797851562 10.9404297,0.797851562 C10.3676758,0.797851562 9.90283203,1.25439453 9.90283203,1.82714844 C9.90283203,2.39160156 10.3676758,2.85644531 10.9404297,2.85644531 Z M11.8369141,13 L11.8369141,4.26757812 L10.0439453,4.26757812 L10.0439453,13 L11.8369141,13 Z M15.5307617,13 L15.5307617,1.02197266 L13.737793,1.02197266 L13.737793,13 L15.5307617,13 Z M19.2329102,13 L19.2329102,1.02197266 L17.4399414,1.02197266 L17.4399414,13 L19.2329102,13 Z M25.4750977,2.85644531 C26.0478516,2.85644531 26.5043945,2.39160156 26.5043945,1.82714844 C26.5043945,1.25439453 26.0478516,0.797851562 25.4750977,0.797851562 C24.9023438,0.797851562 24.4375,1.25439453 24.4375,1.82714844 C24.4375,2.39160156 24.9023438,2.85644531 25.4750977,2.85644531 Z M26.371582,13 L26.371582,4.26757812 L24.5786133,4.26757812 L24.5786133,13 L26.371582,13 Z M29.9990234,13 L29.9990234,7.91162109 C29.9990234,6.55859375 30.8125,5.66210938 32.0742188,5.66210938 C33.3193359,5.66210938 33.9335938,6.38427734 33.9335938,7.69580078 L33.9335938,13 L35.7348633,13 L35.7348633,7.34716797 C35.7348633,5.34667969 34.6308594,4.11816406 32.7050781,4.11816406 C31.3603516,4.11816406 30.4306641,4.73242188 29.9575195,5.72851562 L29.9160156,5.72851562 L29.9160156,4.26757812 L28.2060547,4.26757812 L28.2060547,13 L29.9990234,13 Z M41.777832,16.2539062 C43.5874023,16.2539062 44.4506836,15.5732422 45.1977539,13.456543 L48.4682617,4.26757812 L46.5756836,4.26757812 L44.3676758,11.3730469 L44.3344727,11.3730469 L42.1264648,4.26757812 L40.184082,4.26757812 L43.3383789,13.0083008 C43.3383789,13.0166016 43.1806641,13.53125 43.1806641,13.5478516 C42.9067383,14.4443359 42.4584961,14.7929688 41.628418,14.7929688 C41.4790039,14.7929688 41.1801758,14.7929688 41.0473633,14.7597656 L41.0473633,16.2124023 C41.1801758,16.2373047 41.628418,16.2539062 41.777832,16.2539062 Z M53.2744141,13.1660156 C55.7729492,13.1660156 57.4165039,11.4477539 57.4165039,8.63378906 C57.4165039,5.828125 55.7646484,4.10986328 53.2744141,4.10986328 C50.7841797,4.10986328 49.1323242,5.828125 49.1323242,8.63378906 C49.1323242,11.4477539 50.7758789,13.1660156 53.2744141,13.1660156 Z M53.2744141,11.6884766 C51.871582,11.6884766 50.9584961,10.5761719 50.9584961,8.63378906 C50.9584961,6.69970703 51.871582,5.58740234 53.2744141,5.58740234 C54.6772461,5.58740234 55.590332,6.69970703 55.590332,8.63378906 C55.590332,10.5761719 54.6855469,11.6884766 53.2744141,11.6884766 Z M61.8242188,13.1577148 C63.1606445,13.1577148 64.0488281,12.5683594 64.5302734,11.5224609 L64.5717773,11.5224609 L64.5717773,13 L66.2900391,13 L66.2900391,4.26757812 L64.4970703,4.26757812 L64.4970703,9.35595703 C64.4970703,10.7172852 63.7167969,11.6137695 62.421875,11.6137695 C61.1850586,11.6137695 60.5541992,10.8999023 60.5541992,9.57177734 L60.5541992,4.26757812 L58.7612305,4.26757812 L58.7612305,9.92041016 C58.7612305,11.9208984 59.9233398,13.1577148 61.8242188,13.1577148 Z M69.8510742,13 L69.8510742,7.77050781 C69.8510742,6.53369141 70.5649414,5.76171875 71.71875,5.76171875 C72.0673828,5.76171875 72.3828125,5.80322266 72.5239258,5.86132812 L72.5239258,4.19287109 C72.3911133,4.16796875 72.1669922,4.12646484 71.909668,4.12646484 C70.8803711,4.12646484 70.1000977,4.73242188 69.8095703,5.75341797 L69.7680664,5.75341797 L69.7680664,4.26757812 L68.0581055,4.26757812 L68.0581055,13 L69.8510742,13 Z M78.8740234,15.8886719 L78.8740234,11.5639648 L78.9155273,11.5639648 C79.4135742,12.5351562 80.409668,13.1494141 81.6630859,13.1494141 C83.8544922,13.1494141 85.3071289,11.3979492 85.3071289,8.63378906 C85.3071289,5.86962891 83.8461914,4.12646484 81.6298828,4.12646484 C80.3681641,4.12646484 79.3637695,4.765625 78.8491211,5.77001953 L78.815918,5.77001953 L78.815918,4.26757812 L77.0810547,4.26757812 L77.0810547,15.8886719 L78.8740234,15.8886719 Z M81.1567383,11.6303711 C79.7788086,11.6303711 78.8657227,10.4516602 78.8657227,8.63378906 C78.8657227,6.83251953 79.7871094,5.63720703 81.1567383,5.63720703 C82.5761719,5.63720703 83.4643555,6.80761719 83.4643555,8.63378906 C83.4643555,10.4682617 82.5761719,11.6303711 81.1567383,11.6303711 Z M89.2416992,13.1494141 C90.387207,13.1494141 91.4912109,12.5351562 91.9975586,11.5639648 L92.0390625,11.5639648 L92.0390625,13 L93.7573242,13 L93.7573242,6.98193359 C93.7573242,5.23046875 92.4042969,4.10986328 90.2875977,4.10986328 C88.1293945,4.10986328 86.784668,5.27197266 86.6850586,6.84912109 L88.378418,6.84912109 C88.5361328,6.06884766 89.1835938,5.57080078 90.2211914,5.57080078 C91.3168945,5.57080078 91.9726562,6.15185547 91.9726562,7.12304688 L91.9726562,7.79541016 L89.5820312,7.93652344 C87.5068359,8.05273438 86.3364258,8.99072266 86.3364258,10.5180664 C86.3364258,12.0869141 87.5317383,13.1494141 89.2416992,13.1494141 Z M89.7397461,11.7299805 C88.7768555,11.7299805 88.1459961,11.2319336 88.1459961,10.4682617 C88.1459961,9.72119141 88.7519531,9.24804688 89.8227539,9.17333984 L91.9726562,9.04052734 L91.9726562,9.72949219 C91.9726562,10.8666992 90.9931641,11.7299805 89.7397461,11.7299805 Z M96.3637695,16.2539062 C98.1733398,16.2539062 99.0366211,15.5732422 99.7836914,13.456543 L103.054199,4.26757812 L101.161621,4.26757812 L98.9536133,11.3730469 L98.9204102,11.3730469 L96.7124023,4.26757812 L94.7700195,4.26757812 L97.9243164,13.0083008 C97.9243164,13.0166016 97.7666016,13.53125 97.7666016,13.5478516 C97.4926758,14.4443359 97.0444336,14.7929688 96.2143555,14.7929688 C96.0649414,14.7929688 95.7661133,14.7929688 95.6333008,14.7597656 L95.6333008,16.2124023 C95.7661133,16.2373047 96.2143555,16.2539062 96.3637695,16.2539062 Z M105.901367,13 L105.901367,7.60449219 C105.901367,6.48388672 106.656738,5.65380859 107.719238,5.65380859 C108.731934,5.65380859 109.371094,6.29296875 109.371094,7.29736328 L109.371094,13 L111.130859,13 L111.130859,7.54638672 C111.130859,6.44238281 111.869629,5.65380859 112.932129,5.65380859 C113.994629,5.65380859 114.600586,6.30126953 114.600586,7.43017578 L114.600586,13 L116.401855,13 L116.401855,6.99853516 C116.401855,5.26367188 115.272949,4.11816406 113.546387,4.11816406 C112.30127,4.11816406 111.271973,4.765625 110.82373,5.828125 L110.782227,5.828125 C110.433594,4.74072266 109.553711,4.11816406 108.341797,4.11816406 C107.163086,4.11816406 106.25,4.765625 105.859863,5.73681641 L105.818359,5.73681641 L105.818359,4.26757812 L104.108398,4.26757812 L104.108398,13 L105.901367,13 Z M121.855469,13.1660156 C123.855957,13.1660156 125.366699,12.0288086 125.615723,10.4350586 L123.914062,10.4350586 C123.67334,11.1987305 122.917969,11.7133789 121.896973,11.7133789 C120.460938,11.7133789 119.547852,10.7089844 119.547852,9.18994141 L119.547852,9.08203125 L125.715332,9.08203125 L125.715332,8.46777344 C125.715332,5.81982422 124.20459,4.10986328 121.780762,4.10986328 C119.31543,4.10986328 117.738281,5.93603516 117.738281,8.67529297 C117.738281,11.4311523 119.290527,13.1660156 121.855469,13.1660156 Z M123.922363,7.82861328 L119.556152,7.82861328 C119.647461,6.50878906 120.527344,5.55419922 121.780762,5.55419922 C123.03418,5.55419922 123.880859,6.4921875 123.922363,7.82861328 Z M128.894531,13 L128.894531,7.91162109 C128.894531,6.55859375 129.708008,5.66210938 130.969727,5.66210938 C132.214844,5.66210938 132.829102,6.38427734 132.829102,7.69580078 L132.829102,13 L134.630371,13 L134.630371,7.34716797 C134.630371,5.34667969 133.526367,4.11816406 131.600586,4.11816406 C130.255859,4.11816406 129.326172,4.73242188 128.853027,5.72851562 L128.811523,5.72851562 L128.811523,4.26757812 L127.101562,4.26757812 L127.101562,13 L128.894531,13 Z M139.336914,13.0581055 C139.735352,13.0581055 140.133789,13.0249023 140.333008,12.9750977 L140.333008,11.5556641 C140.216797,11.5805664 139.92627,11.597168 139.743652,11.597168 C139.013184,11.597168 138.681152,11.2568359 138.681152,10.5014648 L138.681152,5.68701172 L140.341309,5.68701172 L140.341309,4.26757812 L138.681152,4.26757812 L138.681152,2.20068359 L136.879883,2.20068359 L136.879883,4.26757812 L135.609863,4.26757812 L135.609863,5.68701172 L136.879883,5.68701172 L136.879883,10.7006836 C136.879883,12.3857422 137.568848,13.0581055 139.336914,13.0581055 Z M148.53418,13.1494141 C149.804199,13.1494141 150.800293,12.5102539 151.314941,11.5141602 L151.348145,11.5141602 L151.348145,13 L153.091309,13 L153.091309,1.02197266 L151.290039,1.02197266 L151.290039,5.72021484 L151.256836,5.72021484 C150.76709,4.75732422 149.770996,4.12646484 148.517578,4.12646484 C146.326172,4.12646484 144.865234,5.87792969 144.865234,8.63378906 C144.865234,11.3896484 146.326172,13.1494141 148.53418,13.1494141 Z M149.007324,11.6303711 C147.587891,11.6303711 146.699707,10.4765625 146.699707,8.63378906 C146.699707,6.79931641 147.587891,5.63720703 149.007324,5.63720703 C150.385254,5.63720703 151.306641,6.82421875 151.306641,8.63378906 C151.306641,10.4599609 150.385254,11.6303711 149.007324,11.6303711 Z M158.652832,13.1660156 C160.65332,13.1660156 162.164062,12.0288086 162.413086,10.4350586 L160.711426,10.4350586 C160.470703,11.1987305 159.715332,11.7133789 158.694336,11.7133789 C157.258301,11.7133789 156.345215,10.7089844 156.345215,9.18994141 L156.345215,9.08203125 L162.512695,9.08203125 L162.512695,8.46777344 C162.512695,5.81982422 161.001953,4.10986328 158.578125,4.10986328 C156.112793,4.10986328 154.535645,5.93603516 154.535645,8.67529297 C154.535645,11.4311523 156.087891,13.1660156 158.652832,13.1660156 Z M160.719727,7.82861328 L156.353516,7.82861328 C156.444824,6.50878906 157.324707,5.55419922 158.578125,5.55419922 C159.831543,5.55419922 160.678223,6.4921875 160.719727,7.82861328 Z M166.878906,13.0581055 C167.277344,13.0581055 167.675781,13.0249023 167.875,12.9750977 L167.875,11.5556641 C167.758789,11.5805664 167.468262,11.597168 167.285645,11.597168 C166.555176,11.597168 166.223145,11.2568359 166.223145,10.5014648 L166.223145,5.68701172 L167.883301,5.68701172 L167.883301,4.26757812 L166.223145,4.26757812 L166.223145,2.20068359 L164.421875,2.20068359 L164.421875,4.26757812 L163.151855,4.26757812 L163.151855,5.68701172 L164.421875,5.68701172 L164.421875,10.7006836 C164.421875,12.3857422 165.11084,13.0581055 166.878906,13.0581055 Z M171.90918,13.1494141 C173.054688,13.1494141 174.158691,12.5351562 174.665039,11.5639648 L174.706543,11.5639648 L174.706543,13 L176.424805,13 L176.424805,6.98193359 C176.424805,5.23046875 175.071777,4.10986328 172.955078,4.10986328 C170.796875,4.10986328 169.452148,5.27197266 169.352539,6.84912109 L171.045898,6.84912109 C171.203613,6.06884766 171.851074,5.57080078 172.888672,5.57080078 C173.984375,5.57080078 174.640137,6.15185547 174.640137,7.12304688 L174.640137,7.79541016 L172.249512,7.93652344 C170.174316,8.05273438 169.003906,8.99072266 169.003906,10.5180664 C169.003906,12.0869141 170.199219,13.1494141 171.90918,13.1494141 Z M172.407227,11.7299805 C171.444336,11.7299805 170.813477,11.2319336 170.813477,10.4682617 C170.813477,9.72119141 171.419434,9.24804688 172.490234,9.17333984 L174.640137,9.04052734 L174.640137,9.72949219 C174.640137,10.8666992 173.660645,11.7299805 172.407227,11.7299805 Z M179.114258,2.85644531 C179.687012,2.85644531 180.143555,2.39160156 180.143555,1.82714844 C180.143555,1.25439453 179.687012,0.797851562 179.114258,0.797851562 C178.541504,0.797851562 178.07666,1.25439453 178.07666,1.82714844 C178.07666,2.39160156 178.541504,2.85644531 179.114258,2.85644531 Z M180.010742,13 L180.010742,4.26757812 L178.217773,4.26757812 L178.217773,13 L180.010742,13 Z M183.70459,13 L183.70459,1.02197266 L181.911621,1.02197266 L181.911621,13 L183.70459,13 Z M188.826172,13.1660156 C190.884766,13.1660156 192.370605,12.0703125 192.370605,10.4765625 C192.370605,9.21484375 191.689941,8.51757812 189.905273,8.10253906 L188.48584,7.77880859 C187.539551,7.56298828 187.141113,7.18945312 187.141113,6.64160156 C187.141113,5.94433594 187.788574,5.47119141 188.759766,5.47119141 C189.76416,5.47119141 190.386719,6.00244141 190.486328,6.84912109 L192.171387,6.84912109 C192.113281,5.23876953 190.793457,4.10986328 188.759766,4.10986328 C186.750977,4.10986328 185.389648,5.18066406 185.389648,6.74121094 C185.389648,8.01123047 186.211426,8.80810547 187.871582,9.18994141 L189.291016,9.52197266 C190.245605,9.73779297 190.569336,10.0698242 190.569336,10.6342773 C190.569336,11.3481445 189.905273,11.7963867 188.826172,11.7963867 C187.730469,11.7963867 187.10791,11.3481445 186.941895,10.4350586 L185.165527,10.4350586 C185.331543,12.0952148 186.643066,13.1660156 188.826172,13.1660156 Z" id="Fillinyourpaymentdetails" fill="#1F1A47" fill-rule="nonzero"></path>
                        <g id="Rectangle-Copy-2">
                            <use fill="black" fill-opacity="1" filter="url(#filter-2)" xlink:href="#path-1"></use>
                            <use fill="#FFFFFF" fill-rule="evenodd" xlink:href="#path-1"></use>
                        </g>
                        <path d="M132.362217,155 L132.362217,151.38916 L134.632725,151.38916 C136.705479,151.38916 138.162998,149.968262 138.162998,147.902832 C138.162998,145.844727 136.734775,144.431152 134.683994,144.431152 L130.721592,144.431152 L130.721592,155 L132.362217,155 Z M134.244541,150.012207 L132.362217,150.012207 L132.362217,145.81543 L134.251865,145.81543 C135.672764,145.81543 136.485752,146.577148 136.485752,147.910156 C136.485752,149.243164 135.672764,150.012207 134.244541,150.012207 Z M140.816064,155.131836 C141.826807,155.131836 142.800928,154.589844 143.247705,153.73291 L143.284326,153.73291 L143.284326,155 L144.800439,155 L144.800439,149.689941 C144.800439,148.144531 143.606592,147.155762 141.738916,147.155762 C139.834619,147.155762 138.648096,148.181152 138.560205,149.572754 L140.054346,149.572754 C140.193506,148.884277 140.764795,148.444824 141.680322,148.444824 C142.647119,148.444824 143.225732,148.95752 143.225732,149.814453 L143.225732,150.407715 L141.116357,150.532227 C139.285303,150.634766 138.252588,151.462402 138.252588,152.810059 C138.252588,154.194336 139.307275,155.131836 140.816064,155.131836 Z M141.255518,153.879395 C140.405908,153.879395 139.849268,153.439941 139.849268,152.766113 C139.849268,152.106934 140.383936,151.689453 141.32876,151.623535 L143.225732,151.506348 L143.225732,152.114258 C143.225732,153.117676 142.361475,153.879395 141.255518,153.879395 Z M146.860244,157.871094 C148.456924,157.871094 149.218643,157.270508 149.877822,155.402832 L152.763564,147.294922 L151.093643,147.294922 L149.1454,153.564453 L149.116104,153.564453 L147.167861,147.294922 L145.453994,147.294922 L148.237197,155.007324 C148.237197,155.014648 148.098037,155.46875 148.098037,155.483398 C147.856338,156.274414 147.46083,156.582031 146.728408,156.582031 C146.596572,156.582031 146.3329,156.582031 146.215713,156.552734 L146.215713,157.834473 C146.3329,157.856445 146.728408,157.871094 146.860244,157.871094 Z M162.58874,155.014648 C163.101436,155.014648 163.709346,154.956055 164.024287,154.868164 L164.024287,153.469238 C163.731318,153.549805 163.116084,153.59375 162.58874,153.59375 C160.926143,153.59375 159.622432,152.766113 159.146357,151.169434 L163.10876,151.169434 L163.10876,150.341797 L158.9779,150.341797 C158.963252,150.144043 158.948604,149.938965 158.948604,149.719238 C158.948604,149.499512 158.963252,149.287109 158.985225,149.082031 L163.10876,149.082031 L163.10876,148.254395 L159.153682,148.254395 C159.629756,146.665039 160.940791,145.844727 162.596064,145.844727 C163.101436,145.844727 163.702021,145.90332 164.016963,145.976562 L164.016963,144.584961 C163.71667,144.489746 163.079463,144.416504 162.581416,144.416504 C160.061885,144.416504 158.011104,145.727539 157.454463,148.254395 L155.945674,148.254395 L155.945674,149.082031 L157.329951,149.082031 C157.307979,149.287109 157.300654,149.499512 157.300654,149.719238 C157.300654,149.931641 157.307979,150.144043 157.329951,150.341797 L155.945674,150.341797 L155.945674,151.169434 L157.454463,151.169434 C158.011104,153.696289 160.054561,155.014648 162.58874,155.014648 Z M169.621689,155 L169.621689,144.431152 L168.003037,144.431152 L165.219834,146.408691 L165.219834,147.961426 L167.981064,146.057129 L168.017686,146.057129 L168.017686,155 L169.621689,155 Z M175.819678,155.197754 C178.361182,155.197754 179.855322,153.066406 179.855322,149.697266 C179.855322,146.350098 178.346533,144.233398 175.819678,144.233398 C173.292822,144.233398 171.769385,146.357422 171.769385,149.70459 C171.769385,153.07373 173.27085,155.197754 175.819678,155.197754 Z M175.819678,153.820801 C174.288916,153.820801 173.431982,152.260742 173.431982,149.70459 C173.431982,147.185059 174.310889,145.610352 175.819678,145.610352 C177.328467,145.610352 178.200049,147.177734 178.200049,149.70459 C178.200049,152.268066 177.343115,153.820801 175.819678,153.820801 Z" id="Pay€10" fill="#697386" fill-rule="nonzero"></path>
                        <g id="Rectangle">
                            <use fill="black" fill-opacity="1" filter="url(#filter-4)" xlink:href="#path-3"></use>
                            <use fill="#FFFFFF" fill-rule="evenodd" xlink:href="#path-3"></use>
                        </g>
                        <path d="M22.6787109,60 L22.6787109,57.9492188 L24.0732422,57.9492188 L24.0732422,56.8691406 L22.6787109,56.8691406 L22.6787109,50.1357422 L20.8603516,50.1357422 C18.5292969,53.4785156 17.3740234,55.2763672 16.5332031,56.8349609 L16.5332031,57.9492188 L21.4892578,57.9492188 L21.4892578,60 L22.6787109,60 Z M21.4892578,56.8691406 L17.75,56.8691406 L17.75,56.8417969 C18.5292969,55.4746094 19.6025391,53.8271484 21.46875,51.1611328 L21.4892578,51.1611328 L21.4892578,56.8691406 Z M31.6165078,60 L31.6165078,58.90625 L26.7971719,58.90625 L26.7971719,58.8789062 L29.1418984,56.4726562 C30.9534219,54.6132812 31.4524453,53.7998047 31.4524453,52.7128906 C31.4524453,51.2158203 30.1946328,49.9716797 28.3694375,49.9716797 C26.4690469,49.9716797 25.0471719,51.2568359 25.0471719,52.9863281 L26.236625,52.9863281 C26.236625,51.8789062 27.1526406,51.0449219 28.3694375,51.0449219 C29.4973672,51.0449219 30.2219766,51.8173828 30.2219766,52.7880859 C30.2219766,53.6083984 29.9143594,54.1416016 28.5813516,55.5292969 L25.1086953,59.1523438 L25.1086953,60 L31.6165078,60 Z M38.4146563,60 L38.4146563,57.9492188 L39.8091875,57.9492188 L39.8091875,56.8691406 L38.4146563,56.8691406 L38.4146563,50.1357422 L36.5962969,50.1357422 C34.2652422,53.4785156 33.1099688,55.2763672 32.2691484,56.8349609 L32.2691484,57.9492188 L37.2252031,57.9492188 L37.2252031,60 L38.4146563,60 Z M37.2252031,56.8691406 L33.4859453,56.8691406 L33.4859453,56.8417969 C34.2652422,55.4746094 35.3384844,53.8271484 37.2046953,51.1611328 L37.2252031,51.1611328 L37.2252031,56.8691406 Z M47.3524531,60 L47.3524531,58.90625 L42.5331172,58.90625 L42.5331172,58.8789062 L44.8778437,56.4726562 C46.6893672,54.6132812 47.1883906,53.7998047 47.1883906,52.7128906 C47.1883906,51.2158203 45.9305781,49.9716797 44.1053828,49.9716797 C42.2049922,49.9716797 40.7831172,51.2568359 40.7831172,52.9863281 L41.9725703,52.9863281 C41.9725703,51.8789062 42.8885859,51.0449219 44.1053828,51.0449219 C45.2333125,51.0449219 45.9579219,51.8173828 45.9579219,52.7880859 C45.9579219,53.6083984 45.6503047,54.1416016 44.3172969,55.5292969 L40.8446406,59.1523438 L40.8446406,60 L47.3524531,60 Z M57.2094922,60 L57.2094922,57.9492188 L58.6040234,57.9492188 L58.6040234,56.8691406 L57.2094922,56.8691406 L57.2094922,50.1357422 L55.3911328,50.1357422 C53.0600781,53.4785156 51.9048047,55.2763672 51.0639844,56.8349609 L51.0639844,57.9492188 L56.0200391,57.9492188 L56.0200391,60 L57.2094922,60 Z M56.0200391,56.8691406 L52.2807813,56.8691406 L52.2807813,56.8417969 C53.0600781,55.4746094 54.1333203,53.8271484 55.9995313,51.1611328 L56.0200391,51.1611328 L56.0200391,56.8691406 Z M66.1472891,60 L66.1472891,58.90625 L61.3279531,58.90625 L61.3279531,58.8789062 L63.6726797,56.4726562 C65.4842031,54.6132812 65.9832266,53.7998047 65.9832266,52.7128906 C65.9832266,51.2158203 64.7254141,49.9716797 62.9002188,49.9716797 C60.9998281,49.9716797 59.5779531,51.2568359 59.5779531,52.9863281 L60.7674063,52.9863281 C60.7674063,51.8789062 61.6834219,51.0449219 62.9002188,51.0449219 C64.0281484,51.0449219 64.7527578,51.8173828 64.7527578,52.7880859 C64.7527578,53.6083984 64.4451406,54.1416016 63.1121328,55.5292969 L59.6394766,59.1523438 L59.6394766,60 L66.1472891,60 Z M72.9454375,60 L72.9454375,57.9492188 L74.3399688,57.9492188 L74.3399688,56.8691406 L72.9454375,56.8691406 L72.9454375,50.1357422 L71.1270781,50.1357422 C68.7960234,53.4785156 67.64075,55.2763672 66.7999297,56.8349609 L66.7999297,57.9492188 L71.7559844,57.9492188 L71.7559844,60 L72.9454375,60 Z M71.7559844,56.8691406 L68.0167266,56.8691406 L68.0167266,56.8417969 C68.7960234,55.4746094 69.8692656,53.8271484 71.7354766,51.1611328 L71.7559844,51.1611328 L71.7559844,56.8691406 Z M81.8832344,60 L81.8832344,58.90625 L77.0638984,58.90625 L77.0638984,58.8789062 L79.408625,56.4726562 C81.2201484,54.6132812 81.7191719,53.7998047 81.7191719,52.7128906 C81.7191719,51.2158203 80.4613594,49.9716797 78.6361641,49.9716797 C76.7357734,49.9716797 75.3138984,51.2568359 75.3138984,52.9863281 L76.5033516,52.9863281 C76.5033516,51.8789062 77.4193672,51.0449219 78.6361641,51.0449219 C79.7640938,51.0449219 80.4887031,51.8173828 80.4887031,52.7880859 C80.4887031,53.6083984 80.1810859,54.1416016 78.8480781,55.5292969 L75.3754219,59.1523438 L75.3754219,60 L81.8832344,60 Z M91.7402734,60 L91.7402734,57.9492188 L93.1348047,57.9492188 L93.1348047,56.8691406 L91.7402734,56.8691406 L91.7402734,50.1357422 L89.9219141,50.1357422 C87.5908594,53.4785156 86.4355859,55.2763672 85.5947656,56.8349609 L85.5947656,57.9492188 L90.5508203,57.9492188 L90.5508203,60 L91.7402734,60 Z M90.5508203,56.8691406 L86.8115625,56.8691406 L86.8115625,56.8417969 C87.5908594,55.4746094 88.6641016,53.8271484 90.5303125,51.1611328 L90.5508203,51.1611328 L90.5508203,56.8691406 Z M100.67807,60 L100.67807,58.90625 L95.8587344,58.90625 L95.8587344,58.8789062 L98.2034609,56.4726562 C100.014984,54.6132812 100.514008,53.7998047 100.514008,52.7128906 C100.514008,51.2158203 99.2561953,49.9716797 97.431,49.9716797 C95.5306094,49.9716797 94.1087344,51.2568359 94.1087344,52.9863281 L95.2981875,52.9863281 C95.2981875,51.8789062 96.2142031,51.0449219 97.431,51.0449219 C98.5589297,51.0449219 99.2835391,51.8173828 99.2835391,52.7880859 C99.2835391,53.6083984 98.9759219,54.1416016 97.6429141,55.5292969 L94.1702578,59.1523438 L94.1702578,60 L100.67807,60 Z M107.476219,60 L107.476219,57.9492188 L108.87075,57.9492188 L108.87075,56.8691406 L107.476219,56.8691406 L107.476219,50.1357422 L105.657859,50.1357422 C103.326805,53.4785156 102.171531,55.2763672 101.330711,56.8349609 L101.330711,57.9492188 L106.286766,57.9492188 L106.286766,60 L107.476219,60 Z M106.286766,56.8691406 L102.547508,56.8691406 L102.547508,56.8417969 C103.326805,55.4746094 104.400047,53.8271484 106.266258,51.1611328 L106.286766,51.1611328 L106.286766,56.8691406 Z M116.414016,60 L116.414016,58.90625 L111.59468,58.90625 L111.59468,58.8789062 L113.939406,56.4726562 C115.75093,54.6132812 116.249953,53.7998047 116.249953,52.7128906 C116.249953,51.2158203 114.992141,49.9716797 113.166945,49.9716797 C111.266555,49.9716797 109.84468,51.2568359 109.84468,52.9863281 L111.034133,52.9863281 C111.034133,51.8789062 111.950148,51.0449219 113.166945,51.0449219 C114.294875,51.0449219 115.019484,51.8173828 115.019484,52.7880859 C115.019484,53.6083984 114.711867,54.1416016 113.378859,55.5292969 L109.906203,59.1523438 L109.906203,60 L116.414016,60 Z M126.271055,60 L126.271055,57.9492188 L127.665586,57.9492188 L127.665586,56.8691406 L126.271055,56.8691406 L126.271055,50.1357422 L124.452695,50.1357422 C122.121641,53.4785156 120.966367,55.2763672 120.125547,56.8349609 L120.125547,57.9492188 L125.081602,57.9492188 L125.081602,60 L126.271055,60 Z M125.081602,56.8691406 L121.342344,56.8691406 L121.342344,56.8417969 C122.121641,55.4746094 123.194883,53.8271484 125.061094,51.1611328 L125.081602,51.1611328 L125.081602,56.8691406 Z M135.208852,60 L135.208852,58.90625 L130.389516,58.90625 L130.389516,58.8789062 L132.734242,56.4726562 C134.545766,54.6132812 135.044789,53.7998047 135.044789,52.7128906 C135.044789,51.2158203 133.786977,49.9716797 131.961781,49.9716797 C130.061391,49.9716797 128.639516,51.2568359 128.639516,52.9863281 L129.828969,52.9863281 C129.828969,51.8789062 130.744984,51.0449219 131.961781,51.0449219 C133.089711,51.0449219 133.81432,51.8173828 133.81432,52.7880859 C133.81432,53.6083984 133.506703,54.1416016 132.173695,55.5292969 L128.701039,59.1523438 L128.701039,60 L135.208852,60 Z M142.007,60 L142.007,57.9492188 L143.401531,57.9492188 L143.401531,56.8691406 L142.007,56.8691406 L142.007,50.1357422 L140.188641,50.1357422 C137.857586,53.4785156 136.702313,55.2763672 135.861492,56.8349609 L135.861492,57.9492188 L140.817547,57.9492188 L140.817547,60 L142.007,60 Z M140.817547,56.8691406 L137.078289,56.8691406 L137.078289,56.8417969 C137.857586,55.4746094 138.930828,53.8271484 140.797039,51.1611328 L140.817547,51.1611328 L140.817547,56.8691406 Z M150.944797,60 L150.944797,58.90625 L146.125461,58.90625 L146.125461,58.8789062 L148.470188,56.4726562 C150.281711,54.6132812 150.780734,53.7998047 150.780734,52.7128906 C150.780734,51.2158203 149.522922,49.9716797 147.697727,49.9716797 C145.797336,49.9716797 144.375461,51.2568359 144.375461,52.9863281 L145.564914,52.9863281 C145.564914,51.8789062 146.48093,51.0449219 147.697727,51.0449219 C148.825656,51.0449219 149.550266,51.8173828 149.550266,52.7880859 C149.550266,53.6083984 149.242648,54.1416016 147.909641,55.5292969 L144.436984,59.1523438 L144.436984,60 L150.944797,60 Z" id="4242424242424242" fill="#8792A2" fill-rule="nonzero"></path>
                        <path d="M20.2519531,102.164062 C22.5488281,102.164062 23.875,100.174805 23.875,97.0576172 C23.875,93.9609375 22.5419922,91.9716797 20.2519531,91.9716797 C17.9619141,91.9716797 16.6152344,93.9746094 16.6152344,97.0644531 C16.6152344,100.181641 17.9482422,102.164062 20.2519531,102.164062 Z M20.2519531,101.09082 C18.7070312,101.09082 17.8525391,99.5185547 17.8525391,97.0576172 C17.8525391,94.6513672 18.7275391,93.0517578 20.2519531,93.0517578 C21.7763672,93.0517578 22.6376953,94.6376953 22.6376953,97.0644531 C22.6376953,99.5253906 21.7900391,101.09082 20.2519531,101.09082 Z M28.5266641,102.164062 C30.6184609,102.164062 32.1086953,100.988281 32.1086953,99.3339844 C32.1086953,98.1103516 31.2610391,97.0986328 29.9827188,96.7978516 L29.9827188,96.7705078 C31.0764688,96.421875 31.7395547,95.5947266 31.7395547,94.5693359 C31.7395547,93.0654297 30.392875,91.9716797 28.5266641,91.9716797 C26.674125,91.9716797 25.3069375,93.0722656 25.3069375,94.5625 C25.3069375,95.6015625 25.9836953,96.4355469 27.0706094,96.7705078 L27.0706094,96.7978516 C25.799125,97.0917969 24.9514688,98.1035156 24.9514688,99.3339844 C24.9514688,100.981445 26.4417031,102.164062 28.5266641,102.164062 Z M28.5266641,96.3125 C27.3508828,96.3125 26.5305703,95.6357422 26.5305703,94.6787109 C26.5305703,93.7148438 27.3508828,93.03125 28.5266641,93.03125 C29.7024453,93.03125 30.5227578,93.7080078 30.5227578,94.6787109 C30.5227578,95.6357422 29.6956094,96.3125 28.5266641,96.3125 Z M28.5266641,101.09082 C27.1731484,101.09082 26.2024453,100.318359 26.2024453,99.2451172 C26.2024453,98.1650391 27.1731484,97.3925781 28.5266641,97.3925781 C29.8870156,97.3925781 30.8508828,98.1582031 30.8508828,99.2451172 C30.8508828,100.318359 29.8870156,101.09082 28.5266641,101.09082 Z M36.3055781,104.098633 L39.7987422,92.1357422 L38.7801875,92.1357422 L35.2870234,104.098633 L36.3055781,104.098633 Z M49.6694531,102 L49.6694531,100.90625 L44.8501172,100.90625 L44.8501172,100.878906 L47.1948438,98.4726562 C49.0063672,96.6132812 49.5053906,95.7998047 49.5053906,94.7128906 C49.5053906,93.2158203 48.2475781,91.9716797 46.4223828,91.9716797 C44.5219922,91.9716797 43.1001172,93.2568359 43.1001172,94.9863281 L44.2895703,94.9863281 C44.2895703,93.8789062 45.2055859,93.0449219 46.4223828,93.0449219 C47.5503125,93.0449219 48.2749219,93.8173828 48.2749219,94.7880859 C48.2749219,95.6083984 47.9673047,96.1416016 46.6342969,97.5292969 L43.1616406,101.152344 L43.1616406,102 L49.6694531,102 Z M54.6355703,102 L54.6355703,92.1357422 L53.4324453,92.1357422 L50.8074453,94.0224609 L50.8074453,95.2597656 L53.4187734,93.4414062 L53.4461172,93.4414062 L53.4461172,102 L54.6355703,102 Z" id="08/21" fill="#8792A2" fill-rule="nonzero"></path>
                        <path d="M163.19043,102.164062 C165.282227,102.164062 166.772461,100.988281 166.772461,99.3339844 C166.772461,98.1103516 165.924805,97.0986328 164.646484,96.7978516 L164.646484,96.7705078 C165.740234,96.421875 166.40332,95.5947266 166.40332,94.5693359 C166.40332,93.0654297 165.056641,91.9716797 163.19043,91.9716797 C161.337891,91.9716797 159.970703,93.0722656 159.970703,94.5625 C159.970703,95.6015625 160.647461,96.4355469 161.734375,96.7705078 L161.734375,96.7978516 C160.462891,97.0917969 159.615234,98.1035156 159.615234,99.3339844 C159.615234,100.981445 161.105469,102.164062 163.19043,102.164062 Z M163.19043,96.3125 C162.014648,96.3125 161.194336,95.6357422 161.194336,94.6787109 C161.194336,93.7148438 162.014648,93.03125 163.19043,93.03125 C164.366211,93.03125 165.186523,93.7080078 165.186523,94.6787109 C165.186523,95.6357422 164.359375,96.3125 163.19043,96.3125 Z M163.19043,101.09082 C161.836914,101.09082 160.866211,100.318359 160.866211,99.2451172 C160.866211,98.1650391 161.836914,97.3925781 163.19043,97.3925781 C164.550781,97.3925781 165.514648,98.1582031 165.514648,99.2451172 C165.514648,100.318359 164.550781,101.09082 163.19043,101.09082 Z M171.738578,102 L171.738578,92.1357422 L170.535453,92.1357422 L167.910453,94.0224609 L167.910453,95.2597656 L170.521781,93.4414062 L170.549125,93.4414062 L170.549125,102 L171.738578,102 Z M180.594344,102 L180.594344,100.90625 L175.775008,100.90625 L175.775008,100.878906 L178.119734,98.4726562 C179.931258,96.6132812 180.430281,95.7998047 180.430281,94.7128906 C180.430281,93.2158203 179.172469,91.9716797 177.347273,91.9716797 C175.446883,91.9716797 174.025008,93.2568359 174.025008,94.9863281 L175.214461,94.9863281 C175.214461,93.8789062 176.130477,93.0449219 177.347273,93.0449219 C178.475203,93.0449219 179.199813,93.8173828 179.199813,94.7880859 C179.199813,95.6083984 178.892195,96.1416016 177.559188,97.5292969 L174.086531,101.152344 L174.086531,102 L180.594344,102 Z" id="812" fill="#8792A2" fill-rule="nonzero"></path>
                        <g id="Icon/card" opacity="0.738025484" transform="translate(283.000000, 48.000000)">
                            <mask id="mask-6" fill="white">
                                <use xlink:href="#path-5"></use>
                            </mask>
                            <use id="Mask" fill="#000000" fill-rule="evenodd" xlink:href="#path-5"></use>
                            <g id="_Elements/Icon/Color/gray" mask="url(#mask-6)" fill="#8792A2" fill-rule="evenodd">
                                <rect id="Color" x="0" y="0" width="16" height="16"></rect>
                            </g>
                        </g>
                        <line x1="143.5" y1="77" x2="143.5" y2="115" id="Path" stroke="#DBDEE3"></line>
                        <line x1="0" y1="77.5" x2="317.5" y2="77.5" id="Path-2" stroke="#DBDEE3"></line>
                    </g>
                    <g id="flashmsg" transform="translate(59.000000, 230.000000)">
                        <path d="M46.4404297,24 L46.4404297,20.6298828 L48.5595703,20.6298828 C50.4941406,20.6298828 51.8544922,19.3037109 51.8544922,17.3759766 C51.8544922,15.4550781 50.5214844,14.1357422 48.6074219,14.1357422 L44.9091797,14.1357422 L44.9091797,24 L46.4404297,24 Z M48.1972656,19.3447266 L46.4404297,19.3447266 L46.4404297,15.4277344 L48.2041016,15.4277344 C49.5302734,15.4277344 50.2890625,16.1386719 50.2890625,17.3828125 C50.2890625,18.6269531 49.5302734,19.3447266 48.1972656,19.3447266 Z M54.4931641,24 L54.4931641,19.6933594 C54.4931641,18.6748047 55.0810547,18.0390625 56.03125,18.0390625 C56.3183594,18.0390625 56.578125,18.0732422 56.6943359,18.1210938 L56.6943359,16.7470703 C56.5849609,16.7265625 56.4003906,16.6923828 56.1884766,16.6923828 C55.3408203,16.6923828 54.6982422,17.1914062 54.4589844,18.0322266 L54.4248047,18.0322266 L54.4248047,16.8085938 L53.0166016,16.8085938 L53.0166016,24 L54.4931641,24 Z M60.7001953,24.1367188 C62.7578125,24.1367188 64.1113281,22.7216797 64.1113281,20.4042969 C64.1113281,18.09375 62.7509766,16.6787109 60.7001953,16.6787109 C58.6494141,16.6787109 57.2890625,18.09375 57.2890625,20.4042969 C57.2890625,22.7216797 58.6425781,24.1367188 60.7001953,24.1367188 Z M60.7001953,22.9199219 C59.5449219,22.9199219 58.7929688,22.0039062 58.7929688,20.4042969 C58.7929688,18.8115234 59.5449219,17.8955078 60.7001953,17.8955078 C61.8554688,17.8955078 62.6074219,18.8115234 62.6074219,20.4042969 C62.6074219,22.0039062 61.8623047,22.9199219 60.7001953,22.9199219 Z M68.3291016,24.1367188 C70.0585938,24.1367188 71.2822266,23.0976562 71.4394531,21.5664062 L70.0175781,21.5664062 C69.8466797,22.4003906 69.2519531,22.8994141 68.3427734,22.8994141 C67.1943359,22.8994141 66.4355469,21.9833984 66.4355469,20.4042969 C66.4355469,18.859375 67.1875,17.9091797 68.3291016,17.9091797 C69.2929688,17.9091797 69.8671875,18.5175781 70.0175781,19.2832031 L71.4257812,19.2832031 C71.2958984,17.8681641 70.1679688,16.6787109 68.3154297,16.6787109 C66.2714844,16.6787109 64.9316406,18.1210938 64.9316406,20.4042969 C64.9316406,22.7285156 66.2714844,24.1367188 68.3291016,24.1367188 Z M75.5546875,24.1367188 C77.2021484,24.1367188 78.4462891,23.2001953 78.6513672,21.8876953 L77.25,21.8876953 C77.0517578,22.5166016 76.4296875,22.9404297 75.5888672,22.9404297 C74.40625,22.9404297 73.6542969,22.1132812 73.6542969,20.8623047 L73.6542969,20.7734375 L78.7333984,20.7734375 L78.7333984,20.2675781 C78.7333984,18.0869141 77.4892578,16.6787109 75.4931641,16.6787109 C73.4628906,16.6787109 72.1640625,18.1826172 72.1640625,20.4384766 C72.1640625,22.7080078 73.4423828,24.1367188 75.5546875,24.1367188 Z M77.2568359,19.7412109 L73.6611328,19.7412109 C73.7363281,18.6542969 74.4609375,17.8681641 75.4931641,17.8681641 C76.5253906,17.8681641 77.2226562,18.640625 77.2568359,19.7412109 Z M82.5751953,24.1367188 C84.2705078,24.1367188 85.4941406,23.234375 85.4941406,21.921875 C85.4941406,20.8828125 84.9335938,20.3085938 83.4638672,19.9667969 L82.2949219,19.7001953 C81.515625,19.5224609 81.1875,19.2148438 81.1875,18.7636719 C81.1875,18.1894531 81.7207031,17.7998047 82.5205078,17.7998047 C83.3476562,17.7998047 83.8603516,18.2373047 83.9423828,18.9345703 L85.3300781,18.9345703 C85.2822266,17.6083984 84.1953125,16.6787109 82.5205078,16.6787109 C80.8662109,16.6787109 79.7451172,17.5605469 79.7451172,18.8457031 C79.7451172,19.8916016 80.421875,20.5478516 81.7890625,20.8623047 L82.9580078,21.1357422 C83.7441406,21.3134766 84.0107422,21.5869141 84.0107422,22.0517578 C84.0107422,22.6396484 83.4638672,23.0087891 82.5751953,23.0087891 C81.6728516,23.0087891 81.1601562,22.6396484 81.0234375,21.8876953 L79.5605469,21.8876953 C79.6972656,23.2548828 80.7773438,24.1367188 82.5751953,24.1367188 Z M89.3359375,24.1367188 C91.03125,24.1367188 92.2548828,23.234375 92.2548828,21.921875 C92.2548828,20.8828125 91.6943359,20.3085938 90.2246094,19.9667969 L89.0556641,19.7001953 C88.2763672,19.5224609 87.9482422,19.2148438 87.9482422,18.7636719 C87.9482422,18.1894531 88.4814453,17.7998047 89.28125,17.7998047 C90.1083984,17.7998047 90.6210938,18.2373047 90.703125,18.9345703 L92.0908203,18.9345703 C92.0429688,17.6083984 90.9560547,16.6787109 89.28125,16.6787109 C87.6269531,16.6787109 86.5058594,17.5605469 86.5058594,18.8457031 C86.5058594,19.8916016 87.1826172,20.5478516 88.5498047,20.8623047 L89.71875,21.1357422 C90.5048828,21.3134766 90.7714844,21.5869141 90.7714844,22.0517578 C90.7714844,22.6396484 90.2246094,23.0087891 89.3359375,23.0087891 C88.4335938,23.0087891 87.9208984,22.6396484 87.7841797,21.8876953 L86.3212891,21.8876953 C86.4580078,23.2548828 87.5380859,24.1367188 89.3359375,24.1367188 Z M94.1826172,15.6464844 C94.6542969,15.6464844 95.0302734,15.2636719 95.0302734,14.7988281 C95.0302734,14.3271484 94.6542969,13.9511719 94.1826172,13.9511719 C93.7109375,13.9511719 93.328125,14.3271484 93.328125,14.7988281 C93.328125,15.2636719 93.7109375,15.6464844 94.1826172,15.6464844 Z M94.9208984,24 L94.9208984,16.8085938 L93.4443359,16.8085938 L93.4443359,24 L94.9208984,24 Z M97.9082031,24 L97.9082031,19.8095703 C97.9082031,18.6953125 98.578125,17.9570312 99.6171875,17.9570312 C100.642578,17.9570312 101.148438,18.5517578 101.148438,19.6318359 L101.148438,24 L102.631836,24 L102.631836,19.3447266 C102.631836,17.6972656 101.722656,16.6855469 100.136719,16.6855469 C99.0292969,16.6855469 98.2636719,17.1914062 97.8740234,18.0117188 L97.8398438,18.0117188 L97.8398438,16.8085938 L96.4316406,16.8085938 L96.4316406,24 L97.9082031,24 Z M107.129883,26.7070312 C109.180664,26.7070312 110.506836,25.5859375 110.506836,23.8701172 L110.506836,16.8085938 L109.071289,16.8085938 L109.071289,18.0390625 L109.043945,18.0390625 C108.606445,17.2050781 107.772461,16.6923828 106.753906,16.6923828 C104.908203,16.6923828 103.732422,18.1142578 103.732422,20.3769531 C103.732422,22.6191406 104.915039,24.0273438 106.719727,24.0273438 C107.745117,24.0273438 108.592773,23.5146484 108.996094,22.7353516 L109.023438,22.7353516 L109.023438,23.9179688 C109.023438,24.9023438 108.339844,25.5585938 107.18457,25.5585938 C106.34375,25.5585938 105.6875,25.1621094 105.475586,24.5605469 L103.992188,24.5605469 C104.176758,25.8046875 105.43457,26.7070312 107.129883,26.7070312 Z M107.116211,22.8037109 C105.981445,22.8037109 105.243164,21.8876953 105.243164,20.3837891 C105.243164,18.8867188 105.981445,17.9365234 107.116211,17.9365234 C108.271484,17.9365234 109.030273,18.9072266 109.030273,20.3837891 C109.030273,21.8671875 108.271484,22.8037109 107.116211,22.8037109 Z M116.276367,26.3789062 L116.276367,22.8173828 L116.310547,22.8173828 C116.720703,23.6171875 117.541016,24.1230469 118.573242,24.1230469 C120.37793,24.1230469 121.574219,22.6806641 121.574219,20.4042969 C121.574219,18.1279297 120.371094,16.6923828 118.545898,16.6923828 C117.506836,16.6923828 116.679688,17.21875 116.255859,18.0458984 L116.228516,18.0458984 L116.228516,16.8085938 L114.799805,16.8085938 L114.799805,26.3789062 L116.276367,26.3789062 Z M118.15625,22.8720703 C117.021484,22.8720703 116.269531,21.9013672 116.269531,20.4042969 C116.269531,18.9208984 117.02832,17.9365234 118.15625,17.9365234 C119.325195,17.9365234 120.056641,18.9003906 120.056641,20.4042969 C120.056641,21.9150391 119.325195,22.8720703 118.15625,22.8720703 Z M124.814453,24.1230469 C125.757812,24.1230469 126.666992,23.6171875 127.083984,22.8173828 L127.118164,22.8173828 L127.118164,24 L128.533203,24 L128.533203,19.0439453 C128.533203,17.6015625 127.418945,16.6787109 125.675781,16.6787109 C123.898438,16.6787109 122.791016,17.6357422 122.708984,18.9345703 L124.103516,18.9345703 C124.233398,18.2919922 124.766602,17.8818359 125.621094,17.8818359 C126.523438,17.8818359 127.063477,18.3603516 127.063477,19.1601562 L127.063477,19.7138672 L125.094727,19.8300781 C123.385742,19.9257812 122.421875,20.6982422 122.421875,21.9560547 C122.421875,23.2480469 123.40625,24.1230469 124.814453,24.1230469 Z M125.224609,22.9541016 C124.431641,22.9541016 123.912109,22.5439453 123.912109,21.9150391 C123.912109,21.2998047 124.411133,20.9101562 125.292969,20.8486328 L127.063477,20.7392578 L127.063477,21.3066406 C127.063477,22.2431641 126.256836,22.9541016 125.224609,22.9541016 Z M130.679688,26.6796875 C132.169922,26.6796875 132.880859,26.1191406 133.496094,24.3759766 L136.189453,16.8085938 L134.630859,16.8085938 L132.8125,22.6601562 L132.785156,22.6601562 L130.966797,16.8085938 L129.367188,16.8085938 L131.964844,24.0068359 C131.964844,24.0136719 131.834961,24.4375 131.834961,24.4511719 C131.609375,25.1894531 131.240234,25.4765625 130.556641,25.4765625 C130.433594,25.4765625 130.1875,25.4765625 130.078125,25.4492188 L130.078125,26.6455078 C130.1875,26.6660156 130.556641,26.6796875 130.679688,26.6796875 Z M138.53418,24 L138.53418,19.5566406 C138.53418,18.6337891 139.15625,17.9501953 140.03125,17.9501953 C140.865234,17.9501953 141.391602,18.4765625 141.391602,19.3037109 L141.391602,24 L142.84082,24 L142.84082,19.5087891 C142.84082,18.5996094 143.449219,17.9501953 144.324219,17.9501953 C145.199219,17.9501953 145.698242,18.4833984 145.698242,19.4130859 L145.698242,24 L147.181641,24 L147.181641,19.0576172 C147.181641,17.6289062 146.251953,16.6855469 144.830078,16.6855469 C143.804688,16.6855469 142.957031,17.21875 142.587891,18.09375 L142.553711,18.09375 C142.266602,17.1982422 141.541992,16.6855469 140.543945,16.6855469 C139.573242,16.6855469 138.821289,17.21875 138.5,18.0185547 L138.46582,18.0185547 L138.46582,16.8085938 L137.057617,16.8085938 L137.057617,24 L138.53418,24 Z M151.672852,24.1367188 C153.320312,24.1367188 154.564453,23.2001953 154.769531,21.8876953 L153.368164,21.8876953 C153.169922,22.5166016 152.547852,22.9404297 151.707031,22.9404297 C150.524414,22.9404297 149.772461,22.1132812 149.772461,20.8623047 L149.772461,20.7734375 L154.851562,20.7734375 L154.851562,20.2675781 C154.851562,18.0869141 153.607422,16.6787109 151.611328,16.6787109 C149.581055,16.6787109 148.282227,18.1826172 148.282227,20.4384766 C148.282227,22.7080078 149.560547,24.1367188 151.672852,24.1367188 Z M153.375,19.7412109 L149.779297,19.7412109 C149.854492,18.6542969 150.579102,17.8681641 151.611328,17.8681641 C152.643555,17.8681641 153.34082,18.640625 153.375,19.7412109 Z M157.469727,24 L157.469727,19.8095703 C157.469727,18.6953125 158.139648,17.9570312 159.178711,17.9570312 C160.204102,17.9570312 160.709961,18.5517578 160.709961,19.6318359 L160.709961,24 L162.193359,24 L162.193359,19.3447266 C162.193359,17.6972656 161.28418,16.6855469 159.698242,16.6855469 C158.59082,16.6855469 157.825195,17.1914062 157.435547,18.0117188 L157.401367,18.0117188 L157.401367,16.8085938 L155.993164,16.8085938 L155.993164,24 L157.469727,24 Z M166.069336,24.0478516 C166.397461,24.0478516 166.725586,24.0205078 166.889648,23.9794922 L166.889648,22.8105469 C166.793945,22.8310547 166.554688,22.8447266 166.404297,22.8447266 C165.802734,22.8447266 165.529297,22.5644531 165.529297,21.9423828 L165.529297,17.9775391 L166.896484,17.9775391 L166.896484,16.8085938 L165.529297,16.8085938 L165.529297,15.1064453 L164.045898,15.1064453 L164.045898,16.8085938 L163,16.8085938 L163,17.9775391 L164.045898,17.9775391 L164.045898,22.1064453 C164.045898,23.4941406 164.613281,24.0478516 166.069336,24.0478516 Z M173.643555,24.1230469 C174.689453,24.1230469 175.509766,23.5966797 175.933594,22.7763672 L175.960938,22.7763672 L175.960938,24 L177.396484,24 L177.396484,14.1357422 L175.913086,14.1357422 L175.913086,18.0048828 L175.885742,18.0048828 C175.482422,17.2119141 174.662109,16.6923828 173.629883,16.6923828 C171.825195,16.6923828 170.62207,18.1347656 170.62207,20.4042969 C170.62207,22.6738281 171.825195,24.1230469 173.643555,24.1230469 Z M174.033203,22.8720703 C172.864258,22.8720703 172.132812,21.921875 172.132812,20.4042969 C172.132812,18.8935547 172.864258,17.9365234 174.033203,17.9365234 C175.167969,17.9365234 175.926758,18.9140625 175.926758,20.4042969 C175.926758,21.9082031 175.167969,22.8720703 174.033203,22.8720703 Z M181.976562,24.1367188 C183.624023,24.1367188 184.868164,23.2001953 185.073242,21.8876953 L183.671875,21.8876953 C183.473633,22.5166016 182.851562,22.9404297 182.010742,22.9404297 C180.828125,22.9404297 180.076172,22.1132812 180.076172,20.8623047 L180.076172,20.7734375 L185.155273,20.7734375 L185.155273,20.2675781 C185.155273,18.0869141 183.911133,16.6787109 181.915039,16.6787109 C179.884766,16.6787109 178.585938,18.1826172 178.585938,20.4384766 C178.585938,22.7080078 179.864258,24.1367188 181.976562,24.1367188 Z M183.678711,19.7412109 L180.083008,19.7412109 C180.158203,18.6542969 180.882812,17.8681641 181.915039,17.8681641 C182.947266,17.8681641 183.644531,18.640625 183.678711,19.7412109 Z M188.750977,24.0478516 C189.079102,24.0478516 189.407227,24.0205078 189.571289,23.9794922 L189.571289,22.8105469 C189.475586,22.8310547 189.236328,22.8447266 189.085938,22.8447266 C188.484375,22.8447266 188.210938,22.5644531 188.210938,21.9423828 L188.210938,17.9775391 L189.578125,17.9775391 L189.578125,16.8085938 L188.210938,16.8085938 L188.210938,15.1064453 L186.727539,15.1064453 L186.727539,16.8085938 L185.681641,16.8085938 L185.681641,17.9775391 L186.727539,17.9775391 L186.727539,22.1064453 C186.727539,23.4941406 187.294922,24.0478516 188.750977,24.0478516 Z M192.893555,24.1230469 C193.836914,24.1230469 194.746094,23.6171875 195.163086,22.8173828 L195.197266,22.8173828 L195.197266,24 L196.612305,24 L196.612305,19.0439453 C196.612305,17.6015625 195.498047,16.6787109 193.754883,16.6787109 C191.977539,16.6787109 190.870117,17.6357422 190.788086,18.9345703 L192.182617,18.9345703 C192.3125,18.2919922 192.845703,17.8818359 193.700195,17.8818359 C194.602539,17.8818359 195.142578,18.3603516 195.142578,19.1601562 L195.142578,19.7138672 L193.173828,19.8300781 C191.464844,19.9257812 190.500977,20.6982422 190.500977,21.9560547 C190.500977,23.2480469 191.485352,24.1230469 192.893555,24.1230469 Z M193.303711,22.9541016 C192.510742,22.9541016 191.991211,22.5439453 191.991211,21.9150391 C191.991211,21.2998047 192.490234,20.9101562 193.37207,20.8486328 L195.142578,20.7392578 L195.142578,21.3066406 C195.142578,22.2431641 194.335938,22.9541016 193.303711,22.9541016 Z M198.827148,15.6464844 C199.298828,15.6464844 199.674805,15.2636719 199.674805,14.7988281 C199.674805,14.3271484 199.298828,13.9511719 198.827148,13.9511719 C198.355469,13.9511719 197.972656,14.3271484 197.972656,14.7988281 C197.972656,15.2636719 198.355469,15.6464844 198.827148,15.6464844 Z M199.56543,24 L199.56543,16.8085938 L198.088867,16.8085938 L198.088867,24 L199.56543,24 Z M202.607422,24 L202.607422,14.1357422 L201.130859,14.1357422 L201.130859,24 L202.607422,24 Z M206.825195,24.1367188 C208.520508,24.1367188 209.744141,23.234375 209.744141,21.921875 C209.744141,20.8828125 209.183594,20.3085938 207.713867,19.9667969 L206.544922,19.7001953 C205.765625,19.5224609 205.4375,19.2148438 205.4375,18.7636719 C205.4375,18.1894531 205.970703,17.7998047 206.770508,17.7998047 C207.597656,17.7998047 208.110352,18.2373047 208.192383,18.9345703 L209.580078,18.9345703 C209.532227,17.6083984 208.445312,16.6787109 206.770508,16.6787109 C205.116211,16.6787109 203.995117,17.5605469 203.995117,18.8457031 C203.995117,19.8916016 204.671875,20.5478516 206.039062,20.8623047 L207.208008,21.1357422 C207.994141,21.3134766 208.260742,21.5869141 208.260742,22.0517578 C208.260742,22.6396484 207.713867,23.0087891 206.825195,23.0087891 C205.922852,23.0087891 205.410156,22.6396484 205.273438,21.8876953 L203.810547,21.8876953 C203.947266,23.2548828 205.027344,24.1367188 206.825195,24.1367188 Z" id="Processingpaymentdetails" fill="#3C415C" fill-rule="nonzero"></path>
                        <g id="clock" transform="translate(11.000000, 10.000000)">
                            <circle id="Oval" fill="#BBCCD7" cx="9.5" cy="9.5" r="9.5"></circle>
                            <polyline id="Path-9" stroke="#FFFFFF" stroke-width="2" stroke-linecap="round" stroke-linejoin="round" points="9 4 9 10.4426875 14 12"></polyline>
                        </g>
                        <rect id="Rectangle-Copy-2" stroke="#BBCCD7" x="0" y="0" width="321" height="39" rx="4"></rect>
                    </g>
                </g>
            </g>
        </g>
    </g>
</svg>